STARTFONT 2.1
COMMENT AUTOMATICALLY GENERATED FILE. DO NOT EDIT!
COMMENT Generated with 'any2ucs.pl knj10B.bdf sjis.map'
COMMENT from a(n) jisx0208.1983-0 encoded source BDF font.
COMMENT any2ucs.pl is based on ucs2any.pl by Markus Kuhn <mkuhn@acm.org>, 2000.
COMMENT knj10B.bdf Ver.1.1 (1999.5.30)
COMMENT Copyright 1998, 1999 (c) NAGAO, Sadakazu.  All rights reserved.
COMMENT E-mail: snagao@tkb.att.ne.jp
FONT -Misc-Fixed-Bold-R-Normal--10-90-75-75-C-100-jisx0208.1983-0
SIZE 10 75 75
FONTBOUNDINGBOX 10 10 0 -2
STARTPROPERTIES 19
FONTNAME_REGISTRY ""
FOUNDRY "Misc"
FAMILY_NAME "Fixed"
WEIGHT_NAME "Bold"
SLANT "R"
SETWIDTH_NAME "Normal"
ADD_STYLE_NAME ""
PIXEL_SIZE 10
POINT_SIZE 90
RESOLUTION_X 75
RESOLUTION_Y 75
SPACING "C"
AVERAGE_WIDTH 100
CHARSET_REGISTRY "ISO10646"
CHARSET_ENCODING "1"
DEFAULT_CHAR 0
FONT_DESCENT 2
FONT_ASCENT 8
COPYRIGHT "Copyright 1998, 1999 (c) NAGAO, Sadakazu.  All rights reserved."
ENDPROPERTIES
CHARS 6878
STARTCHAR defaultchar
ENCODING 0
SWIDTH 960 0
DWIDTH 10 0
BBX 10 10 0 -2
BITMAP
0000
0000
0000
0000
0000
0000
0000
0000
0000
0000
ENDCHAR
STARTCHAR 2178
ENCODING 167
SWIDTH 960 0
DWIDTH 10 0
BBX 10 10 0 -2
BITMAP
1c00
3600
1800
3400
3600
1a00
0c00
3600
1c00
0000
ENDCHAR
STARTCHAR 212f
ENCODING 168
SWIDTH 960 0
DWIDTH 10 0
BBX 10 10 0 -2
BITMAP
7700
7700
0000
0000
0000
0000
0000
0000
0000
0000
ENDCHAR
STARTCHAR 216b
ENCODING 176
SWIDTH 960 0
DWIDTH 10 0
BBX 10 10 0 -2
BITMAP
f000
d000
f000
0000
0000
0000
0000
0000
0000
0000
ENDCHAR
STARTCHAR 215e
ENCODING 177
SWIDTH 960 0
DWIDTH 10 0
BBX 10 10 0 -2
BITMAP
0000
0c00
0c00
0c00
7f80
0c00
0c00
0c00
7f80
0000
ENDCHAR
STARTCHAR 212d
ENCODING 180
SWIDTH 960 0
DWIDTH 10 0
BBX 10 10 0 -2
BITMAP
0c00
1800
0000
0000
0000
0000
0000
0000
0000
0000
ENDCHAR
STARTCHAR 2279
ENCODING 182
SWIDTH 960 0
DWIDTH 10 0
BBX 10 10 0 -2
BITMAP
3e00
7a00
7a00
3a00
1a00
1a00
1a00
1a00
1a00
0000
ENDCHAR
STARTCHAR 215f
ENCODING 215
SWIDTH 960 0
DWIDTH 10 0
BBX 10 10 0 -2
BITMAP
0000
6180
3300
1a00
0c00
1a00
3300
6180
0000
0000
ENDCHAR
STARTCHAR 2160
ENCODING 247
SWIDTH 960 0
DWIDTH 10 0
BBX 10 10 0 -2
BITMAP
0000
1c00
1c00
0000
ff80
0000
1c00
1c00
0000
0000
ENDCHAR
STARTCHAR 2621
ENCODING 913
SWIDTH 960 0
DWIDTH 10 0
BBX 10 10 0 -2
BITMAP
0000
0c00
0c00
1a00
1a00
3f00
3300
7b80
0000
0000
ENDCHAR
STARTCHAR 2622
ENCODING 914
SWIDTH 960 0
DWIDTH 10 0
BBX 10 10 0 -2
BITMAP
0000
7e00
3300
3300
3e00
3300
3300
7e00
0000
0000
ENDCHAR
STARTCHAR 2623
ENCODING 915
SWIDTH 960 0
DWIDTH 10 0
BBX 10 10 0 -2
BITMAP
0000
7f00
3300
3000
3000
3000
3000
7800
0000
0000
ENDCHAR
STARTCHAR 2624
ENCODING 916
SWIDTH 960 0
DWIDTH 10 0
BBX 10 10 0 -2
BITMAP
0000
0c00
0c00
1a00
1a00
3300
3300
7f80
0000
0000
ENDCHAR
STARTCHAR 2625
ENCODING 917
SWIDTH 960 0
DWIDTH 10 0
BBX 10 10 0 -2
BITMAP
0000
7f00
3300
3400
3c00
3400
3300
7f00
0000
0000
ENDCHAR
STARTCHAR 2626
ENCODING 918
SWIDTH 960 0
DWIDTH 10 0
BBX 10 10 0 -2
BITMAP
0000
7f00
6600
0c00
1800
1800
3300
7f00
0000
0000
ENDCHAR
STARTCHAR 2627
ENCODING 919
SWIDTH 960 0
DWIDTH 10 0
BBX 10 10 0 -2
BITMAP
0000
7b80
3300
3300
3f00
3300
3300
7b80
0000
0000
ENDCHAR
STARTCHAR 2628
ENCODING 920
SWIDTH 960 0
DWIDTH 10 0
BBX 10 10 0 -2
BITMAP
0000
1e00
3300
6180
6e80
6180
3300
1e00
0000
0000
ENDCHAR
STARTCHAR 2629
ENCODING 921
SWIDTH 960 0
DWIDTH 10 0
BBX 10 10 0 -2
BITMAP
0000
1e00
0c00
0c00
0c00
0c00
0c00
1e00
0000
0000
ENDCHAR
STARTCHAR 262a
ENCODING 922
SWIDTH 960 0
DWIDTH 10 0
BBX 10 10 0 -2
BITMAP
0000
7b80
3600
3400
3800
3400
3600
7b80
0000
0000
ENDCHAR
STARTCHAR 262b
ENCODING 923
SWIDTH 960 0
DWIDTH 10 0
BBX 10 10 0 -2
BITMAP
0000
0c00
0c00
1a00
1a00
3300
3300
7b80
0000
0000
ENDCHAR
STARTCHAR 262c
ENCODING 924
SWIDTH 960 0
DWIDTH 10 0
BBX 10 10 0 -2
BITMAP
0000
e1c0
7380
7380
6a80
6a80
6d80
f5c0
0000
0000
ENDCHAR
STARTCHAR 262d
ENCODING 925
SWIDTH 960 0
DWIDTH 10 0
BBX 10 10 0 -2
BITMAP
0000
e780
7300
6b00
6d00
6700
6300
f780
0000
0000
ENDCHAR
STARTCHAR 262e
ENCODING 926
SWIDTH 960 0
DWIDTH 10 0
BBX 10 10 0 -2
BITMAP
0000
7f00
6300
0000
3e00
0000
6300
7f00
0000
0000
ENDCHAR
STARTCHAR 262f
ENCODING 927
SWIDTH 960 0
DWIDTH 10 0
BBX 10 10 0 -2
BITMAP
0000
1e00
3300
6180
6180
6180
3300
1e00
0000
0000
ENDCHAR
STARTCHAR 2630
ENCODING 928
SWIDTH 960 0
DWIDTH 10 0
BBX 10 10 0 -2
BITMAP
0000
7f80
3300
3300
3300
3300
3300
7b80
0000
0000
ENDCHAR
STARTCHAR 2631
ENCODING 929
SWIDTH 960 0
DWIDTH 10 0
BBX 10 10 0 -2
BITMAP
0000
7e00
3300
3300
3e00
3000
3000
7800
0000
0000
ENDCHAR
STARTCHAR 2632
ENCODING 931
SWIDTH 960 0
DWIDTH 10 0
BBX 10 10 0 -2
BITMAP
0000
7f00
3300
1800
0c00
1800
3300
7f00
0000
0000
ENDCHAR
STARTCHAR 2633
ENCODING 932
SWIDTH 960 0
DWIDTH 10 0
BBX 10 10 0 -2
BITMAP
0000
7f80
6d80
0c00
0c00
0c00
0c00
1e00
0000
0000
ENDCHAR
STARTCHAR 2634
ENCODING 933
SWIDTH 960 0
DWIDTH 10 0
BBX 10 10 0 -2
BITMAP
0000
3300
6a80
6d80
0c00
0c00
0c00
1e00
0000
0000
ENDCHAR
STARTCHAR 2635
ENCODING 934
SWIDTH 960 0
DWIDTH 10 0
BBX 10 10 0 -2
BITMAP
0000
0c00
3f00
6d80
6d80
6d80
3f00
0c00
0000
0000
ENDCHAR
STARTCHAR 2636
ENCODING 935
SWIDTH 960 0
DWIDTH 10 0
BBX 10 10 0 -2
BITMAP
0000
7b80
3300
1a00
0c00
1a00
3300
7b80
0000
0000
ENDCHAR
STARTCHAR 2637
ENCODING 936
SWIDTH 960 0
DWIDTH 10 0
BBX 10 10 0 -2
BITMAP
0000
1e00
6d80
d540
3500
1e00
0c00
1e00
0000
0000
ENDCHAR
STARTCHAR 2638
ENCODING 937
SWIDTH 960 0
DWIDTH 10 0
BBX 10 10 0 -2
BITMAP
0000
1e00
3300
6180
6180
3300
6a80
7b80
0000
0000
ENDCHAR
STARTCHAR 2641
ENCODING 945
SWIDTH 960 0
DWIDTH 10 0
BBX 10 10 0 -2
BITMAP
0000
0000
0000
1d00
3700
6600
6c00
3b00
0000
0000
ENDCHAR
STARTCHAR 2642
ENCODING 946
SWIDTH 960 0
DWIDTH 10 0
BBX 10 10 0 -2
BITMAP
0000
0e00
1b00
1b00
1a00
3300
3b00
3600
3000
3000
ENDCHAR
STARTCHAR 2643
ENCODING 947
SWIDTH 960 0
DWIDTH 10 0
BBX 10 10 0 -2
BITMAP
0000
0000
0000
3b00
6e00
0c00
0c00
1800
1800
0000
ENDCHAR
STARTCHAR 2644
ENCODING 948
SWIDTH 960 0
DWIDTH 10 0
BBX 10 10 0 -2
BITMAP
0000
0e00
1b00
0c00
1a00
3600
3600
1c00
0000
0000
ENDCHAR
STARTCHAR 2645
ENCODING 949
SWIDTH 960 0
DWIDTH 10 0
BBX 10 10 0 -2
BITMAP
0000
0000
0000
0e00
1b00
1c00
3300
1e00
0000
0000
ENDCHAR
STARTCHAR 2646
ENCODING 950
SWIDTH 960 0
DWIDTH 10 0
BBX 10 10 0 -2
BITMAP
0000
0c00
1f00
0c00
1800
3000
3000
1c00
0600
1c00
ENDCHAR
STARTCHAR 2647
ENCODING 951
SWIDTH 960 0
DWIDTH 10 0
BBX 10 10 0 -2
BITMAP
0000
0000
0000
3a00
6d00
1b00
3300
3600
0600
0600
ENDCHAR
STARTCHAR 2648
ENCODING 952
SWIDTH 960 0
DWIDTH 10 0
BBX 10 10 0 -2
BITMAP
0000
0e00
1b00
1b00
3f00
3600
3600
1c00
0000
0000
ENDCHAR
STARTCHAR 2649
ENCODING 953
SWIDTH 960 0
DWIDTH 10 0
BBX 10 10 0 -2
BITMAP
0000
0000
0000
0c00
0c00
1800
1a00
0c00
0000
0000
ENDCHAR
STARTCHAR 264a
ENCODING 954
SWIDTH 960 0
DWIDTH 10 0
BBX 10 10 0 -2
BITMAP
0000
0000
0000
1b00
1a00
1c00
3500
3600
0000
0000
ENDCHAR
STARTCHAR 264b
ENCODING 955
SWIDTH 960 0
DWIDTH 10 0
BBX 10 10 0 -2
BITMAP
0000
1c00
0600
0600
0e00
1a00
1b00
3300
0000
0000
ENDCHAR
STARTCHAR 264c
ENCODING 956
SWIDTH 960 0
DWIDTH 10 0
BBX 10 10 0 -2
BITMAP
0000
0000
0000
1b00
1b00
3600
3600
6d80
6000
6000
ENDCHAR
STARTCHAR 264d
ENCODING 957
SWIDTH 960 0
DWIDTH 10 0
BBX 10 10 0 -2
BITMAP
0000
0000
0000
3300
6b00
1a00
1a00
3c00
0000
0000
ENDCHAR
STARTCHAR 264e
ENCODING 958
SWIDTH 960 0
DWIDTH 10 0
BBX 10 10 0 -2
BITMAP
0000
0600
0f00
1800
1e00
3000
3000
1e00
0600
1c00
ENDCHAR
STARTCHAR 264f
ENCODING 959
SWIDTH 960 0
DWIDTH 10 0
BBX 10 10 0 -2
BITMAP
0000
0000
0000
0e00
1b00
3300
3600
1c00
0000
0000
ENDCHAR
STARTCHAR 2650
ENCODING 960
SWIDTH 960 0
DWIDTH 10 0
BBX 10 10 0 -2
BITMAP
0000
0000
0000
3f80
6a00
1a00
3600
6380
0000
0000
ENDCHAR
STARTCHAR 2651
ENCODING 961
SWIDTH 960 0
DWIDTH 10 0
BBX 10 10 0 -2
BITMAP
0000
0000
0000
0e00
1b00
1b00
3b00
3600
3000
3000
ENDCHAR
STARTCHAR 2652
ENCODING 963
SWIDTH 960 0
DWIDTH 10 0
BBX 10 10 0 -2
BITMAP
0000
0000
0000
1f00
3600
6600
6c00
3800
0000
0000
ENDCHAR
STARTCHAR 2653
ENCODING 964
SWIDTH 960 0
DWIDTH 10 0
BBX 10 10 0 -2
BITMAP
0000
0000
0000
3f00
6c00
1800
1800
0e00
0000
0000
ENDCHAR
STARTCHAR 2654
ENCODING 965
SWIDTH 960 0
DWIDTH 10 0
BBX 10 10 0 -2
BITMAP
0000
0000
0000
3600
6b00
3300
3600
1c00
0000
0000
ENDCHAR
STARTCHAR 2655
ENCODING 966
SWIDTH 960 0
DWIDTH 10 0
BBX 10 10 0 -2
BITMAP
0000
0600
0600
1e00
3500
3500
3500
1e00
1800
1800
ENDCHAR
STARTCHAR 2656
ENCODING 967
SWIDTH 960 0
DWIDTH 10 0
BBX 10 10 0 -2
BITMAP
0000
0000
3980
0d00
0e00
0c00
0c00
1c00
3400
6700
ENDCHAR
STARTCHAR 2657
ENCODING 968
SWIDTH 960 0
DWIDTH 10 0
BBX 10 10 0 -2
BITMAP
0000
0600
0600
3680
6a80
3580
3500
1e00
0c00
0c00
ENDCHAR
STARTCHAR 2658
ENCODING 969
SWIDTH 960 0
DWIDTH 10 0
BBX 10 10 0 -2
BITMAP
0000
0000
0000
3300
6d80
6d80
6d80
3700
0000
0000
ENDCHAR
STARTCHAR 2727
ENCODING 1025
SWIDTH 960 0
DWIDTH 10 0
BBX 10 10 0 -2
BITMAP
3600
0000
7f00
3300
3c00
3000
3300
7f00
0000
0000
ENDCHAR
STARTCHAR 2721
ENCODING 1040
SWIDTH 960 0
DWIDTH 10 0
BBX 10 10 0 -2
BITMAP
0000
0c00
0c00
1a00
1a00
3f00
3300
7b80
0000
0000
ENDCHAR
STARTCHAR 2722
ENCODING 1041
SWIDTH 960 0
DWIDTH 10 0
BBX 10 10 0 -2
BITMAP
0000
7f00
3300
3000
3e00
3300
3300
7e00
0000
0000
ENDCHAR
STARTCHAR 2723
ENCODING 1042
SWIDTH 960 0
DWIDTH 10 0
BBX 10 10 0 -2
BITMAP
0000
7e00
3300
3300
3e00
3300
3300
7e00
0000
0000
ENDCHAR
STARTCHAR 2724
ENCODING 1043
SWIDTH 960 0
DWIDTH 10 0
BBX 10 10 0 -2
BITMAP
0000
7f00
3300
3000
3000
3000
3000
7800
0000
0000
ENDCHAR
STARTCHAR 2725
ENCODING 1044
SWIDTH 960 0
DWIDTH 10 0
BBX 10 10 0 -2
BITMAP
0000
3f80
1b00
1b00
1b00
3300
3300
7f80
6180
0000
ENDCHAR
STARTCHAR 2726
ENCODING 1045
SWIDTH 960 0
DWIDTH 10 0
BBX 10 10 0 -2
BITMAP
0000
7f00
3300
3400
3c00
3400
3300
7f00
0000
0000
ENDCHAR
STARTCHAR 2728
ENCODING 1046
SWIDTH 960 0
DWIDTH 10 0
BBX 10 10 0 -2
BITMAP
0000
eec0
d540
3500
1e00
3500
6d80
eec0
0000
0000
ENDCHAR
STARTCHAR 2729
ENCODING 1047
SWIDTH 960 0
DWIDTH 10 0
BBX 10 10 0 -2
BITMAP
0000
3e00
6300
0600
1c00
0600
6300
3e00
0000
0000
ENDCHAR
STARTCHAR 272a
ENCODING 1048
SWIDTH 960 0
DWIDTH 10 0
BBX 10 10 0 -2
BITMAP
0000
7b80
3300
3700
3500
3b00
3300
7b80
0000
0000
ENDCHAR
STARTCHAR 272b
ENCODING 1049
SWIDTH 960 0
DWIDTH 10 0
BBX 10 10 0 -2
BITMAP
3300
1e00
7380
3700
3500
3b00
3300
7b80
0000
0000
ENDCHAR
STARTCHAR 272c
ENCODING 1050
SWIDTH 960 0
DWIDTH 10 0
BBX 10 10 0 -2
BITMAP
0000
7b80
3680
3600
3c00
3600
3300
7b80
0000
0000
ENDCHAR
STARTCHAR 272d
ENCODING 1051
SWIDTH 960 0
DWIDTH 10 0
BBX 10 10 0 -2
BITMAP
0000
3f80
1b00
1b00
1b00
1b00
6b00
7780
0000
0000
ENDCHAR
STARTCHAR 272e
ENCODING 1052
SWIDTH 960 0
DWIDTH 10 0
BBX 10 10 0 -2
BITMAP
0000
f3c0
7380
6a80
6a80
6d80
6d80
f3c0
0000
0000
ENDCHAR
STARTCHAR 272f
ENCODING 1053
SWIDTH 960 0
DWIDTH 10 0
BBX 10 10 0 -2
BITMAP
0000
7b80
3300
3300
3f00
3300
3300
7b80
0000
0000
ENDCHAR
STARTCHAR 2730
ENCODING 1054
SWIDTH 960 0
DWIDTH 10 0
BBX 10 10 0 -2
BITMAP
0000
1e00
3300
6180
6180
6180
3300
1e00
0000
0000
ENDCHAR
STARTCHAR 2731
ENCODING 1055
SWIDTH 960 0
DWIDTH 10 0
BBX 10 10 0 -2
BITMAP
0000
7f80
3300
3300
3300
3300
3300
7b80
0000
0000
ENDCHAR
STARTCHAR 2732
ENCODING 1056
SWIDTH 960 0
DWIDTH 10 0
BBX 10 10 0 -2
BITMAP
0000
7e00
3300
3300
3e00
3000
3000
7800
0000
0000
ENDCHAR
STARTCHAR 2733
ENCODING 1057
SWIDTH 960 0
DWIDTH 10 0
BBX 10 10 0 -2
BITMAP
0000
1f00
3300
6000
6000
6000
3300
1e00
0000
0000
ENDCHAR
STARTCHAR 2734
ENCODING 1058
SWIDTH 960 0
DWIDTH 10 0
BBX 10 10 0 -2
BITMAP
0000
7f80
6d80
0c00
0c00
0c00
0c00
1e00
0000
0000
ENDCHAR
STARTCHAR 2735
ENCODING 1059
SWIDTH 960 0
DWIDTH 10 0
BBX 10 10 0 -2
BITMAP
0000
7b80
3300
3300
1a00
1a00
6c00
3800
0000
0000
ENDCHAR
STARTCHAR 2736
ENCODING 1060
SWIDTH 960 0
DWIDTH 10 0
BBX 10 10 0 -2
BITMAP
0000
0c00
3f00
6d80
6d80
6d80
3f00
0c00
0000
0000
ENDCHAR
STARTCHAR 2737
ENCODING 1061
SWIDTH 960 0
DWIDTH 10 0
BBX 10 10 0 -2
BITMAP
0000
7b80
3300
1a00
0c00
1a00
3300
7b80
0000
0000
ENDCHAR
STARTCHAR 2738
ENCODING 1062
SWIDTH 960 0
DWIDTH 10 0
BBX 10 10 0 -2
BITMAP
0000
7b80
3300
3300
3300
3300
3300
7f80
0180
0000
ENDCHAR
STARTCHAR 2739
ENCODING 1063
SWIDTH 960 0
DWIDTH 10 0
BBX 10 10 0 -2
BITMAP
0000
7b80
3300
3300
3700
1d00
0300
0780
0000
0000
ENDCHAR
STARTCHAR 273a
ENCODING 1064
SWIDTH 960 0
DWIDTH 10 0
BBX 10 10 0 -2
BITMAP
0000
edc0
6d80
6d80
6d80
6d80
6d80
ffc0
0000
0000
ENDCHAR
STARTCHAR 273b
ENCODING 1065
SWIDTH 960 0
DWIDTH 10 0
BBX 10 10 0 -2
BITMAP
0000
edc0
6d80
6d80
6d80
6d80
6d80
ffc0
00c0
0000
ENDCHAR
STARTCHAR 273c
ENCODING 1066
SWIDTH 960 0
DWIDTH 10 0
BBX 10 10 0 -2
BITMAP
0000
7800
6800
1800
1f00
1980
1980
3f00
0000
0000
ENDCHAR
STARTCHAR 273d
ENCODING 1067
SWIDTH 960 0
DWIDTH 10 0
BBX 10 10 0 -2
BITMAP
0000
f3c0
6180
6180
7d80
6680
6680
fdc0
0000
0000
ENDCHAR
STARTCHAR 273e
ENCODING 1068
SWIDTH 960 0
DWIDTH 10 0
BBX 10 10 0 -2
BITMAP
0000
7800
3000
3000
3e00
3300
3300
7e00
0000
0000
ENDCHAR
STARTCHAR 273f
ENCODING 1069
SWIDTH 960 0
DWIDTH 10 0
BBX 10 10 0 -2
BITMAP
0000
3c00
6600
0300
1f00
0300
6600
3c00
0000
0000
ENDCHAR
STARTCHAR 2740
ENCODING 1070
SWIDTH 960 0
DWIDTH 10 0
BBX 10 10 0 -2
BITMAP
0000
f780
6cc0
6cc0
7cc0
6cc0
6cc0
f780
0000
0000
ENDCHAR
STARTCHAR 2741
ENCODING 1071
SWIDTH 960 0
DWIDTH 10 0
BBX 10 10 0 -2
BITMAP
0000
3f00
6600
6600
3e00
1a00
3600
6f00
0000
0000
ENDCHAR
STARTCHAR 2751
ENCODING 1072
SWIDTH 960 0
DWIDTH 10 0
BBX 10 10 0 -2
BITMAP
0000
0000
0000
3c00
0600
3e00
6600
3d00
0000
0000
ENDCHAR
STARTCHAR 2752
ENCODING 1073
SWIDTH 960 0
DWIDTH 10 0
BBX 10 10 0 -2
BITMAP
0300
1e00
3000
3e00
3300
3300
3300
1e00
0000
0000
ENDCHAR
STARTCHAR 2753
ENCODING 1074
SWIDTH 960 0
DWIDTH 10 0
BBX 10 10 0 -2
BITMAP
0000
0000
0000
3e00
1b00
1e00
1b00
3e00
0000
0000
ENDCHAR
STARTCHAR 2754
ENCODING 1075
SWIDTH 960 0
DWIDTH 10 0
BBX 10 10 0 -2
BITMAP
0000
0000
0000
3f00
1b00
1800
1800
3c00
0000
0000
ENDCHAR
STARTCHAR 2755
ENCODING 1076
SWIDTH 960 0
DWIDTH 10 0
BBX 10 10 0 -2
BITMAP
0000
0000
0000
3f00
1a00
1a00
3600
7f00
6300
0000
ENDCHAR
STARTCHAR 2756
ENCODING 1077
SWIDTH 960 0
DWIDTH 10 0
BBX 10 10 0 -2
BITMAP
0000
0000
0000
1e00
3300
3f00
3000
1e00
0000
0000
ENDCHAR
STARTCHAR 2758
ENCODING 1078
SWIDTH 960 0
DWIDTH 10 0
BBX 10 10 0 -2
BITMAP
0000
0000
0000
7580
3500
1e00
3500
7580
0000
0000
ENDCHAR
STARTCHAR 2759
ENCODING 1079
SWIDTH 960 0
DWIDTH 10 0
BBX 10 10 0 -2
BITMAP
0000
0000
0000
1e00
3300
0e00
3300
1e00
0000
0000
ENDCHAR
STARTCHAR 275a
ENCODING 1080
SWIDTH 960 0
DWIDTH 10 0
BBX 10 10 0 -2
BITMAP
0000
0000
0000
7b80
3700
3500
3b00
7780
0000
0000
ENDCHAR
STARTCHAR 275b
ENCODING 1081
SWIDTH 960 0
DWIDTH 10 0
BBX 10 10 0 -2
BITMAP
0000
1a00
0c00
7380
3700
3500
3b00
7780
0000
0000
ENDCHAR
STARTCHAR 275c
ENCODING 1082
SWIDTH 960 0
DWIDTH 10 0
BBX 10 10 0 -2
BITMAP
0000
0000
0000
7b00
3500
3c00
3600
7b00
0000
0000
ENDCHAR
STARTCHAR 275d
ENCODING 1083
SWIDTH 960 0
DWIDTH 10 0
BBX 10 10 0 -2
BITMAP
0000
0000
0000
3f00
1a00
1a00
6a00
7600
0000
0000
ENDCHAR
STARTCHAR 275e
ENCODING 1084
SWIDTH 960 0
DWIDTH 10 0
BBX 10 10 0 -2
BITMAP
0000
0000
0000
7380
3b00
3500
3500
7380
0000
0000
ENDCHAR
STARTCHAR 275f
ENCODING 1085
SWIDTH 960 0
DWIDTH 10 0
BBX 10 10 0 -2
BITMAP
0000
0000
0000
7b80
3300
3f00
3300
7b80
0000
0000
ENDCHAR
STARTCHAR 2760
ENCODING 1086
SWIDTH 960 0
DWIDTH 10 0
BBX 10 10 0 -2
BITMAP
0000
0000
0000
1e00
3300
3300
3300
1e00
0000
0000
ENDCHAR
STARTCHAR 2761
ENCODING 1087
SWIDTH 960 0
DWIDTH 10 0
BBX 10 10 0 -2
BITMAP
0000
0000
0000
7f80
3300
3300
3300
7b80
0000
0000
ENDCHAR
STARTCHAR 2762
ENCODING 1088
SWIDTH 960 0
DWIDTH 10 0
BBX 10 10 0 -2
BITMAP
0000
0000
0000
7600
3b00
3300
3b00
3600
3000
7800
ENDCHAR
STARTCHAR 2763
ENCODING 1089
SWIDTH 960 0
DWIDTH 10 0
BBX 10 10 0 -2
BITMAP
0000
0000
0000
1e00
3300
3000
3300
1e00
0000
0000
ENDCHAR
STARTCHAR 2764
ENCODING 1090
SWIDTH 960 0
DWIDTH 10 0
BBX 10 10 0 -2
BITMAP
0000
0000
0000
3f00
3500
0c00
0c00
1e00
0000
0000
ENDCHAR
STARTCHAR 2765
ENCODING 1091
SWIDTH 960 0
DWIDTH 10 0
BBX 10 10 0 -2
BITMAP
0000
0000
0000
7b80
3300
1a00
1a00
0c00
6c00
3800
ENDCHAR
STARTCHAR 2766
ENCODING 1092
SWIDTH 960 0
DWIDTH 10 0
BBX 10 10 0 -2
BITMAP
0000
1e00
0c00
3500
6e80
6d80
6e80
3500
0c00
1e00
ENDCHAR
STARTCHAR 2767
ENCODING 1093
SWIDTH 960 0
DWIDTH 10 0
BBX 10 10 0 -2
BITMAP
0000
0000
0000
7b80
1a00
0c00
1a00
7b80
0000
0000
ENDCHAR
STARTCHAR 2768
ENCODING 1094
SWIDTH 960 0
DWIDTH 10 0
BBX 10 10 0 -2
BITMAP
0000
0000
0000
7b80
3300
3300
3300
7f80
0180
0000
ENDCHAR
STARTCHAR 2769
ENCODING 1095
SWIDTH 960 0
DWIDTH 10 0
BBX 10 10 0 -2
BITMAP
0000
0000
0000
7b80
3300
3700
1d00
0780
0000
0000
ENDCHAR
STARTCHAR 276a
ENCODING 1096
SWIDTH 960 0
DWIDTH 10 0
BBX 10 10 0 -2
BITMAP
0000
0000
0000
edc0
6d80
6d80
6d80
ffc0
0000
0000
ENDCHAR
STARTCHAR 276b
ENCODING 1097
SWIDTH 960 0
DWIDTH 10 0
BBX 10 10 0 -2
BITMAP
0000
0000
0000
edc0
6d80
6d80
6d80
ffc0
00c0
0000
ENDCHAR
STARTCHAR 276c
ENCODING 1098
SWIDTH 960 0
DWIDTH 10 0
BBX 10 10 0 -2
BITMAP
0000
0000
0000
7800
1800
1e00
1b00
1e00
0000
0000
ENDCHAR
STARTCHAR 276d
ENCODING 1099
SWIDTH 960 0
DWIDTH 10 0
BBX 10 10 0 -2
BITMAP
0000
0000
0000
6300
6300
7b00
6d00
7b00
0000
0000
ENDCHAR
STARTCHAR 276e
ENCODING 1100
SWIDTH 960 0
DWIDTH 10 0
BBX 10 10 0 -2
BITMAP
0000
0000
0000
3000
3000
3c00
3600
3c00
0000
0000
ENDCHAR
STARTCHAR 276f
ENCODING 1101
SWIDTH 960 0
DWIDTH 10 0
BBX 10 10 0 -2
BITMAP
0000
0000
0000
1e00
3300
0f00
3300
1e00
0000
0000
ENDCHAR
STARTCHAR 2770
ENCODING 1102
SWIDTH 960 0
DWIDTH 10 0
BBX 10 10 0 -2
BITMAP
0000
0000
0000
6e00
6b00
7b00
6b00
6e00
0000
0000
ENDCHAR
STARTCHAR 2771
ENCODING 1103
SWIDTH 960 0
DWIDTH 10 0
BBX 10 10 0 -2
BITMAP
0000
0000
0000
3f00
6600
3e00
1a00
7700
0000
0000
ENDCHAR
STARTCHAR 2757
ENCODING 1105
SWIDTH 960 0
DWIDTH 10 0
BBX 10 10 0 -2
BITMAP
0000
1a00
0000
1e00
3300
3f00
3000
1e00
0000
0000
ENDCHAR
STARTCHAR 213e
ENCODING 8208
SWIDTH 960 0
DWIDTH 10 0
BBX 10 10 0 -2
BITMAP
0000
0000
0000
0000
1e00
0000
0000
0000
0000
0000
ENDCHAR
STARTCHAR 213d
ENCODING 8213
SWIDTH 960 0
DWIDTH 10 0
BBX 10 10 0 -2
BITMAP
0000
0000
0000
0000
ffc0
0000
0000
0000
0000
0000
ENDCHAR
STARTCHAR 2142
ENCODING 8214
SWIDTH 960 0
DWIDTH 10 0
BBX 10 10 0 -2
BITMAP
3600
3600
3600
3600
3600
3600
3600
3600
3600
3600
ENDCHAR
STARTCHAR 2146
ENCODING 8216
SWIDTH 960 0
DWIDTH 10 0
BBX 10 10 0 -2
BITMAP
0180
0300
0380
0380
0000
0000
0000
0000
0000
0000
ENDCHAR
STARTCHAR 2147
ENCODING 8217
SWIDTH 960 0
DWIDTH 10 0
BBX 10 10 0 -2
BITMAP
e000
e000
6000
c000
0000
0000
0000
0000
0000
0000
ENDCHAR
STARTCHAR 2148
ENCODING 8220
SWIDTH 960 0
DWIDTH 10 0
BBX 10 10 0 -2
BITMAP
06c0
0d80
0ec0
0ec0
0000
0000
0000
0000
0000
0000
ENDCHAR
STARTCHAR 2149
ENCODING 8221
SWIDTH 960 0
DWIDTH 10 0
BBX 10 10 0 -2
BITMAP
ec00
ec00
6c00
d800
0000
0000
0000
0000
0000
0000
ENDCHAR
STARTCHAR 2277
ENCODING 8224
SWIDTH 960 0
DWIDTH 10 0
BBX 10 10 0 -2
BITMAP
0c00
0c00
3b00
0c00
0c00
0c00
0c00
0c00
0c00
0000
ENDCHAR
STARTCHAR 2278
ENCODING 8225
SWIDTH 960 0
DWIDTH 10 0
BBX 10 10 0 -2
BITMAP
0c00
0c00
3b00
0c00
0c00
0c00
3b00
0c00
0c00
0000
ENDCHAR
STARTCHAR 2145
ENCODING 8229
SWIDTH 960 0
DWIDTH 10 0
BBX 10 10 0 -2
BITMAP
0000
0000
0000
0000
7380
7380
0000
0000
0000
0000
ENDCHAR
STARTCHAR 2144
ENCODING 8230
SWIDTH 960 0
DWIDTH 10 0
BBX 10 10 0 -2
BITMAP
0000
0000
0000
0000
ed80
ed80
0000
0000
0000
0000
ENDCHAR
STARTCHAR 2273
ENCODING 8240
SWIDTH 960 0
DWIDTH 10 0
BBX 10 10 0 -2
BITMAP
0000
6600
d400
d400
6800
3580
6b40
6b40
cd80
0000
ENDCHAR
STARTCHAR 216c
ENCODING 8242
SWIDTH 960 0
DWIDTH 10 0
BBX 10 10 0 -2
BITMAP
6000
6000
c000
0000
0000
0000
0000
0000
0000
0000
ENDCHAR
STARTCHAR 216d
ENCODING 8243
SWIDTH 960 0
DWIDTH 10 0
BBX 10 10 0 -2
BITMAP
6800
6800
d000
0000
0000
0000
0000
0000
0000
0000
ENDCHAR
STARTCHAR 2228
ENCODING 8251
SWIDTH 960 0
DWIDTH 10 0
BBX 10 10 0 -2
BITMAP
ccc0
6180
3300
1a00
ccc0
1a00
3300
6180
ccc0
0000
ENDCHAR
STARTCHAR 216e
ENCODING 8451
SWIDTH 960 0
DWIDTH 10 0
BBX 10 10 0 -2
BITMAP
f000
d000
f680
1b80
3000
3000
3000
1980
0f00
0000
ENDCHAR
STARTCHAR 2272
ENCODING 8491
SWIDTH 960 0
DWIDTH 10 0
BBX 10 10 0 -2
BITMAP
1c00
3600
1c00
0000
1c00
3600
3e00
6300
6300
0000
ENDCHAR
STARTCHAR 222b
ENCODING 8592
SWIDTH 960 0
DWIDTH 10 0
BBX 10 10 0 -2
BITMAP
0000
0000
3000
6000
ffc0
6000
3000
0000
0000
0000
ENDCHAR
STARTCHAR 222c
ENCODING 8593
SWIDTH 960 0
DWIDTH 10 0
BBX 10 10 0 -2
BITMAP
0c00
1e00
3500
0c00
0c00
0c00
0c00
0c00
0c00
0000
ENDCHAR
STARTCHAR 222a
ENCODING 8594
SWIDTH 960 0
DWIDTH 10 0
BBX 10 10 0 -2
BITMAP
0000
0000
0300
0180
ffc0
0180
0300
0000
0000
0000
ENDCHAR
STARTCHAR 222d
ENCODING 8595
SWIDTH 960 0
DWIDTH 10 0
BBX 10 10 0 -2
BITMAP
0c00
0c00
0c00
0c00
0c00
0c00
3500
1e00
0c00
0000
ENDCHAR
STARTCHAR 224d
ENCODING 8658
SWIDTH 960 0
DWIDTH 10 0
BBX 10 10 0 -2
BITMAP
0000
0600
0300
ff80
00c0
ff80
0300
0600
0000
0000
ENDCHAR
STARTCHAR 224e
ENCODING 8660
SWIDTH 960 0
DWIDTH 10 0
BBX 10 10 0 -2
BITMAP
0000
1a00
3300
7f80
c0c0
7f80
3300
1a00
0000
0000
ENDCHAR
STARTCHAR 224f
ENCODING 8704
SWIDTH 960 0
DWIDTH 10 0
BBX 10 10 0 -2
BITMAP
0000
6180
6180
3f00
3300
1a00
1a00
0c00
0000
0000
ENDCHAR
STARTCHAR 225f
ENCODING 8706
SWIDTH 960 0
DWIDTH 10 0
BBX 10 10 0 -2
BITMAP
0e00
1b00
0300
0f00
1b00
3300
3600
3600
1c00
0000
ENDCHAR
STARTCHAR 2250
ENCODING 8707
SWIDTH 960 0
DWIDTH 10 0
BBX 10 10 0 -2
BITMAP
0000
3f00
0300
0300
3f00
0300
0300
3f00
0000
0000
ENDCHAR
STARTCHAR 2260
ENCODING 8711
SWIDTH 960 0
DWIDTH 10 0
BBX 10 10 0 -2
BITMAP
ffc0
6180
7180
3300
3b00
1a00
1e00
0c00
0c00
0000
ENDCHAR
STARTCHAR 223a
ENCODING 8712
SWIDTH 960 0
DWIDTH 10 0
BBX 10 10 0 -2
BITMAP
0000
3f00
6000
c000
ff00
c000
6000
3f00
0000
0000
ENDCHAR
STARTCHAR 223b
ENCODING 8715
SWIDTH 960 0
DWIDTH 10 0
BBX 10 10 0 -2
BITMAP
0000
7e00
0300
0180
7f80
0180
0300
7e00
0000
0000
ENDCHAR
STARTCHAR 215d
ENCODING 8722
SWIDTH 960 0
DWIDTH 10 0
BBX 10 10 0 -2
BITMAP
0000
0000
0000
0000
7f80
0000
0000
0000
0000
0000
ENDCHAR
STARTCHAR 2265
ENCODING 8730
SWIDTH 960 0
DWIDTH 10 0
BBX 10 10 0 -2
BITMAP
0fc0
0c00
0c00
1800
e800
6800
7000
3000
3000
0000
ENDCHAR
STARTCHAR 2267
ENCODING 8733
SWIDTH 960 0
DWIDTH 10 0
BBX 10 10 0 -2
BITMAP
0000
0000
7380
dac0
cc00
dac0
7380
0000
0000
0000
ENDCHAR
STARTCHAR 2167
ENCODING 8734
SWIDTH 960 0
DWIDTH 10 0
BBX 10 10 0 -2
BITMAP
0000
0000
7380
dac0
ccc0
dac0
7380
0000
0000
0000
ENDCHAR
STARTCHAR 225c
ENCODING 8736
SWIDTH 960 0
DWIDTH 10 0
BBX 10 10 0 -2
BITMAP
0000
0300
0600
0c00
1800
3000
6000
ff00
0000
0000
ENDCHAR
STARTCHAR 224a
ENCODING 8743
SWIDTH 960 0
DWIDTH 10 0
BBX 10 10 0 -2
BITMAP
0000
0c00
0c00
1a00
1a00
3300
3300
6180
6180
0000
ENDCHAR
STARTCHAR 224b
ENCODING 8744
SWIDTH 960 0
DWIDTH 10 0
BBX 10 10 0 -2
BITMAP
0000
6180
6180
3300
3300
1a00
1a00
0c00
0c00
0000
ENDCHAR
STARTCHAR 2241
ENCODING 8745
SWIDTH 960 0
DWIDTH 10 0
BBX 10 10 0 -2
BITMAP
0000
3f00
6180
6180
6180
6180
6180
6180
0000
0000
ENDCHAR
STARTCHAR 2240
ENCODING 8746
SWIDTH 960 0
DWIDTH 10 0
BBX 10 10 0 -2
BITMAP
0000
6180
6180
6180
6180
6180
6180
3f00
0000
0000
ENDCHAR
STARTCHAR 2269
ENCODING 8747
SWIDTH 960 0
DWIDTH 10 0
BBX 10 10 0 -2
BITMAP
0c00
1a00
1800
0c00
0c00
0c00
0600
1a00
0c00
0000
ENDCHAR
STARTCHAR 226a
ENCODING 8748
SWIDTH 960 0
DWIDTH 10 0
BBX 10 10 0 -2
BITMAP
3300
6a80
6600
3300
3300
3300
1980
6a80
3300
0000
ENDCHAR
STARTCHAR 2168
ENCODING 8756
SWIDTH 960 0
DWIDTH 10 0
BBX 10 10 0 -2
BITMAP
0000
0000
1c00
1c00
0000
0000
7700
7700
0000
0000
ENDCHAR
STARTCHAR 2268
ENCODING 8757
SWIDTH 960 0
DWIDTH 10 0
BBX 10 10 0 -2
BITMAP
0000
0000
7700
7700
0000
0000
1c00
1c00
0000
0000
ENDCHAR
STARTCHAR 2266
ENCODING 8765
SWIDTH 960 0
DWIDTH 10 0
BBX 10 10 0 -2
BITMAP
0000
0000
7380
c6c0
ccc0
d8c0
7380
0000
0000
0000
ENDCHAR
STARTCHAR 2262
ENCODING 8786
SWIDTH 960 0
DWIDTH 10 0
BBX 10 10 0 -2
BITMAP
0000
3000
0000
7f80
0000
7f80
0000
0300
0000
0000
ENDCHAR
STARTCHAR 2162
ENCODING 8800
SWIDTH 960 0
DWIDTH 10 0
BBX 10 10 0 -2
BITMAP
0000
0300
0600
7f80
0c00
7f80
1800
3000
0000
0000
ENDCHAR
STARTCHAR 2261
ENCODING 8801
SWIDTH 960 0
DWIDTH 10 0
BBX 10 10 0 -2
BITMAP
0000
0000
7f80
0000
7f80
0000
7f80
0000
0000
0000
ENDCHAR
STARTCHAR 2165
ENCODING 8806
SWIDTH 960 0
DWIDTH 10 0
BBX 10 10 0 -2
BITMAP
0780
3c00
e000
3c00
0780
0000
ff80
0000
ff80
0000
ENDCHAR
STARTCHAR 2166
ENCODING 8807
SWIDTH 960 0
DWIDTH 10 0
BBX 10 10 0 -2
BITMAP
f000
1e00
0380
1e00
f000
0000
ff80
0000
ff80
0000
ENDCHAR
STARTCHAR 2263
ENCODING 8810
SWIDTH 960 0
DWIDTH 10 0
BBX 10 10 0 -2
BITMAP
0d80
1b00
3600
6c00
d800
6c00
3600
1b00
0d80
0000
ENDCHAR
STARTCHAR 2264
ENCODING 8811
SWIDTH 960 0
DWIDTH 10 0
BBX 10 10 0 -2
BITMAP
d800
6c00
3600
1b00
0d80
1b00
3600
6c00
d800
0000
ENDCHAR
STARTCHAR 223e
ENCODING 8834
SWIDTH 960 0
DWIDTH 10 0
BBX 10 10 0 -2
BITMAP
0000
3f80
6000
c000
c000
c000
6000
3f80
0000
0000
ENDCHAR
STARTCHAR 223f
ENCODING 8835
SWIDTH 960 0
DWIDTH 10 0
BBX 10 10 0 -2
BITMAP
0000
fe00
0300
0180
0180
0180
0300
fe00
0000
0000
ENDCHAR
STARTCHAR 223c
ENCODING 8838
SWIDTH 960 0
DWIDTH 10 0
BBX 10 10 0 -2
BITMAP
0000
3f80
6000
c000
c000
6000
3f80
0000
ff80
0000
ENDCHAR
STARTCHAR 223d
ENCODING 8839
SWIDTH 960 0
DWIDTH 10 0
BBX 10 10 0 -2
BITMAP
0000
fe00
0300
0180
0180
0300
fe00
0000
ff80
0000
ENDCHAR
STARTCHAR 225d
ENCODING 8869
SWIDTH 960 0
DWIDTH 10 0
BBX 10 10 0 -2
BITMAP
0000
0c00
0c00
0c00
0c00
0c00
0c00
7f80
0000
0000
ENDCHAR
STARTCHAR 225e
ENCODING 8978
SWIDTH 960 0
DWIDTH 10 0
BBX 10 10 0 -2
BITMAP
3f00
e1c0
0000
0000
0000
0000
0000
0000
0000
0000
ENDCHAR
STARTCHAR 2821
ENCODING 9472
SWIDTH 960 0
DWIDTH 10 0
BBX 10 10 0 -2
BITMAP
0000
0000
0000
0000
ffc0
0000
0000
0000
0000
0000
ENDCHAR
STARTCHAR 282c
ENCODING 9473
SWIDTH 960 0
DWIDTH 10 0
BBX 10 10 0 -2
BITMAP
0000
0000
0000
0000
ffc0
ffc0
0000
0000
0000
0000
ENDCHAR
STARTCHAR 2822
ENCODING 9474
SWIDTH 960 0
DWIDTH 10 0
BBX 10 10 0 -2
BITMAP
0c00
0c00
0c00
0c00
0c00
0c00
0c00
0c00
0c00
0c00
ENDCHAR
STARTCHAR 282d
ENCODING 9475
SWIDTH 960 0
DWIDTH 10 0
BBX 10 10 0 -2
BITMAP
1c00
1c00
1c00
1c00
1c00
1c00
1c00
1c00
1c00
1c00
ENDCHAR
STARTCHAR 2823
ENCODING 9484
SWIDTH 960 0
DWIDTH 10 0
BBX 10 10 0 -2
BITMAP
0000
0000
0000
0000
0fc0
0c00
0c00
0c00
0c00
0c00
ENDCHAR
STARTCHAR 282e
ENCODING 9487
SWIDTH 960 0
DWIDTH 10 0
BBX 10 10 0 -2
BITMAP
0000
0000
0000
0000
1fc0
1fc0
1c00
1c00
1c00
1c00
ENDCHAR
STARTCHAR 2824
ENCODING 9488
SWIDTH 960 0
DWIDTH 10 0
BBX 10 10 0 -2
BITMAP
0000
0000
0000
0000
fc00
0c00
0c00
0c00
0c00
0c00
ENDCHAR
STARTCHAR 282f
ENCODING 9491
SWIDTH 960 0
DWIDTH 10 0
BBX 10 10 0 -2
BITMAP
0000
0000
0000
0000
fc00
fc00
1c00
1c00
1c00
1c00
ENDCHAR
STARTCHAR 2826
ENCODING 9492
SWIDTH 960 0
DWIDTH 10 0
BBX 10 10 0 -2
BITMAP
0c00
0c00
0c00
0c00
0fc0
0000
0000
0000
0000
0000
ENDCHAR
STARTCHAR 2831
ENCODING 9495
SWIDTH 960 0
DWIDTH 10 0
BBX 10 10 0 -2
BITMAP
1c00
1c00
1c00
1c00
1fc0
1fc0
0000
0000
0000
0000
ENDCHAR
STARTCHAR 2825
ENCODING 9496
SWIDTH 960 0
DWIDTH 10 0
BBX 10 10 0 -2
BITMAP
0c00
0c00
0c00
0c00
fc00
0000
0000
0000
0000
0000
ENDCHAR
STARTCHAR 2830
ENCODING 9499
SWIDTH 960 0
DWIDTH 10 0
BBX 10 10 0 -2
BITMAP
1c00
1c00
1c00
1c00
fc00
fc00
0000
0000
0000
0000
ENDCHAR
STARTCHAR 2827
ENCODING 9500
SWIDTH 960 0
DWIDTH 10 0
BBX 10 10 0 -2
BITMAP
0c00
0c00
0c00
0c00
0fc0
0c00
0c00
0c00
0c00
0c00
ENDCHAR
STARTCHAR 283c
ENCODING 9501
SWIDTH 960 0
DWIDTH 10 0
BBX 10 10 0 -2
BITMAP
0c00
0c00
0c00
0c00
0fc0
0fc0
0c00
0c00
0c00
0c00
ENDCHAR
STARTCHAR 2837
ENCODING 9504
SWIDTH 960 0
DWIDTH 10 0
BBX 10 10 0 -2
BITMAP
1c00
1c00
1c00
1c00
1fc0
1c00
1c00
1c00
1c00
1c00
ENDCHAR
STARTCHAR 2832
ENCODING 9507
SWIDTH 960 0
DWIDTH 10 0
BBX 10 10 0 -2
BITMAP
1c00
1c00
1c00
1c00
1fc0
1fc0
1c00
1c00
1c00
1c00
ENDCHAR
STARTCHAR 2829
ENCODING 9508
SWIDTH 960 0
DWIDTH 10 0
BBX 10 10 0 -2
BITMAP
0c00
0c00
0c00
0c00
fc00
0c00
0c00
0c00
0c00
0c00
ENDCHAR
STARTCHAR 283e
ENCODING 9509
SWIDTH 960 0
DWIDTH 10 0
BBX 10 10 0 -2
BITMAP
0c00
0c00
0c00
0c00
fc00
fc00
0c00
0c00
0c00
0c00
ENDCHAR
STARTCHAR 2839
ENCODING 9512
SWIDTH 960 0
DWIDTH 10 0
BBX 10 10 0 -2
BITMAP
1c00
1c00
1c00
1c00
fc00
1c00
1c00
1c00
1c00
1c00
ENDCHAR
STARTCHAR 2834
ENCODING 9515
SWIDTH 960 0
DWIDTH 10 0
BBX 10 10 0 -2
BITMAP
1c00
1c00
1c00
1c00
fc00
fc00
1c00
1c00
1c00
1c00
ENDCHAR
STARTCHAR 2828
ENCODING 9516
SWIDTH 960 0
DWIDTH 10 0
BBX 10 10 0 -2
BITMAP
0000
0000
0000
0000
ffc0
0c00
0c00
0c00
0c00
0c00
ENDCHAR
STARTCHAR 2838
ENCODING 9519
SWIDTH 960 0
DWIDTH 10 0
BBX 10 10 0 -2
BITMAP
0000
0000
0000
0000
ffc0
ffc0
0c00
0c00
0c00
0c00
ENDCHAR
STARTCHAR 283d
ENCODING 9520
SWIDTH 960 0
DWIDTH 10 0
BBX 10 10 0 -2
BITMAP
0000
0000
0000
0000
ffc0
1c00
1c00
1c00
1c00
1c00
ENDCHAR
STARTCHAR 2833
ENCODING 9523
SWIDTH 960 0
DWIDTH 10 0
BBX 10 10 0 -2
BITMAP
0000
0000
0000
0000
ffc0
ffc0
1c00
1c00
1c00
1c00
ENDCHAR
STARTCHAR 282a
ENCODING 9524
SWIDTH 960 0
DWIDTH 10 0
BBX 10 10 0 -2
BITMAP
0c00
0c00
0c00
0c00
ffc0
0000
0000
0000
0000
0000
ENDCHAR
STARTCHAR 283a
ENCODING 9527
SWIDTH 960 0
DWIDTH 10 0
BBX 10 10 0 -2
BITMAP
0c00
0c00
0c00
0c00
ffc0
ffc0
0000
0000
0000
0000
ENDCHAR
STARTCHAR 283f
ENCODING 9528
SWIDTH 960 0
DWIDTH 10 0
BBX 10 10 0 -2
BITMAP
1c00
1c00
1c00
1c00
ffc0
0000
0000
0000
0000
0000
ENDCHAR
STARTCHAR 2835
ENCODING 9531
SWIDTH 960 0
DWIDTH 10 0
BBX 10 10 0 -2
BITMAP
1c00
1c00
1c00
1c00
ffc0
ffc0
0000
0000
0000
0000
ENDCHAR
STARTCHAR 282b
ENCODING 9532
SWIDTH 960 0
DWIDTH 10 0
BBX 10 10 0 -2
BITMAP
0c00
0c00
0c00
0c00
ffc0
0c00
0c00
0c00
0c00
0c00
ENDCHAR
STARTCHAR 283b
ENCODING 9535
SWIDTH 960 0
DWIDTH 10 0
BBX 10 10 0 -2
BITMAP
0c00
0c00
0c00
0c00
ffc0
ffc0
0c00
0c00
0c00
0c00
ENDCHAR
STARTCHAR 2840
ENCODING 9538
SWIDTH 960 0
DWIDTH 10 0
BBX 10 10 0 -2
BITMAP
1c00
1c00
1c00
1c00
ffc0
1c00
1c00
1c00
1c00
1c00
ENDCHAR
STARTCHAR 2836
ENCODING 9547
SWIDTH 960 0
DWIDTH 10 0
BBX 10 10 0 -2
BITMAP
1c00
1c00
1c00
1c00
ffc0
ffc0
1c00
1c00
1c00
1c00
ENDCHAR
STARTCHAR 2223
ENCODING 9632
SWIDTH 960 0
DWIDTH 10 0
BBX 10 10 0 -2
BITMAP
0000
ff80
ff80
ff80
ff80
ff80
ff80
ff80
ff80
0000
ENDCHAR
STARTCHAR 2222
ENCODING 9633
SWIDTH 960 0
DWIDTH 10 0
BBX 10 10 0 -2
BITMAP
0000
ff80
c180
c180
c180
c180
c180
c180
ff80
0000
ENDCHAR
STARTCHAR 2225
ENCODING 9650
SWIDTH 960 0
DWIDTH 10 0
BBX 10 10 0 -2
BITMAP
0c00
0c00
1e00
1e00
3f00
3f00
7f80
7f80
ffc0
0000
ENDCHAR
STARTCHAR 2224
ENCODING 9651
SWIDTH 960 0
DWIDTH 10 0
BBX 10 10 0 -2
BITMAP
0c00
0c00
1a00
1a00
3300
3300
6180
6180
ffc0
0000
ENDCHAR
STARTCHAR 2227
ENCODING 9660
SWIDTH 960 0
DWIDTH 10 0
BBX 10 10 0 -2
BITMAP
ffc0
7f80
7f80
3f00
3f00
1e00
1e00
0c00
0c00
0000
ENDCHAR
STARTCHAR 2226
ENCODING 9661
SWIDTH 960 0
DWIDTH 10 0
BBX 10 10 0 -2
BITMAP
ffc0
6180
6180
3300
3300
1a00
1a00
0c00
0c00
0000
ENDCHAR
STARTCHAR 2221
ENCODING 9670
SWIDTH 960 0
DWIDTH 10 0
BBX 10 10 0 -2
BITMAP
0c00
1e00
3f00
7f80
ffc0
7f80
3f00
1e00
0c00
0000
ENDCHAR
STARTCHAR 217e
ENCODING 9671
SWIDTH 960 0
DWIDTH 10 0
BBX 10 10 0 -2
BITMAP
0c00
1a00
3300
6180
c0c0
6180
3300
1a00
0c00
0000
ENDCHAR
STARTCHAR 217b
ENCODING 9675
SWIDTH 960 0
DWIDTH 10 0
BBX 10 10 0 -2
BITMAP
3f00
6180
c0c0
c0c0
c0c0
c0c0
c0c0
6180
3f00
0000
ENDCHAR
STARTCHAR 217d
ENCODING 9678
SWIDTH 960 0
DWIDTH 10 0
BBX 10 10 0 -2
BITMAP
3f00
6180
dec0
d340
d340
d340
dec0
6180
3f00
0000
ENDCHAR
STARTCHAR 217c
ENCODING 9679
SWIDTH 960 0
DWIDTH 10 0
BBX 10 10 0 -2
BITMAP
3f00
7f80
ffc0
ffc0
ffc0
ffc0
ffc0
7f80
3f00
0000
ENDCHAR
STARTCHAR 227e
ENCODING 9711
SWIDTH 960 0
DWIDTH 10 0
BBX 10 10 0 -2
BITMAP
3e00
6300
c180
80c0
80c0
80c0
80c0
c180
6300
3e00
ENDCHAR
STARTCHAR 217a
ENCODING 9733
SWIDTH 960 0
DWIDTH 10 0
BBX 10 10 0 -2
BITMAP
0c00
0c00
1e00
ffc0
7f80
3f00
3f00
7b80
6180
0000
ENDCHAR
STARTCHAR 2179
ENCODING 9734
SWIDTH 960 0
DWIDTH 10 0
BBX 10 10 0 -2
BITMAP
0c00
0c00
1a00
fbc0
6180
3300
3500
7b80
6180
0000
ENDCHAR
STARTCHAR 216a
ENCODING 9792
SWIDTH 960 0
DWIDTH 10 0
BBX 10 10 0 -2
BITMAP
1e00
3300
3300
3300
1e00
0c00
7f80
0c00
0c00
0000
ENDCHAR
STARTCHAR 2169
ENCODING 9794
SWIDTH 960 0
DWIDTH 10 0
BBX 10 10 0 -2
BITMAP
0000
0f80
0380
0680
7d80
cc00
cc00
cc00
7800
0000
ENDCHAR
STARTCHAR 2276
ENCODING 9834
SWIDTH 960 0
DWIDTH 10 0
BBX 10 10 0 -2
BITMAP
0c00
0e00
0f00
0d80
0d80
0d80
3d00
7c00
3800
0000
ENDCHAR
STARTCHAR 2275
ENCODING 9837
SWIDTH 960 0
DWIDTH 10 0
BBX 10 10 0 -2
BITMAP
1800
1800
1800
1800
1e00
1b00
1b00
1a00
1c00
0000
ENDCHAR
STARTCHAR 2274
ENCODING 9839
SWIDTH 960 0
DWIDTH 10 0
BBX 10 10 0 -2
BITMAP
0600
3600
3700
3e00
7600
3700
3e00
7600
3600
3000
ENDCHAR
STARTCHAR defaultchar
ENCODING 12288
SWIDTH 960 0
DWIDTH 10 0
BBX 10 10 0 -2
BITMAP
0000
0000
0000
0000
0000
0000
0000
0000
0000
0000
ENDCHAR
STARTCHAR 2122
ENCODING 12289
SWIDTH 960 0
DWIDTH 10 0
BBX 10 10 0 -2
BITMAP
0000
0000
0000
0000
0000
0000
c000
6000
3000
0000
ENDCHAR
STARTCHAR 2123
ENCODING 12290
SWIDTH 960 0
DWIDTH 10 0
BBX 10 10 0 -2
BITMAP
0000
0000
0000
0000
0000
7000
d800
d800
7000
0000
ENDCHAR
STARTCHAR 2137
ENCODING 12291
SWIDTH 960 0
DWIDTH 10 0
BBX 10 10 0 -2
BITMAP
0000
0000
1b00
1b00
1b00
3600
3600
0000
0000
0000
ENDCHAR
STARTCHAR 2139
ENCODING 12293
SWIDTH 960 0
DWIDTH 10 0
BBX 10 10 0 -2
BITMAP
0000
0000
1800
1f00
3300
6600
1c00
0600
0000
0000
ENDCHAR
STARTCHAR 213a
ENCODING 12294
SWIDTH 960 0
DWIDTH 10 0
BBX 10 10 0 -2
BITMAP
0000
0180
0300
7a00
cc00
da00
d300
e000
c000
0000
ENDCHAR
STARTCHAR 213b
ENCODING 12295
SWIDTH 960 0
DWIDTH 10 0
BBX 10 10 0 -2
BITMAP
0000
1e00
7380
c0c0
c0c0
c0c0
7380
1e00
0000
0000
ENDCHAR
STARTCHAR 2152
ENCODING 12296
SWIDTH 960 0
DWIDTH 10 0
BBX 10 10 0 -2
BITMAP
0180
0180
0300
0300
0600
0300
0300
0180
0180
0000
ENDCHAR
STARTCHAR 2153
ENCODING 12297
SWIDTH 960 0
DWIDTH 10 0
BBX 10 10 0 -2
BITMAP
6000
6000
3000
3000
1800
3000
3000
6000
6000
0000
ENDCHAR
STARTCHAR 2154
ENCODING 12298
SWIDTH 960 0
DWIDTH 10 0
BBX 10 10 0 -2
BITMAP
0340
0340
0680
0680
0d00
0680
0680
0340
0340
0000
ENDCHAR
STARTCHAR 2155
ENCODING 12299
SWIDTH 960 0
DWIDTH 10 0
BBX 10 10 0 -2
BITMAP
6800
6800
3400
3400
1a00
3400
3400
6800
6800
0000
ENDCHAR
STARTCHAR 2156
ENCODING 12300
SWIDTH 960 0
DWIDTH 10 0
BBX 10 10 0 -2
BITMAP
07c0
0600
0600
0600
0600
0600
0600
0000
0000
0000
ENDCHAR
STARTCHAR 2157
ENCODING 12301
SWIDTH 960 0
DWIDTH 10 0
BBX 10 10 0 -2
BITMAP
0000
0000
1800
1800
1800
1800
1800
1800
f800
0000
ENDCHAR
STARTCHAR 2158
ENCODING 12302
SWIDTH 960 0
DWIDTH 10 0
BBX 10 10 0 -2
BITMAP
0fc0
0cc0
0dc0
0d00
0d00
0d00
0d00
0f00
0000
0000
ENDCHAR
STARTCHAR 2159
ENCODING 12303
SWIDTH 960 0
DWIDTH 10 0
BBX 10 10 0 -2
BITMAP
0000
3c00
3400
3400
3400
3400
f400
cc00
fc00
0000
ENDCHAR
STARTCHAR 215a
ENCODING 12304
SWIDTH 960 0
DWIDTH 10 0
BBX 10 10 0 -2
BITMAP
07c0
0780
0700
0600
0600
0600
0700
0780
07c0
0000
ENDCHAR
STARTCHAR 215b
ENCODING 12305
SWIDTH 960 0
DWIDTH 10 0
BBX 10 10 0 -2
BITMAP
f800
7800
3800
1800
1800
1800
3800
7800
f800
0000
ENDCHAR
STARTCHAR 2229
ENCODING 12306
SWIDTH 960 0
DWIDTH 10 0
BBX 10 10 0 -2
BITMAP
0000
7f80
0000
7f80
0c00
0c00
0c00
0c00
0000
0000
ENDCHAR
STARTCHAR 222e
ENCODING 12307
SWIDTH 960 0
DWIDTH 10 0
BBX 10 10 0 -2
BITMAP
0000
0000
ff80
ff80
0000
0000
ff80
ff80
0000
0000
ENDCHAR
STARTCHAR 214c
ENCODING 12308
SWIDTH 960 0
DWIDTH 10 0
BBX 10 10 0 -2
BITMAP
0380
0e00
0c00
0c00
0c00
0c00
0c00
0e00
0380
0000
ENDCHAR
STARTCHAR 214d
ENCODING 12309
SWIDTH 960 0
DWIDTH 10 0
BBX 10 10 0 -2
BITMAP
7000
1c00
0c00
0c00
0c00
0c00
0c00
1c00
7000
0000
ENDCHAR
STARTCHAR 2421
ENCODING 12353
SWIDTH 960 0
DWIDTH 10 0
BBX 10 10 0 -2
BITMAP
0000
0000
3000
7e00
3000
7e00
d500
db00
7600
0000
ENDCHAR
STARTCHAR 2422
ENCODING 12354
SWIDTH 960 0
DWIDTH 10 0
BBX 10 10 0 -2
BITMAP
1800
ff00
3000
3f00
7680
d580
d580
d980
7700
0000
ENDCHAR
STARTCHAR 2423
ENCODING 12355
SWIDTH 960 0
DWIDTH 10 0
BBX 10 10 0 -2
BITMAP
0000
0000
0000
6300
6300
6180
6180
6d80
3800
0000
ENDCHAR
STARTCHAR 2424
ENCODING 12356
SWIDTH 960 0
DWIDTH 10 0
BBX 10 10 0 -2
BITMAP
0000
c300
c300
c180
c180
c180
d980
d000
6000
0000
ENDCHAR
STARTCHAR 2425
ENCODING 12357
SWIDTH 960 0
DWIDTH 10 0
BBX 10 10 0 -2
BITMAP
0000
0000
3e00
0000
1e00
7300
0300
0600
1c00
0000
ENDCHAR
STARTCHAR 2426
ENCODING 12358
SWIDTH 960 0
DWIDTH 10 0
BBX 10 10 0 -2
BITMAP
3800
0e00
0000
3f00
e180
0180
0180
0300
1e00
0000
ENDCHAR
STARTCHAR 2427
ENCODING 12359
SWIDTH 960 0
DWIDTH 10 0
BBX 10 10 0 -2
BITMAP
0000
0000
1e00
0000
3f00
0600
0e00
1a00
3380
0000
ENDCHAR
STARTCHAR 2428
ENCODING 12360
SWIDTH 960 0
DWIDTH 10 0
BBX 10 10 0 -2
BITMAP
3e00
0000
7f00
0600
0c00
1c00
3600
6600
c380
0000
ENDCHAR
STARTCHAR 2429
ENCODING 12361
SWIDTH 960 0
DWIDTH 10 0
BBX 10 10 0 -2
BITMAP
0000
0000
3000
fd00
3180
3e00
7300
d300
7600
0000
ENDCHAR
STARTCHAR 242a
ENCODING 12362
SWIDTH 960 0
DWIDTH 10 0
BBX 10 10 0 -2
BITMAP
3000
3180
fe80
3000
3f00
7180
d180
d180
7700
0000
ENDCHAR
STARTCHAR 242b
ENCODING 12363
SWIDTH 960 0
DWIDTH 10 0
BBX 10 10 0 -2
BITMAP
3000
3000
fb00
3500
6d80
6d80
6d80
d400
d800
0000
ENDCHAR
STARTCHAR 242c
ENCODING 12364
SWIDTH 960 0
DWIDTH 10 0
BBX 10 10 0 -2
BITMAP
3340
3340
f800
3500
6d80
6d80
6d80
d400
d800
0000
ENDCHAR
STARTCHAR 242d
ENCODING 12365
SWIDTH 960 0
DWIDTH 10 0
BBX 10 10 0 -2
BITMAP
1800
7f00
0c00
ff80
0600
3f00
6300
6000
3e00
0000
ENDCHAR
STARTCHAR 242e
ENCODING 12366
SWIDTH 960 0
DWIDTH 10 0
BBX 10 10 0 -2
BITMAP
1b40
7d40
0c00
ff80
0600
3f00
6300
6000
3e00
0000
ENDCHAR
STARTCHAR 242f
ENCODING 12367
SWIDTH 960 0
DWIDTH 10 0
BBX 10 10 0 -2
BITMAP
0600
0c00
3800
6000
6000
3000
1800
0c00
0600
0000
ENDCHAR
STARTCHAR 2430
ENCODING 12368
SWIDTH 960 0
DWIDTH 10 0
BBX 10 10 0 -2
BITMAP
0600
0d40
3b40
6000
6000
3000
1800
0c00
0600
0000
ENDCHAR
STARTCHAR 2431
ENCODING 12369
SWIDTH 960 0
DWIDTH 10 0
BBX 10 10 0 -2
BITMAP
0300
c300
df80
c300
c300
c300
c300
c600
1c00
0000
ENDCHAR
STARTCHAR 2432
ENCODING 12370
SWIDTH 960 0
DWIDTH 10 0
BBX 10 10 0 -2
BITMAP
0340
c340
de80
c300
c300
c300
c300
c600
1c00
0000
ENDCHAR
STARTCHAR 2433
ENCODING 12371
SWIDTH 960 0
DWIDTH 10 0
BBX 10 10 0 -2
BITMAP
0000
7f00
0000
0000
0000
0000
c000
c000
7f80
0000
ENDCHAR
STARTCHAR 2434
ENCODING 12372
SWIDTH 960 0
DWIDTH 10 0
BBX 10 10 0 -2
BITMAP
0340
7d40
0000
0000
0000
0000
c000
c000
7f80
0000
ENDCHAR
STARTCHAR 2435
ENCODING 12373
SWIDTH 960 0
DWIDTH 10 0
BBX 10 10 0 -2
BITMAP
0c00
0c00
ff80
0600
0600
3f00
6300
6000
3e00
0000
ENDCHAR
STARTCHAR 2436
ENCODING 12374
SWIDTH 960 0
DWIDTH 10 0
BBX 10 10 0 -2
BITMAP
0d40
0d40
fe00
0600
0600
3f00
6300
6000
3e00
0000
ENDCHAR
STARTCHAR 2437
ENCODING 12375
SWIDTH 960 0
DWIDTH 10 0
BBX 10 10 0 -2
BITMAP
6000
6000
6000
6000
6000
6180
6180
3300
1e00
0000
ENDCHAR
STARTCHAR 2438
ENCODING 12376
SWIDTH 960 0
DWIDTH 10 0
BBX 10 10 0 -2
BITMAP
6680
6680
6000
6000
6000
6180
6180
3300
1e00
0000
ENDCHAR
STARTCHAR 2439
ENCODING 12377
SWIDTH 960 0
DWIDTH 10 0
BBX 10 10 0 -2
BITMAP
0600
ff80
0600
1e00
3600
3600
1e00
0600
1c00
0000
ENDCHAR
STARTCHAR 243a
ENCODING 12378
SWIDTH 960 0
DWIDTH 10 0
BBX 10 10 0 -2
BITMAP
0340
fd40
0600
1e00
3600
3600
1e00
0600
1c00
0000
ENDCHAR
STARTCHAR 243b
ENCODING 12379
SWIDTH 960 0
DWIDTH 10 0
BBX 10 10 0 -2
BITMAP
3300
3300
ffc0
3300
3300
3600
3000
3000
1f00
0000
ENDCHAR
STARTCHAR 243c
ENCODING 12380
SWIDTH 960 0
DWIDTH 10 0
BBX 10 10 0 -2
BITMAP
3340
3340
fe80
3300
3300
3600
3000
3000
1f00
0000
ENDCHAR
STARTCHAR 243d
ENCODING 12381
SWIDTH 960 0
DWIDTH 10 0
BBX 10 10 0 -2
BITMAP
0000
7f00
0600
0c00
ff80
1800
3000
3000
1e00
0000
ENDCHAR
STARTCHAR 243e
ENCODING 12382
SWIDTH 960 0
DWIDTH 10 0
BBX 10 10 0 -2
BITMAP
0340
7d40
0600
0c00
ff80
1800
3000
3000
1e00
0000
ENDCHAR
STARTCHAR 243f
ENCODING 12383
SWIDTH 960 0
DWIDTH 10 0
BBX 10 10 0 -2
BITMAP
3000
3000
fc00
3000
6f80
6000
6000
d800
cf80
0000
ENDCHAR
STARTCHAR 2440
ENCODING 12384
SWIDTH 960 0
DWIDTH 10 0
BBX 10 10 0 -2
BITMAP
3000
3340
fd40
3000
6f80
6000
6000
d800
cf80
0000
ENDCHAR
STARTCHAR 2441
ENCODING 12385
SWIDTH 960 0
DWIDTH 10 0
BBX 10 10 0 -2
BITMAP
1800
1800
ff80
3000
3f00
6180
0180
0300
1e00
0000
ENDCHAR
STARTCHAR 2442
ENCODING 12386
SWIDTH 960 0
DWIDTH 10 0
BBX 10 10 0 -2
BITMAP
1b40
1b40
fe00
3000
3f00
6180
0180
0300
1e00
0000
ENDCHAR
STARTCHAR 2443
ENCODING 12387
SWIDTH 960 0
DWIDTH 10 0
BBX 10 10 0 -2
BITMAP
0000
0000
0000
1e00
7300
0180
0180
0700
1c00
0000
ENDCHAR
STARTCHAR 2444
ENCODING 12388
SWIDTH 960 0
DWIDTH 10 0
BBX 10 10 0 -2
BITMAP
0000
1f00
f180
00c0
00c0
00c0
0380
1e00
0000
0000
ENDCHAR
STARTCHAR 2445
ENCODING 12389
SWIDTH 960 0
DWIDTH 10 0
BBX 10 10 0 -2
BITMAP
0340
1f40
f180
00c0
00c0
00c0
0380
1e00
0000
0000
ENDCHAR
STARTCHAR 2446
ENCODING 12390
SWIDTH 960 0
DWIDTH 10 0
BBX 10 10 0 -2
BITMAP
0000
ffc0
0600
0c00
1800
1800
1800
0c00
0700
0000
ENDCHAR
STARTCHAR 2447
ENCODING 12391
SWIDTH 960 0
DWIDTH 10 0
BBX 10 10 0 -2
BITMAP
0000
ffc0
0600
0d40
1b40
1800
1800
0c00
0700
0000
ENDCHAR
STARTCHAR 2448
ENCODING 12392
SWIDTH 960 0
DWIDTH 10 0
BBX 10 10 0 -2
BITMAP
1800
1800
1800
1b80
1c00
3000
6000
6000
3f80
0000
ENDCHAR
STARTCHAR 2449
ENCODING 12393
SWIDTH 960 0
DWIDTH 10 0
BBX 10 10 0 -2
BITMAP
1b40
1b40
1800
1b80
1c00
3000
6000
6000
3f80
0000
ENDCHAR
STARTCHAR 244a
ENCODING 12394
SWIDTH 960 0
DWIDTH 10 0
BBX 10 10 0 -2
BITMAP
1800
1b80
fcc0
3000
6300
6300
cf80
1b40
0e00
0000
ENDCHAR
STARTCHAR 244b
ENCODING 12395
SWIDTH 960 0
DWIDTH 10 0
BBX 10 10 0 -2
BITMAP
0000
c000
df80
c000
c000
c000
d800
d800
cf80
0000
ENDCHAR
STARTCHAR 244c
ENCODING 12396
SWIDTH 960 0
DWIDTH 10 0
BBX 10 10 0 -2
BITMAP
0600
6600
6f00
7680
6cc0
d4c0
db40
d580
6740
0000
ENDCHAR
STARTCHAR 244d
ENCODING 12397
SWIDTH 960 0
DWIDTH 10 0
BBX 10 10 0 -2
BITMAP
3000
3000
f700
3980
3180
3180
7780
d5c0
3700
0000
ENDCHAR
STARTCHAR 244e
ENCODING 12398
SWIDTH 960 0
DWIDTH 10 0
BBX 10 10 0 -2
BITMAP
0000
3f00
6d80
ccc0
ccc0
d8c0
d8c0
7180
0700
0000
ENDCHAR
STARTCHAR 244f
ENCODING 12399
SWIDTH 960 0
DWIDTH 10 0
BBX 10 10 0 -2
BITMAP
0300
c300
dfc0
c300
c300
c300
cf80
db40
ce00
0000
ENDCHAR
STARTCHAR 2450
ENCODING 12400
SWIDTH 960 0
DWIDTH 10 0
BBX 10 10 0 -2
BITMAP
0340
c340
de80
c300
c300
c300
cf80
db40
ce00
0000
ENDCHAR
STARTCHAR 2451
ENCODING 12401
SWIDTH 960 0
DWIDTH 10 0
BBX 10 10 0 -2
BITMAP
0680
c740
df40
c680
c600
c600
df00
d680
dc00
0000
ENDCHAR
STARTCHAR 2452
ENCODING 12402
SWIDTH 960 0
DWIDTH 10 0
BBX 10 10 0 -2
BITMAP
0000
3b00
f300
3380
6340
6300
6300
6600
3c00
0000
ENDCHAR
STARTCHAR 2453
ENCODING 12403
SWIDTH 960 0
DWIDTH 10 0
BBX 10 10 0 -2
BITMAP
0340
3b40
f000
3300
6380
6340
6300
6600
3c00
0000
ENDCHAR
STARTCHAR 2454
ENCODING 12404
SWIDTH 960 0
DWIDTH 10 0
BBX 10 10 0 -2
BITMAP
0180
3b40
f340
3180
6300
6380
6340
6600
3c00
0000
ENDCHAR
STARTCHAR 2455
ENCODING 12405
SWIDTH 960 0
DWIDTH 10 0
BBX 10 10 0 -2
BITMAP
1c00
0600
0c00
1800
6d80
66c0
c6c0
d6c0
1c00
0000
ENDCHAR
STARTCHAR 2456
ENCODING 12406
SWIDTH 960 0
DWIDTH 10 0
BBX 10 10 0 -2
BITMAP
1d40
0740
0c00
1800
6d80
66c0
c6c0
d6c0
1c00
0000
ENDCHAR
STARTCHAR 2457
ENCODING 12407
SWIDTH 960 0
DWIDTH 10 0
BBX 10 10 0 -2
BITMAP
1d80
0740
0d40
1980
6c00
66c0
c6c0
d6c0
1c00
0000
ENDCHAR
STARTCHAR 2458
ENCODING 12408
SWIDTH 960 0
DWIDTH 10 0
BBX 10 10 0 -2
BITMAP
0000
0000
3800
6c00
6600
c300
0180
00c0
0000
0000
ENDCHAR
STARTCHAR 2459
ENCODING 12409
SWIDTH 960 0
DWIDTH 10 0
BBX 10 10 0 -2
BITMAP
0000
0340
3b40
6c00
6600
c300
0180
00c0
0000
0000
ENDCHAR
STARTCHAR 245a
ENCODING 12410
SWIDTH 960 0
DWIDTH 10 0
BBX 10 10 0 -2
BITMAP
0180
0340
3b40
6d80
6600
c300
0180
00c0
0000
0000
ENDCHAR
STARTCHAR 245b
ENCODING 12411
SWIDTH 960 0
DWIDTH 10 0
BBX 10 10 0 -2
BITMAP
0000
dfc0
c300
dfc0
c300
c300
cf80
db40
ce00
0000
ENDCHAR
STARTCHAR 245c
ENCODING 12412
SWIDTH 960 0
DWIDTH 10 0
BBX 10 10 0 -2
BITMAP
0340
dd40
c600
df80
c600
c600
df00
d680
dc00
0000
ENDCHAR
STARTCHAR 245d
ENCODING 12413
SWIDTH 960 0
DWIDTH 10 0
BBX 10 10 0 -2
BITMAP
0180
df40
c740
de80
c600
c600
df00
d680
dc00
0000
ENDCHAR
STARTCHAR 245e
ENCODING 12414
SWIDTH 960 0
DWIDTH 10 0
BBX 10 10 0 -2
BITMAP
0600
7f80
0600
3f00
0600
0600
3f00
6680
3c00
0000
ENDCHAR
STARTCHAR 245f
ENCODING 12415
SWIDTH 960 0
DWIDTH 10 0
BBX 10 10 0 -2
BITMAP
0000
7c00
0d00
0d00
7f80
db40
d300
e300
0e00
0000
ENDCHAR
STARTCHAR 2460
ENCODING 12416
SWIDTH 960 0
DWIDTH 10 0
BBX 10 10 0 -2
BITMAP
3000
3000
fd80
30c0
7000
d000
d180
7180
1f00
0000
ENDCHAR
STARTCHAR 2461
ENCODING 12417
SWIDTH 960 0
DWIDTH 10 0
BBX 10 10 0 -2
BITMAP
0600
6600
6f00
7680
6cc0
d4c0
d8c0
d180
6700
0000
ENDCHAR
STARTCHAR 2462
ENCODING 12418
SWIDTH 960 0
DWIDTH 10 0
BBX 10 10 0 -2
BITMAP
1800
1800
7e00
3000
ff00
3000
3180
3180
1f00
0000
ENDCHAR
STARTCHAR 2463
ENCODING 12419
SWIDTH 960 0
DWIDTH 10 0
BBX 10 10 0 -2
BITMAP
0000
0000
0000
3400
3e00
f300
3600
1800
1800
0000
ENDCHAR
STARTCHAR 2464
ENCODING 12420
SWIDTH 960 0
DWIDTH 10 0
BBX 10 10 0 -2
BITMAP
6600
6c00
3f00
f180
3180
3700
1800
1800
1800
0000
ENDCHAR
STARTCHAR 2465
ENCODING 12421
SWIDTH 960 0
DWIDTH 10 0
BBX 10 10 0 -2
BITMAP
0000
0000
0c00
6e00
7500
6d00
6e00
0c00
1800
0000
ENDCHAR
STARTCHAR 2466
ENCODING 12422
SWIDTH 960 0
DWIDTH 10 0
BBX 10 10 0 -2
BITMAP
0c00
cc00
df00
ed80
cd80
d580
df00
0c00
1800
0000
ENDCHAR
STARTCHAR 2467
ENCODING 12423
SWIDTH 960 0
DWIDTH 10 0
BBX 10 10 0 -2
BITMAP
0000
0000
0c00
0c00
0f00
0c00
3c00
6e00
3b00
0000
ENDCHAR
STARTCHAR 2468
ENCODING 12424
SWIDTH 960 0
DWIDTH 10 0
BBX 10 10 0 -2
BITMAP
0c00
0c00
0f80
0c00
0c00
0c00
7e00
cd00
7980
0000
ENDCHAR
STARTCHAR 2469
ENCODING 12425
SWIDTH 960 0
DWIDTH 10 0
BBX 10 10 0 -2
BITMAP
3c00
0700
3000
3000
7f00
6180
0180
0300
1e00
0000
ENDCHAR
STARTCHAR 246a
ENCODING 12426
SWIDTH 960 0
DWIDTH 10 0
BBX 10 10 0 -2
BITMAP
6300
6300
6300
6300
6b00
3300
0300
0600
1c00
0000
ENDCHAR
STARTCHAR 246b
ENCODING 12427
SWIDTH 960 0
DWIDTH 10 0
BBX 10 10 0 -2
BITMAP
7e00
0c00
1800
3e00
6300
c180
1d80
3700
1e00
0000
ENDCHAR
STARTCHAR 246c
ENCODING 12428
SWIDTH 960 0
DWIDTH 10 0
BBX 10 10 0 -2
BITMAP
3000
3000
f600
3b00
3300
3300
7300
d340
3180
0000
ENDCHAR
STARTCHAR 246d
ENCODING 12429
SWIDTH 960 0
DWIDTH 10 0
BBX 10 10 0 -2
BITMAP
7e00
0c00
1800
3e00
6300
c180
0180
0300
1e00
0000
ENDCHAR
STARTCHAR 246e
ENCODING 12430
SWIDTH 960 0
DWIDTH 10 0
BBX 10 10 0 -2
BITMAP
0000
0000
3000
3000
7600
3b00
3300
7300
3600
0000
ENDCHAR
STARTCHAR 246f
ENCODING 12431
SWIDTH 960 0
DWIDTH 10 0
BBX 10 10 0 -2
BITMAP
3000
3000
f700
3980
30c0
30c0
70c0
d180
3700
0000
ENDCHAR
STARTCHAR 2470
ENCODING 12432
SWIDTH 960 0
DWIDTH 10 0
BBX 10 10 0 -2
BITMAP
0000
7e00
0c00
3e00
6b00
d980
d780
d580
6700
0000
ENDCHAR
STARTCHAR 2471
ENCODING 12433
SWIDTH 960 0
DWIDTH 10 0
BBX 10 10 0 -2
BITMAP
3e00
0c00
1e00
3300
6d00
1e00
3000
7b80
cdc0
0000
ENDCHAR
STARTCHAR 2472
ENCODING 12434
SWIDTH 960 0
DWIDTH 10 0
BBX 10 10 0 -2
BITMAP
1800
ff00
3000
3b80
6e00
da00
3600
3000
1f00
0000
ENDCHAR
STARTCHAR 2473
ENCODING 12435
SWIDTH 960 0
DWIDTH 10 0
BBX 10 10 0 -2
BITMAP
0c00
1800
1800
3000
3800
6c00
6d80
cd80
c700
0000
ENDCHAR
STARTCHAR 212b
ENCODING 12443
SWIDTH 960 0
DWIDTH 10 0
BBX 10 10 0 -2
BITMAP
6000
3000
c000
6000
0000
0000
0000
0000
0000
0000
ENDCHAR
STARTCHAR 212c
ENCODING 12444
SWIDTH 960 0
DWIDTH 10 0
BBX 10 10 0 -2
BITMAP
6000
d000
d000
6000
0000
0000
0000
0000
0000
0000
ENDCHAR
STARTCHAR 2135
ENCODING 12445
SWIDTH 960 0
DWIDTH 10 0
BBX 10 10 0 -2
BITMAP
0000
0000
3000
3000
1800
0c00
0600
1c00
0000
0000
ENDCHAR
STARTCHAR 2136
ENCODING 12446
SWIDTH 960 0
DWIDTH 10 0
BBX 10 10 0 -2
BITMAP
0180
06c0
3300
3000
1800
0c00
0600
1c00
0000
0000
ENDCHAR
STARTCHAR 2521
ENCODING 12449
SWIDTH 960 0
DWIDTH 10 0
BBX 10 10 0 -2
BITMAP
0000
0000
0000
3f80
0180
0d00
0c00
0c00
1800
0000
ENDCHAR
STARTCHAR 2522
ENCODING 12450
SWIDTH 960 0
DWIDTH 10 0
BBX 10 10 0 -2
BITMAP
0000
ff80
0180
1b00
1a00
1800
1800
3000
6000
0000
ENDCHAR
STARTCHAR 2523
ENCODING 12451
SWIDTH 960 0
DWIDTH 10 0
BBX 10 10 0 -2
BITMAP
0000
0000
0300
0600
0c00
3c00
6c00
0c00
0c00
0000
ENDCHAR
STARTCHAR 2524
ENCODING 12452
SWIDTH 960 0
DWIDTH 10 0
BBX 10 10 0 -2
BITMAP
0180
0300
0600
0c00
3c00
ec00
0c00
0c00
0c00
0000
ENDCHAR
STARTCHAR 2525
ENCODING 12453
SWIDTH 960 0
DWIDTH 10 0
BBX 10 10 0 -2
BITMAP
0000
0000
0c00
0c00
7f00
6300
0300
0600
1c00
0000
ENDCHAR
STARTCHAR 2526
ENCODING 12454
SWIDTH 960 0
DWIDTH 10 0
BBX 10 10 0 -2
BITMAP
0c00
0c00
7f80
6180
6180
0180
0300
0600
1c00
0000
ENDCHAR
STARTCHAR 2527
ENCODING 12455
SWIDTH 960 0
DWIDTH 10 0
BBX 10 10 0 -2
BITMAP
0000
0000
0000
0000
3f00
0c00
0c00
0c00
7f80
0000
ENDCHAR
STARTCHAR 2528
ENCODING 12456
SWIDTH 960 0
DWIDTH 10 0
BBX 10 10 0 -2
BITMAP
0000
0000
7f80
0c00
0c00
0c00
0c00
ffc0
0000
0000
ENDCHAR
STARTCHAR 2529
ENCODING 12457
SWIDTH 960 0
DWIDTH 10 0
BBX 10 10 0 -2
BITMAP
0000
0000
0600
0600
7f00
0e00
1a00
3600
6e00
0000
ENDCHAR
STARTCHAR 252a
ENCODING 12458
SWIDTH 960 0
DWIDTH 10 0
BBX 10 10 0 -2
BITMAP
0600
0600
ff80
0e00
1a00
3600
6600
c600
0e00
0000
ENDCHAR
STARTCHAR 252b
ENCODING 12459
SWIDTH 960 0
DWIDTH 10 0
BBX 10 10 0 -2
BITMAP
1800
1800
ff80
1980
1980
3180
3180
6180
c700
0000
ENDCHAR
STARTCHAR 252c
ENCODING 12460
SWIDTH 960 0
DWIDTH 10 0
BBX 10 10 0 -2
BITMAP
1b40
1b40
ff80
1980
1980
3180
3180
6180
c700
0000
ENDCHAR
STARTCHAR 252d
ENCODING 12461
SWIDTH 960 0
DWIDTH 10 0
BBX 10 10 0 -2
BITMAP
1800
1800
7f80
0c00
0c00
ffc0
0600
0600
0600
0000
ENDCHAR
STARTCHAR 252e
ENCODING 12462
SWIDTH 960 0
DWIDTH 10 0
BBX 10 10 0 -2
BITMAP
1b40
1b40
7f80
0c00
0c00
ffc0
0600
0600
0600
0000
ENDCHAR
STARTCHAR 252f
ENCODING 12463
SWIDTH 960 0
DWIDTH 10 0
BBX 10 10 0 -2
BITMAP
1800
1f80
1980
3180
6180
0300
0300
0e00
3800
0000
ENDCHAR
STARTCHAR 2530
ENCODING 12464
SWIDTH 960 0
DWIDTH 10 0
BBX 10 10 0 -2
BITMAP
1b40
1f40
1980
3180
6180
0300
0300
0e00
3800
0000
ENDCHAR
STARTCHAR 2531
ENCODING 12465
SWIDTH 960 0
DWIDTH 10 0
BBX 10 10 0 -2
BITMAP
3000
3000
3f80
6600
c600
0600
0600
0c00
3800
0000
ENDCHAR
STARTCHAR 2532
ENCODING 12466
SWIDTH 960 0
DWIDTH 10 0
BBX 10 10 0 -2
BITMAP
3340
3340
3f80
6600
c600
0600
0600
0c00
3800
0000
ENDCHAR
STARTCHAR 2533
ENCODING 12467
SWIDTH 960 0
DWIDTH 10 0
BBX 10 10 0 -2
BITMAP
0000
0000
7f80
0180
0180
0180
0180
7f80
0180
0000
ENDCHAR
STARTCHAR 2534
ENCODING 12468
SWIDTH 960 0
DWIDTH 10 0
BBX 10 10 0 -2
BITMAP
0340
0340
7f80
0180
0180
0180
0180
7f80
0180
0000
ENDCHAR
STARTCHAR 2535
ENCODING 12469
SWIDTH 960 0
DWIDTH 10 0
BBX 10 10 0 -2
BITMAP
3300
3300
ffc0
3300
3300
3300
0300
0600
1c00
0000
ENDCHAR
STARTCHAR 2536
ENCODING 12470
SWIDTH 960 0
DWIDTH 10 0
BBX 10 10 0 -2
BITMAP
3340
3340
fe80
3300
3300
3300
0300
0600
1c00
0000
ENDCHAR
STARTCHAR 2537
ENCODING 12471
SWIDTH 960 0
DWIDTH 10 0
BBX 10 10 0 -2
BITMAP
0000
7000
1980
0180
7180
1b00
0300
0e00
7800
0000
ENDCHAR
STARTCHAR 2538
ENCODING 12472
SWIDTH 960 0
DWIDTH 10 0
BBX 10 10 0 -2
BITMAP
0340
7340
1980
0180
7180
1b00
0300
0e00
7800
0000
ENDCHAR
STARTCHAR 2539
ENCODING 12473
SWIDTH 960 0
DWIDTH 10 0
BBX 10 10 0 -2
BITMAP
0000
7f00
0300
0600
0600
0c00
1a00
3300
e180
0000
ENDCHAR
STARTCHAR 253a
ENCODING 12474
SWIDTH 960 0
DWIDTH 10 0
BBX 10 10 0 -2
BITMAP
0340
7f40
0300
0600
0600
0c00
1a00
3300
e180
0000
ENDCHAR
STARTCHAR 253b
ENCODING 12475
SWIDTH 960 0
DWIDTH 10 0
BBX 10 10 0 -2
BITMAP
6000
6000
6f80
f980
6300
6600
6000
6000
3f00
0000
ENDCHAR
STARTCHAR 253c
ENCODING 12476
SWIDTH 960 0
DWIDTH 10 0
BBX 10 10 0 -2
BITMAP
6340
6340
6f80
f980
6300
6600
6000
6000
3f00
0000
ENDCHAR
STARTCHAR 253d
ENCODING 12477
SWIDTH 960 0
DWIDTH 10 0
BBX 10 10 0 -2
BITMAP
0000
6180
3180
1980
0300
0300
0600
0c00
3800
0000
ENDCHAR
STARTCHAR 253e
ENCODING 12478
SWIDTH 960 0
DWIDTH 10 0
BBX 10 10 0 -2
BITMAP
0340
6340
3180
1980
0300
0300
0600
0c00
3800
0000
ENDCHAR
STARTCHAR 253f
ENCODING 12479
SWIDTH 960 0
DWIDTH 10 0
BBX 10 10 0 -2
BITMAP
1800
1f80
1980
3980
6d80
0700
0300
0e00
3800
0000
ENDCHAR
STARTCHAR 2540
ENCODING 12480
SWIDTH 960 0
DWIDTH 10 0
BBX 10 10 0 -2
BITMAP
1b40
1f40
1980
3980
6d80
0700
0300
0e00
3800
0000
ENDCHAR
STARTCHAR 2541
ENCODING 12481
SWIDTH 960 0
DWIDTH 10 0
BBX 10 10 0 -2
BITMAP
0000
0700
7c00
0c00
ff80
0c00
0c00
1800
7000
0000
ENDCHAR
STARTCHAR 2542
ENCODING 12482
SWIDTH 960 0
DWIDTH 10 0
BBX 10 10 0 -2
BITMAP
0340
0740
7c00
0c00
ff80
0c00
0c00
1800
7000
0000
ENDCHAR
STARTCHAR 2543
ENCODING 12483
SWIDTH 960 0
DWIDTH 10 0
BBX 10 10 0 -2
BITMAP
0000
0000
0000
0000
6b00
6b00
0300
0600
1c00
0000
ENDCHAR
STARTCHAR 2544
ENCODING 12484
SWIDTH 960 0
DWIDTH 10 0
BBX 10 10 0 -2
BITMAP
0000
1800
6d80
3580
3180
0300
0300
0e00
3800
0000
ENDCHAR
STARTCHAR 2545
ENCODING 12485
SWIDTH 960 0
DWIDTH 10 0
BBX 10 10 0 -2
BITMAP
0340
1b40
6c00
3580
3180
0300
0300
0e00
3800
0000
ENDCHAR
STARTCHAR 2546
ENCODING 12486
SWIDTH 960 0
DWIDTH 10 0
BBX 10 10 0 -2
BITMAP
0000
7f00
0000
ff80
0c00
0c00
0c00
1800
7000
0000
ENDCHAR
STARTCHAR 2547
ENCODING 12487
SWIDTH 960 0
DWIDTH 10 0
BBX 10 10 0 -2
BITMAP
0340
7d40
0000
ff80
0c00
0c00
0c00
1800
7000
0000
ENDCHAR
STARTCHAR 2548
ENCODING 12488
SWIDTH 960 0
DWIDTH 10 0
BBX 10 10 0 -2
BITMAP
3000
3000
3000
3800
3600
3300
3000
3000
3000
0000
ENDCHAR
STARTCHAR 2549
ENCODING 12489
SWIDTH 960 0
DWIDTH 10 0
BBX 10 10 0 -2
BITMAP
3680
3680
3000
3800
3600
3300
3000
3000
3000
0000
ENDCHAR
STARTCHAR 254a
ENCODING 12490
SWIDTH 960 0
DWIDTH 10 0
BBX 10 10 0 -2
BITMAP
0c00
0c00
ff80
0c00
0c00
0c00
0c00
1800
7000
0000
ENDCHAR
STARTCHAR 254b
ENCODING 12491
SWIDTH 960 0
DWIDTH 10 0
BBX 10 10 0 -2
BITMAP
0000
0000
7f00
0000
0000
0000
0000
ff80
0000
0000
ENDCHAR
STARTCHAR 254c
ENCODING 12492
SWIDTH 960 0
DWIDTH 10 0
BBX 10 10 0 -2
BITMAP
0000
7f80
0180
0300
1d00
0600
0d00
1980
7000
0000
ENDCHAR
STARTCHAR 254d
ENCODING 12493
SWIDTH 960 0
DWIDTH 10 0
BBX 10 10 0 -2
BITMAP
0c00
0c00
7f80
0300
0600
1e00
7580
0c00
0c00
0000
ENDCHAR
STARTCHAR 254e
ENCODING 12494
SWIDTH 960 0
DWIDTH 10 0
BBX 10 10 0 -2
BITMAP
0000
0180
0180
0300
0300
0600
0c00
1800
7000
0000
ENDCHAR
STARTCHAR 254f
ENCODING 12495
SWIDTH 960 0
DWIDTH 10 0
BBX 10 10 0 -2
BITMAP
0000
3600
3600
3300
3300
6300
6180
6180
c180
0000
ENDCHAR
STARTCHAR 2550
ENCODING 12496
SWIDTH 960 0
DWIDTH 10 0
BBX 10 10 0 -2
BITMAP
0340
3340
3600
3300
3300
6300
6180
6180
c180
0000
ENDCHAR
STARTCHAR 2551
ENCODING 12497
SWIDTH 960 0
DWIDTH 10 0
BBX 10 10 0 -2
BITMAP
0180
0340
3340
3680
3300
6300
6180
6180
c180
0000
ENDCHAR
STARTCHAR 2552
ENCODING 12498
SWIDTH 960 0
DWIDTH 10 0
BBX 10 10 0 -2
BITMAP
6000
6000
6380
6e00
7800
6000
6000
6000
3f80
0000
ENDCHAR
STARTCHAR 2553
ENCODING 12499
SWIDTH 960 0
DWIDTH 10 0
BBX 10 10 0 -2
BITMAP
6340
6340
6300
6e00
7800
6000
6000
6000
3f80
0000
ENDCHAR
STARTCHAR 2554
ENCODING 12500
SWIDTH 960 0
DWIDTH 10 0
BBX 10 10 0 -2
BITMAP
6180
6340
6340
6e80
7800
6000
6000
6000
3f80
0000
ENDCHAR
STARTCHAR 2555
ENCODING 12501
SWIDTH 960 0
DWIDTH 10 0
BBX 10 10 0 -2
BITMAP
0000
7f80
0180
0180
0180
0300
0300
0e00
3800
0000
ENDCHAR
STARTCHAR 2556
ENCODING 12502
SWIDTH 960 0
DWIDTH 10 0
BBX 10 10 0 -2
BITMAP
0340
0340
7f80
0180
0180
0300
0300
0e00
3800
0000
ENDCHAR
STARTCHAR 2557
ENCODING 12503
SWIDTH 960 0
DWIDTH 10 0
BBX 10 10 0 -2
BITMAP
0180
0340
7f40
0180
0180
0300
0300
0e00
3800
0000
ENDCHAR
STARTCHAR 2558
ENCODING 12504
SWIDTH 960 0
DWIDTH 10 0
BBX 10 10 0 -2
BITMAP
0000
0000
3000
6800
cc00
0600
0300
0180
0000
0000
ENDCHAR
STARTCHAR 2559
ENCODING 12505
SWIDTH 960 0
DWIDTH 10 0
BBX 10 10 0 -2
BITMAP
0000
0680
3680
6800
cc00
0600
0300
0180
0000
0000
ENDCHAR
STARTCHAR 255a
ENCODING 12506
SWIDTH 960 0
DWIDTH 10 0
BBX 10 10 0 -2
BITMAP
0180
0340
3340
6980
cc00
0600
0300
0180
0000
0000
ENDCHAR
STARTCHAR 255b
ENCODING 12507
SWIDTH 960 0
DWIDTH 10 0
BBX 10 10 0 -2
BITMAP
0c00
0c00
ffc0
0c00
0c00
6d80
6cc0
ccc0
1c00
0000
ENDCHAR
STARTCHAR 255c
ENCODING 12508
SWIDTH 960 0
DWIDTH 10 0
BBX 10 10 0 -2
BITMAP
0d40
0d40
ff80
0c00
0c00
6d80
6cc0
ccc0
1c00
0000
ENDCHAR
STARTCHAR 255d
ENCODING 12509
SWIDTH 960 0
DWIDTH 10 0
BBX 10 10 0 -2
BITMAP
0d80
0d40
ff40
0d80
0c00
6d80
6cc0
ccc0
1c00
0000
ENDCHAR
STARTCHAR 255e
ENCODING 12510
SWIDTH 960 0
DWIDTH 10 0
BBX 10 10 0 -2
BITMAP
0000
0000
ff80
0300
0600
3400
1800
0c00
0c00
0000
ENDCHAR
STARTCHAR 255f
ENCODING 12511
SWIDTH 960 0
DWIDTH 10 0
BBX 10 10 0 -2
BITMAP
0000
3c00
0700
0000
3c00
0700
0000
7c00
0700
0000
ENDCHAR
STARTCHAR 2560
ENCODING 12512
SWIDTH 960 0
DWIDTH 10 0
BBX 10 10 0 -2
BITMAP
0000
1800
1800
1800
3000
3600
6300
6f00
f980
0000
ENDCHAR
STARTCHAR 2561
ENCODING 12513
SWIDTH 960 0
DWIDTH 10 0
BBX 10 10 0 -2
BITMAP
0000
0180
0180
3b00
0d00
0600
0d00
1980
7000
0000
ENDCHAR
STARTCHAR 2562
ENCODING 12514
SWIDTH 960 0
DWIDTH 10 0
BBX 10 10 0 -2
BITMAP
0000
7f00
1800
1800
ff80
1800
1800
1800
0f80
0000
ENDCHAR
STARTCHAR 2563
ENCODING 12515
SWIDTH 960 0
DWIDTH 10 0
BBX 10 10 0 -2
BITMAP
0000
0000
1800
1800
7f00
1b00
1a00
1800
1800
0000
ENDCHAR
STARTCHAR 2564
ENCODING 12516
SWIDTH 960 0
DWIDTH 10 0
BBX 10 10 0 -2
BITMAP
3000
3000
1fc0
f980
1b00
1800
0c00
0c00
0c00
0000
ENDCHAR
STARTCHAR 2565
ENCODING 12517
SWIDTH 960 0
DWIDTH 10 0
BBX 10 10 0 -2
BITMAP
0000
0000
0000
0000
3e00
0600
0600
7f80
0000
0000
ENDCHAR
STARTCHAR 2566
ENCODING 12518
SWIDTH 960 0
DWIDTH 10 0
BBX 10 10 0 -2
BITMAP
0000
0000
7f00
0300
0300
0600
0600
ff80
0000
0000
ENDCHAR
STARTCHAR 2567
ENCODING 12519
SWIDTH 960 0
DWIDTH 10 0
BBX 10 10 0 -2
BITMAP
0000
0000
0000
0000
7e00
0600
7e00
0600
7e00
0000
ENDCHAR
STARTCHAR 2568
ENCODING 12520
SWIDTH 960 0
DWIDTH 10 0
BBX 10 10 0 -2
BITMAP
0000
7f80
0180
0180
7f80
0180
0180
7f80
0180
0000
ENDCHAR
STARTCHAR 2569
ENCODING 12521
SWIDTH 960 0
DWIDTH 10 0
BBX 10 10 0 -2
BITMAP
0000
3f00
0000
7f80
0180
0180
0300
0600
1c00
0000
ENDCHAR
STARTCHAR 256a
ENCODING 12522
SWIDTH 960 0
DWIDTH 10 0
BBX 10 10 0 -2
BITMAP
6300
6300
6300
6300
6300
0300
0600
0c00
3800
0000
ENDCHAR
STARTCHAR 256b
ENCODING 12523
SWIDTH 960 0
DWIDTH 10 0
BBX 10 10 0 -2
BITMAP
0000
6c00
6c00
6c00
6c00
6d80
6d80
cd00
ce00
0000
ENDCHAR
STARTCHAR 256c
ENCODING 12524
SWIDTH 960 0
DWIDTH 10 0
BBX 10 10 0 -2
BITMAP
0000
6000
6000
6000
6000
6180
6300
6e00
7800
0000
ENDCHAR
STARTCHAR 256d
ENCODING 12525
SWIDTH 960 0
DWIDTH 10 0
BBX 10 10 0 -2
BITMAP
0000
0000
7f80
6180
6180
6180
6180
7f80
6180
0000
ENDCHAR
STARTCHAR 256e
ENCODING 12526
SWIDTH 960 0
DWIDTH 10 0
BBX 10 10 0 -2
BITMAP
0000
0000
0000
7f00
6300
0300
0300
0600
1c00
0000
ENDCHAR
STARTCHAR 256f
ENCODING 12527
SWIDTH 960 0
DWIDTH 10 0
BBX 10 10 0 -2
BITMAP
0000
7f80
6180
6180
0180
0180
0300
0600
1c00
0000
ENDCHAR
STARTCHAR 2570
ENCODING 12528
SWIDTH 960 0
DWIDTH 10 0
BBX 10 10 0 -2
BITMAP
0600
0600
ff80
6600
6600
ff80
0600
0600
0600
0000
ENDCHAR
STARTCHAR 2571
ENCODING 12529
SWIDTH 960 0
DWIDTH 10 0
BBX 10 10 0 -2
BITMAP
0000
7f00
0300
1a00
1800
1800
1800
ff80
0000
0000
ENDCHAR
STARTCHAR 2572
ENCODING 12530
SWIDTH 960 0
DWIDTH 10 0
BBX 10 10 0 -2
BITMAP
0000
7f80
0180
0180
7f80
0300
0300
0e00
3800
0000
ENDCHAR
STARTCHAR 2573
ENCODING 12531
SWIDTH 960 0
DWIDTH 10 0
BBX 10 10 0 -2
BITMAP
0000
7000
1980
0180
0180
0300
0300
0e00
7800
0000
ENDCHAR
STARTCHAR 2574
ENCODING 12532
SWIDTH 960 0
DWIDTH 10 0
BBX 10 10 0 -2
BITMAP
0d40
0d40
7f80
6180
6180
0180
0300
0600
1c00
0000
ENDCHAR
STARTCHAR 2575
ENCODING 12533
SWIDTH 960 0
DWIDTH 10 0
BBX 10 10 0 -2
BITMAP
0000
0000
1800
1800
7f00
1b00
1b00
3300
6700
0000
ENDCHAR
STARTCHAR 2576
ENCODING 12534
SWIDTH 960 0
DWIDTH 10 0
BBX 10 10 0 -2
BITMAP
0000
0000
1800
1800
3f80
6600
0600
0c00
3800
0000
ENDCHAR
STARTCHAR 2126
ENCODING 12539
SWIDTH 960 0
DWIDTH 10 0
BBX 10 10 0 -2
BITMAP
0000
0000
0000
0000
1c00
1c00
0000
0000
0000
0000
ENDCHAR
STARTCHAR 213c
ENCODING 12540
SWIDTH 960 0
DWIDTH 10 0
BBX 10 10 0 -2
BITMAP
0000
0000
0000
c000
7f80
0000
0000
0000
0000
0000
ENDCHAR
STARTCHAR 2133
ENCODING 12541
SWIDTH 960 0
DWIDTH 10 0
BBX 10 10 0 -2
BITMAP
0000
0000
3000
1800
0c00
0600
0600
0000
0000
0000
ENDCHAR
STARTCHAR 2134
ENCODING 12542
SWIDTH 960 0
DWIDTH 10 0
BBX 10 10 0 -2
BITMAP
0180
06c0
3300
1800
0c00
0600
0600
0000
0000
0000
ENDCHAR
STARTCHAR 306c
ENCODING 19968
SWIDTH 960 0
DWIDTH 10 0
BBX 10 10 0 -2
BITMAP
0000
0000
0000
0180
ffc0
0000
0000
0000
0000
0000
ENDCHAR
STARTCHAR 437a
ENCODING 19969
SWIDTH 960 0
DWIDTH 10 0
BBX 10 10 0 -2
BITMAP
0000
ffc0
0c00
0c00
0c00
0c00
0c00
0c00
1c00
0000
ENDCHAR
STARTCHAR 3c37
ENCODING 19971
SWIDTH 960 0
DWIDTH 10 0
BBX 10 10 0 -2
BITMAP
1800
1800
1bc0
1e00
f800
1800
1800
18c0
1fc0
0000
ENDCHAR
STARTCHAR 4b7c
ENCODING 19975
SWIDTH 960 0
DWIDTH 10 0
BBX 10 10 0 -2
BITMAP
0000
ffc0
1800
1800
1f80
1980
3180
6180
c700
0000
ENDCHAR
STARTCHAR 3e66
ENCODING 19976
SWIDTH 960 0
DWIDTH 10 0
BBX 10 10 0 -2
BITMAP
0600
0600
ffc0
0600
3600
3400
1800
3600
e3c0
0000
ENDCHAR
STARTCHAR 3b30
ENCODING 19977
SWIDTH 960 0
DWIDTH 10 0
BBX 10 10 0 -2
BITMAP
0000
7f80
0000
0000
3f00
0000
0000
0000
ffc0
0000
ENDCHAR
STARTCHAR 3e65
ENCODING 19978
SWIDTH 960 0
DWIDTH 10 0
BBX 10 10 0 -2
BITMAP
0c00
0c00
0c00
0f80
0c00
0c00
0c00
0c00
ffc0
0000
ENDCHAR
STARTCHAR 323c
ENCODING 19979
SWIDTH 960 0
DWIDTH 10 0
BBX 10 10 0 -2
BITMAP
ffc0
0c00
0c00
0f00
0d80
0c00
0c00
0c00
0c00
0000
ENDCHAR
STARTCHAR 4954
ENCODING 19981
SWIDTH 960 0
DWIDTH 10 0
BBX 10 10 0 -2
BITMAP
ffc0
0600
0c00
1d00
3580
ecc0
0c00
0c00
0c00
0000
ENDCHAR
STARTCHAR 4d3f
ENCODING 19982
SWIDTH 960 0
DWIDTH 10 0
BBX 10 10 0 -2
BITMAP
3000
3f00
3000
7f00
6300
0300
ffc0
0300
0e00
0000
ENDCHAR
STARTCHAR 5022
ENCODING 19984
SWIDTH 960 0
DWIDTH 10 0
BBX 10 10 0 -2
BITMAP
ffc0
0c00
6f80
6c00
6c00
ffc0
c0c0
01c0
0700
0000
ENDCHAR
STARTCHAR 312f
ENCODING 19985
SWIDTH 960 0
DWIDTH 10 0
BBX 10 10 0 -2
BITMAP
7f00
1b00
1b00
1b00
ffc0
3300
3300
3300
ffc0
0000
ENDCHAR
STARTCHAR 336e
ENCODING 19988
SWIDTH 960 0
DWIDTH 10 0
BBX 10 10 0 -2
BITMAP
0000
3f00
3300
3f00
3300
3f00
3300
3300
ffc0
0000
ENDCHAR
STARTCHAR 5023
ENCODING 19989
SWIDTH 960 0
DWIDTH 10 0
BBX 10 10 0 -2
BITMAP
ffc0
0c00
1d00
3580
ecc0
0c00
0c00
0000
ffc0
0000
ENDCHAR
STARTCHAR 4024
ENCODING 19990
SWIDTH 960 0
DWIDTH 10 0
BBX 10 10 0 -2
BITMAP
6d00
6d00
ffc0
6d00
6d00
6f00
6000
6000
7f80
0000
ENDCHAR
STARTCHAR 5242
ENCODING 19991
SWIDTH 960 0
DWIDTH 10 0
BBX 10 10 0 -2
BITMAP
3500
3500
3500
ffc0
3500
3500
3500
3500
3f00
0000
ENDCHAR
STARTCHAR 3556
ENCODING 19992
SWIDTH 960 0
DWIDTH 10 0
BBX 10 10 0 -2
BITMAP
0000
0700
3c00
3000
3f80
3600
3600
3600
ffc0
0000
ENDCHAR
STARTCHAR 4a3a
ENCODING 19993
SWIDTH 960 0
DWIDTH 10 0
BBX 10 10 0 -2
BITMAP
ffc0
0c00
ffc0
ccc0
dac0
d340
e1c0
c0c0
c1c0
0000
ENDCHAR
STARTCHAR 3e67
ENCODING 19998
SWIDTH 960 0
DWIDTH 10 0
BBX 10 10 0 -2
BITMAP
7f00
0600
f5c0
3700
3500
6d80
dcc0
0000
ffc0
0000
ENDCHAR
STARTCHAR 4e3e
ENCODING 20001
SWIDTH 960 0
DWIDTH 10 0
BBX 10 10 0 -2
BITMAP
ffc0
0c00
ffc0
ccc0
d540
d540
d540
df40
c1c0
0000
ENDCHAR
STARTCHAR 4a42
ENCODING 20006
SWIDTH 960 0
DWIDTH 10 0
BBX 10 10 0 -2
BITMAP
6180
3300
ffc0
1a00
dac0
6ac0
6a80
1a00
ffc0
0000
ENDCHAR
STARTCHAR 5024
ENCODING 20010
SWIDTH 960 0
DWIDTH 10 0
BBX 10 10 0 -2
BITMAP
0c00
1a00
3300
6d80
ccc0
0c00
0c00
0c00
0c00
0000
ENDCHAR
STARTCHAR 4366
ENCODING 20013
SWIDTH 960 0
DWIDTH 10 0
BBX 10 10 0 -2
BITMAP
0c00
0c00
ffc0
ccc0
ccc0
ffc0
0c00
0c00
0c00
0000
ENDCHAR
STARTCHAR 5025
ENCODING 20017
SWIDTH 960 0
DWIDTH 10 0
BBX 10 10 0 -2
BITMAP
3600
3600
d680
d680
d680
d680
f780
6600
c600
0000
ENDCHAR
STARTCHAR 367a
ENCODING 20018
SWIDTH 960 0
DWIDTH 10 0
BBX 10 10 0 -2
BITMAP
0c00
7f80
6d80
7f80
0c00
ffc0
ccc0
ffc0
0c00
0000
ENDCHAR
STARTCHAR 5026
ENCODING 20022
SWIDTH 960 0
DWIDTH 10 0
BBX 10 10 0 -2
BITMAP
0000
0000
0000
1800
0c00
0c00
0000
0000
0000
0000
ENDCHAR
STARTCHAR 345d
ENCODING 20024
SWIDTH 960 0
DWIDTH 10 0
BBX 10 10 0 -2
BITMAP
1800
1800
7f00
1b00
7b00
1d00
1b00
3340
e3c0
0000
ENDCHAR
STARTCHAR 4330
ENCODING 20025
SWIDTH 960 0
DWIDTH 10 0
BBX 10 10 0 -2
BITMAP
7f80
6180
6d80
6680
ffc0
6180
6180
6180
c380
0000
ENDCHAR
STARTCHAR 3c67
ENCODING 20027
SWIDTH 960 0
DWIDTH 10 0
BBX 10 10 0 -2
BITMAP
1800
0c00
ffc0
0c00
0c00
7f80
0c00
0c00
ffc0
0000
ENDCHAR
STARTCHAR 5027
ENCODING 20028
SWIDTH 960 0
DWIDTH 10 0
BBX 10 10 0 -2
BITMAP
3300
3300
ffc0
3500
3700
ffc0
3300
6300
c300
0000
ENDCHAR
STARTCHAR 5028
ENCODING 20031
SWIDTH 960 0
DWIDTH 10 0
BBX 10 10 0 -2
BITMAP
0600
0600
0600
0600
0600
0c00
0c00
1800
3000
0000
ENDCHAR
STARTCHAR 5029
ENCODING 20034
SWIDTH 960 0
DWIDTH 10 0
BBX 10 10 0 -2
BITMAP
0300
6300
3300
3600
1a00
0c00
1a00
3300
e1c0
0000
ENDCHAR
STARTCHAR 4735
ENCODING 20035
SWIDTH 960 0
DWIDTH 10 0
BBX 10 10 0 -2
BITMAP
0000
ff00
1b00
1b00
1bc0
30c0
30c0
60c0
c380
0000
ENDCHAR
STARTCHAR 3557
ENCODING 20037
SWIDTH 960 0
DWIDTH 10 0
BBX 10 10 0 -2
BITMAP
3000
3e00
3600
6600
c600
0c00
1a00
3300
e1c0
0000
ENDCHAR
STARTCHAR 4737
ENCODING 20043
SWIDTH 960 0
DWIDTH 10 0
BBX 10 10 0 -2
BITMAP
0c00
0c00
7f80
0180
0300
0600
6c00
7800
cfc0
0000
ENDCHAR
STARTCHAR 4663
ENCODING 20045
SWIDTH 960 0
DWIDTH 10 0
BBX 10 10 0 -2
BITMAP
3000
3000
7fc0
6c00
cf80
0c00
0f80
0c00
0c00
0000
ENDCHAR
STARTCHAR 3843
ENCODING 20046
SWIDTH 960 0
DWIDTH 10 0
BBX 10 10 0 -2
BITMAP
0700
7c00
6d80
3500
0c00
ffc0
0c00
0c00
1c00
0000
ENDCHAR
STARTCHAR 4b33
ENCODING 20047
SWIDTH 960 0
DWIDTH 10 0
BBX 10 10 0 -2
BITMAP
0700
7c00
0c00
ff80
0300
0600
6c00
7800
cfc0
0000
ENDCHAR
STARTCHAR 6949
ENCODING 20053
SWIDTH 960 0
DWIDTH 10 0
BBX 10 10 0 -2
BITMAP
0780
7e00
6f80
6600
7fc0
6600
6f80
da80
da80
0000
ENDCHAR
STARTCHAR 502a
ENCODING 20054
SWIDTH 960 0
DWIDTH 10 0
BBX 10 10 0 -2
BITMAP
0700
7c00
0c00
ffc0
3540
f580
3500
f5c0
0c00
0000
ENDCHAR
STARTCHAR 3e68
ENCODING 20055
SWIDTH 960 0
DWIDTH 10 0
BBX 10 10 0 -2
BITMAP
3f00
0c00
7f80
3500
ffc0
3500
7f80
3500
edc0
0000
ENDCHAR
STARTCHAR 502b
ENCODING 20056
SWIDTH 960 0
DWIDTH 10 0
BBX 10 10 0 -2
BITMAP
3f00
0c00
ffc0
3540
f580
3500
f5c0
1e00
f5c0
0000
ENDCHAR
STARTCHAR 3235
ENCODING 20057
SWIDTH 960 0
DWIDTH 10 0
BBX 10 10 0 -2
BITMAP
0000
7f00
0600
0c00
1800
3000
6000
c0c0
7fc0
0000
ENDCHAR
STARTCHAR 3665
ENCODING 20061
SWIDTH 960 0
DWIDTH 10 0
BBX 10 10 0 -2
BITMAP
1800
1800
fe00
1a00
1a00
3600
3600
66c0
c7c0
0000
ENDCHAR
STARTCHAR 3870
ENCODING 20062
SWIDTH 960 0
DWIDTH 10 0
BBX 10 10 0 -2
BITMAP
6000
7f80
c000
7e00
0c00
3800
6000
c0c0
7fc0
0000
ENDCHAR
STARTCHAR 4c69
ENCODING 20063
SWIDTH 960 0
DWIDTH 10 0
BBX 10 10 0 -2
BITMAP
0c00
6c00
6f80
7d80
ed80
6d80
6c00
60c0
7fc0
0000
ENDCHAR
STARTCHAR 5626
ENCODING 20066
SWIDTH 960 0
DWIDTH 10 0
BBX 10 10 0 -2
BITMAP
3300
3300
d500
d500
d500
d500
d500
fd40
03c0
0000
ENDCHAR
STARTCHAR 4d70
ENCODING 20081
SWIDTH 960 0
DWIDTH 10 0
BBX 10 10 0 -2
BITMAP
1d00
f300
3300
fd00
3300
3300
fd00
cd40
fdc0
0000
ENDCHAR
STARTCHAR 467d
ENCODING 20083
SWIDTH 960 0
DWIDTH 10 0
BBX 10 10 0 -2
BITMAP
3a00
ea00
d600
fa00
3600
3600
fa00
36c0
77c0
0000
ENDCHAR
STARTCHAR 3425
ENCODING 20094
SWIDTH 960 0
DWIDTH 10 0
BBX 10 10 0 -2
BITMAP
6600
f7c0
6c00
f780
d180
f300
6600
f4c0
67c0
0000
ENDCHAR
STARTCHAR 3535
ENCODING 20096
SWIDTH 960 0
DWIDTH 10 0
BBX 10 10 0 -2
BITMAP
3e00
6600
3f00
3500
7f80
6d80
7f80
0cc0
0fc0
0000
ENDCHAR
STARTCHAR 502c
ENCODING 20098
SWIDTH 960 0
DWIDTH 10 0
BBX 10 10 0 -2
BITMAP
7d00
d500
7d00
1b00
fd00
ed00
d500
ed40
cdc0
0000
ENDCHAR
STARTCHAR 502d
ENCODING 20101
SWIDTH 960 0
DWIDTH 10 0
BBX 10 10 0 -2
BITMAP
0c00
0c00
0c00
0c00
0c00
0c00
0c00
0c00
3c00
0000
ENDCHAR
STARTCHAR 4e3b
ENCODING 20102
SWIDTH 960 0
DWIDTH 10 0
BBX 10 10 0 -2
BITMAP
7f80
0300
0e00
0c00
0c00
0c00
0c00
0c00
1c00
0000
ENDCHAR
STARTCHAR 4d3d
ENCODING 20104
SWIDTH 960 0
DWIDTH 10 0
BBX 10 10 0 -2
BITMAP
7f80
0300
1a00
ffc0
0d80
0d00
0c00
0c00
3c00
0000
ENDCHAR
STARTCHAR 4168
ENCODING 20105
SWIDTH 960 0
DWIDTH 10 0
BBX 10 10 0 -2
BITMAP
1e00
3600
7f80
0d80
ffc0
0d80
7f80
0c00
1c00
0000
ENDCHAR
STARTCHAR 502f
ENCODING 20106
SWIDTH 960 0
DWIDTH 10 0
BBX 10 10 0 -2
BITMAP
0c00
ffc0
3500
7f80
0d80
ffc0
0d80
7f80
1c00
0000
ENDCHAR
STARTCHAR 3b76
ENCODING 20107
SWIDTH 960 0
DWIDTH 10 0
BBX 10 10 0 -2
BITMAP
0c00
ffc0
3500
7f80
0d80
ffc0
0d80
7f80
1c00
0000
ENDCHAR
STARTCHAR 4673
ENCODING 20108
SWIDTH 960 0
DWIDTH 10 0
BBX 10 10 0 -2
BITMAP
0000
0300
7f80
0000
0000
0000
0180
ffc0
0000
0000
ENDCHAR
STARTCHAR 5032
ENCODING 20110
SWIDTH 960 0
DWIDTH 10 0
BBX 10 10 0 -2
BITMAP
7f80
0c00
0c00
ffc0
0c00
0c00
0c00
0c00
1c00
0000
ENDCHAR
STARTCHAR 313e
ENCODING 20113
SWIDTH 960 0
DWIDTH 10 0
BBX 10 10 0 -2
BITMAP
0000
7f80
0000
0000
ffc0
1800
1b00
3780
7d80
0000
ENDCHAR
STARTCHAR 385f
ENCODING 20114
SWIDTH 960 0
DWIDTH 10 0
BBX 10 10 0 -2
BITMAP
ffc0
1800
1800
3f00
3300
7f00
6600
0600
ffc0
0000
ENDCHAR
STARTCHAR 385e
ENCODING 20116
SWIDTH 960 0
DWIDTH 10 0
BBX 10 10 0 -2
BITMAP
0000
ff80
1800
1800
7f00
3300
3300
3300
ffc0
0000
ENDCHAR
STARTCHAR 3066
ENCODING 20117
SWIDTH 960 0
DWIDTH 10 0
BBX 10 10 0 -2
BITMAP
3600
3600
ff80
3600
3600
ff80
3600
6600
c600
0000
ENDCHAR
STARTCHAR 4f4b
ENCODING 20120
SWIDTH 960 0
DWIDTH 10 0
BBX 10 10 0 -2
BITMAP
ffc0
0000
3f00
3300
3f00
3300
3f00
0000
ffc0
0000
ENDCHAR
STARTCHAR 4f4a
ENCODING 20121
SWIDTH 960 0
DWIDTH 10 0
BBX 10 10 0 -2
BITMAP
ffc0
1800
1f00
3300
3500
3700
6a00
6e00
ffc0
0000
ENDCHAR
STARTCHAR 3a33
ENCODING 20123
SWIDTH 960 0
DWIDTH 10 0
BBX 10 10 0 -2
BITMAP
3600
36c0
db00
d6c0
fbc0
0000
7f80
0000
ffc0
0000
ENDCHAR
STARTCHAR 3021
ENCODING 20124
SWIDTH 960 0
DWIDTH 10 0
BBX 10 10 0 -2
BITMAP
ffc0
1a00
1a00
7f80
6a80
7f80
1a00
1a00
ffc0
0000
ENDCHAR
STARTCHAR 5033
ENCODING 20126
SWIDTH 960 0
DWIDTH 10 0
BBX 10 10 0 -2
BITMAP
ffc0
1a00
1a00
fbc0
c0c0
fbc0
1a00
1a00
ffc0
0000
ENDCHAR
STARTCHAR 5034
ENCODING 20127
SWIDTH 960 0
DWIDTH 10 0
BBX 10 10 0 -2
BITMAP
7f80
1800
1c00
f5c0
d540
d580
f540
1800
ffc0
0000
ENDCHAR
STARTCHAR 5035
ENCODING 20128
SWIDTH 960 0
DWIDTH 10 0
BBX 10 10 0 -2
BITMAP
0000
0000
0c00
0c00
ffc0
0000
0000
0000
0000
0000
ENDCHAR
STARTCHAR 4b34
ENCODING 20129
SWIDTH 960 0
DWIDTH 10 0
BBX 10 10 0 -2
BITMAP
0c00
0c00
ffc0
6000
6000
6000
6000
6000
3f80
0000
ENDCHAR
STARTCHAR 5036
ENCODING 20130
SWIDTH 960 0
DWIDTH 10 0
BBX 10 10 0 -2
BITMAP
0c00
ffc0
0000
3e00
3600
3600
3600
66c0
c7c0
0000
ENDCHAR
STARTCHAR 3872
ENCODING 20132
SWIDTH 960 0
DWIDTH 10 0
BBX 10 10 0 -2
BITMAP
0c00
ffc0
3300
6180
d340
1a00
0c00
3b00
e1c0
0000
ENDCHAR
STARTCHAR 3067
ENCODING 20133
SWIDTH 960 0
DWIDTH 10 0
BBX 10 10 0 -2
BITMAP
0c00
ffc0
0c00
3b00
1a80
1d00
7600
1d80
f0c0
0000
ENDCHAR
STARTCHAR 4b72
ENCODING 20134
SWIDTH 960 0
DWIDTH 10 0
BBX 10 10 0 -2
BITMAP
0c00
0c00
ffc0
1a00
6a80
6ac0
dac0
3600
6e00
0000
ENDCHAR
STARTCHAR 357c
ENCODING 20136
SWIDTH 960 0
DWIDTH 10 0
BBX 10 10 0 -2
BITMAP
0c00
ffc0
3300
3f00
0000
7f80
0600
0c00
1c00
0000
ENDCHAR
STARTCHAR 357d
ENCODING 20139
SWIDTH 960 0
DWIDTH 10 0
BBX 10 10 0 -2
BITMAP
0c00
ffc0
3300
3f00
0000
7f80
0600
ffc0
1c00
0000
ENDCHAR
STARTCHAR 357e
ENCODING 20140
SWIDTH 960 0
DWIDTH 10 0
BBX 10 10 0 -2
BITMAP
0c00
ffc0
0000
3f00
3300
3f00
0c00
6d80
dcc0
0000
ENDCHAR
STARTCHAR 4462
ENCODING 20141
SWIDTH 960 0
DWIDTH 10 0
BBX 10 10 0 -2
BITMAP
0c00
ffc0
3f00
3300
ffc0
c0c0
7f80
0c00
1c00
0000
ENDCHAR
STARTCHAR 4e3c
ENCODING 20142
SWIDTH 960 0
DWIDTH 10 0
BBX 10 10 0 -2
BITMAP
0c00
ffc0
3300
3f00
0000
ffc0
dac0
3600
e7c0
0000
ENDCHAR
STARTCHAR 5037
ENCODING 20144
SWIDTH 960 0
DWIDTH 10 0
BBX 10 10 0 -2
BITMAP
0c00
ffc0
3300
3f00
3300
3f00
0c00
6d80
dcc0
0000
ENDCHAR
STARTCHAR 5038
ENCODING 20147
SWIDTH 960 0
DWIDTH 10 0
BBX 10 10 0 -2
BITMAP
0c00
ffc0
3300
ffc0
c740
3c00
0f00
fcc0
0fc0
0000
ENDCHAR
STARTCHAR 5039
ENCODING 20150
SWIDTH 960 0
DWIDTH 10 0
BBX 10 10 0 -2
BITMAP
0c00
ffc0
6e80
6180
7f80
3300
3f00
3300
ffc0
0000
ENDCHAR
STARTCHAR 3f4d
ENCODING 20154
SWIDTH 960 0
DWIDTH 10 0
BBX 10 10 0 -2
BITMAP
0c00
0c00
0c00
1a00
1a00
3300
3300
6180
c0c0
0000
ENDCHAR
STARTCHAR 3d3a
ENCODING 20160
SWIDTH 960 0
DWIDTH 10 0
BBX 10 10 0 -2
BITMAP
3600
3600
6600
6fc0
e600
6600
6600
6600
6600
0000
ENDCHAR
STARTCHAR 3f4e
ENCODING 20161
SWIDTH 960 0
DWIDTH 10 0
BBX 10 10 0 -2
BITMAP
3000
3000
6f80
6000
e000
6000
6000
6fc0
6000
0000
ENDCHAR
STARTCHAR 503e
ENCODING 20162
SWIDTH 960 0
DWIDTH 10 0
BBX 10 10 0 -2
BITMAP
3600
3600
6fc0
66c0
e6c0
66c0
66c0
6cc0
6b80
0000
ENDCHAR
STARTCHAR 503c
ENCODING 20164
SWIDTH 960 0
DWIDTH 10 0
BBX 10 10 0 -2
BITMAP
7fc0
6000
6600
6600
6600
6d00
6d00
d980
d0c0
0000
ENDCHAR
STARTCHAR 503d
ENCODING 20166
SWIDTH 960 0
DWIDTH 10 0
BBX 10 10 0 -2
BITMAP
3600
3600
6600
6700
e680
66c0
6600
6600
6600
0000
ENDCHAR
STARTCHAR 3558
ENCODING 20167
SWIDTH 960 0
DWIDTH 10 0
BBX 10 10 0 -2
BITMAP
3400
3400
6f00
6d00
ed00
6d00
6d00
6b40
73c0
0000
ENDCHAR
STARTCHAR 3a23
ENCODING 20170
SWIDTH 960 0
DWIDTH 10 0
BBX 10 10 0 -2
BITMAP
0c00
1a00
3300
eec0
0000
7f00
0300
0600
0c00
0000
ENDCHAR
STARTCHAR 3270
ENCODING 20171
SWIDTH 960 0
DWIDTH 10 0
BBX 10 10 0 -2
BITMAP
0c00
1a00
3300
7380
d340
3300
3300
6300
c300
0000
ENDCHAR
STARTCHAR 503b
ENCODING 20173
SWIDTH 960 0
DWIDTH 10 0
BBX 10 10 0 -2
BITMAP
3000
3780
6680
6680
e6c0
66c0
6cc0
6cc0
6bc0
0000
ENDCHAR
STARTCHAR 503a
ENCODING 20174
SWIDTH 960 0
DWIDTH 10 0
BBX 10 10 0 -2
BITMAP
3300
3300
3300
3300
6b00
6a80
6680
ccc0
ccc0
0000
ENDCHAR
STARTCHAR 4a29
ENCODING 20175
SWIDTH 960 0
DWIDTH 10 0
BBX 10 10 0 -2
BITMAP
3600
3600
6600
6600
e600
6c00
6d80
6dc0
6f40
0000
ENDCHAR
STARTCHAR 3b46
ENCODING 20180
SWIDTH 960 0
DWIDTH 10 0
BBX 10 10 0 -2
BITMAP
3000
3780
6300
6600
efc0
6600
6600
6600
6e00
0000
ENDCHAR
STARTCHAR 3b45
ENCODING 20181
SWIDTH 960 0
DWIDTH 10 0
BBX 10 10 0 -2
BITMAP
3600
3600
6600
6fc0
e600
6600
6600
6600
6f80
0000
ENDCHAR
STARTCHAR 423e
ENCODING 20182
SWIDTH 960 0
DWIDTH 10 0
BBX 10 10 0 -2
BITMAP
3300
3500
6dc0
6f40
ed40
6d40
6c00
6cc0
6fc0
0000
ENDCHAR
STARTCHAR 503f
ENCODING 20183
SWIDTH 960 0
DWIDTH 10 0
BBX 10 10 0 -2
BITMAP
3300
3300
6fc0
6300
ed00
6d00
6600
6d00
69c0
0000
ENDCHAR
STARTCHAR 4955
ENCODING 20184
SWIDTH 960 0
DWIDTH 10 0
BBX 10 10 0 -2
BITMAP
3180
3180
6fc0
6180
ed80
6680
6180
6180
6380
0000
ENDCHAR
STARTCHAR 4067
ENCODING 20185
SWIDTH 960 0
DWIDTH 10 0
BBX 10 10 0 -2
BITMAP
3300
3300
6d40
6d40
ed40
6d40
6d40
6d40
6fc0
0000
ENDCHAR
STARTCHAR 2138
ENCODING 20189
SWIDTH 960 0
DWIDTH 10 0
BBX 10 10 0 -2
BITMAP
0c00
1a00
3300
6180
df40
0c00
0c00
0c00
7f80
0000
ENDCHAR
STARTCHAR 5040
ENCODING 20190
SWIDTH 960 0
DWIDTH 10 0
BBX 10 10 0 -2
BITMAP
3000
37c0
66c0
66c0
eac0
6ec0
66c0
6cc0
69c0
0000
ENDCHAR
STARTCHAR 5042
ENCODING 20191
SWIDTH 960 0
DWIDTH 10 0
BBX 10 10 0 -2
BITMAP
31c0
3700
6300
6300
efc0
6300
6300
6300
6300
0000
ENDCHAR
STARTCHAR 4265
ENCODING 20195
SWIDTH 960 0
DWIDTH 10 0
BBX 10 10 0 -2
BITMAP
3680
36c0
6600
6fc0
e600
6600
6300
6340
61c0
0000
ENDCHAR
STARTCHAR 4e61
ENCODING 20196
SWIDTH 960 0
DWIDTH 10 0
BBX 10 10 0 -2
BITMAP
0c00
1a00
3300
eec0
0000
7f80
0d80
0d80
0c00
0000
ENDCHAR
STARTCHAR 304a
ENCODING 20197
SWIDTH 960 0
DWIDTH 10 0
BBX 10 10 0 -2
BITMAP
6180
6980
6d80
6180
6180
6b00
7300
e680
1cc0
0000
ENDCHAR
STARTCHAR 5041
ENCODING 20205
SWIDTH 960 0
DWIDTH 10 0
BBX 10 10 0 -2
BITMAP
3000
3780
6680
6680
ea80
6e80
6780
6dc0
6b80
0000
ENDCHAR
STARTCHAR 323e
ENCODING 20206
SWIDTH 960 0
DWIDTH 10 0
BBX 10 10 0 -2
BITMAP
37c0
3400
6f80
6d80
ee80
6e80
6d00
6b80
6ac0
0000
ENDCHAR
STARTCHAR 3644
ENCODING 20208
SWIDTH 960 0
DWIDTH 10 0
BBX 10 10 0 -2
BITMAP
3600
3dc0
6b40
6b40
eb40
6b40
6f40
6bc0
6300
0000
ENDCHAR
STARTCHAR 4367
ENCODING 20210
SWIDTH 960 0
DWIDTH 10 0
BBX 10 10 0 -2
BITMAP
3600
3600
6f80
6a80
ea80
6f80
6600
6600
6600
0000
ENDCHAR
STARTCHAR 376f
ENCODING 20214
SWIDTH 960 0
DWIDTH 10 0
BBX 10 10 0 -2
BITMAP
3300
3500
6fc0
6b00
e300
6fc0
6300
6300
6300
0000
ENDCHAR
STARTCHAR 5043
ENCODING 20215
SWIDTH 960 0
DWIDTH 10 0
BBX 10 10 0 -2
BITMAP
3000
3700
6d80
e8c0
6680
6680
6680
6680
6d80
0000
ENDCHAR
STARTCHAR 4724
ENCODING 20219
SWIDTH 960 0
DWIDTH 10 0
BBX 10 10 0 -2
BITMAP
3380
3600
6600
6600
efc0
6600
6600
6600
6fc0
0000
ENDCHAR
STARTCHAR 346b
ENCODING 20225
SWIDTH 960 0
DWIDTH 10 0
BBX 10 10 0 -2
BITMAP
0c00
1a00
3300
edc0
0c00
3700
3400
3400
ffc0
0000
ENDCHAR
STARTCHAR 5044
ENCODING 20233
SWIDTH 960 0
DWIDTH 10 0
BBX 10 10 0 -2
BITMAP
3300
37c0
6000
e780
6680
6680
6680
6680
6dc0
0000
ENDCHAR
STARTCHAR 304b
ENCODING 20234
SWIDTH 960 0
DWIDTH 10 0
BBX 10 10 0 -2
BITMAP
3780
3680
6fc0
6680
e680
6f80
6600
6600
6c00
0000
ENDCHAR
STARTCHAR 3860
ENCODING 20237
SWIDTH 960 0
DWIDTH 10 0
BBX 10 10 0 -2
BITMAP
3000
3fc0
6600
6600
ef80
6d80
6d80
6d80
6fc0
0000
ENDCHAR
STARTCHAR 346c
ENCODING 20238
SWIDTH 960 0
DWIDTH 10 0
BBX 10 10 0 -2
BITMAP
3300
3300
6fc0
6300
e780
6680
6300
6680
6cc0
0000
ENDCHAR
STARTCHAR 497a
ENCODING 20239
SWIDTH 960 0
DWIDTH 10 0
BBX 10 10 0 -2
BITMAP
3680
3600
6fc0
6600
e600
6600
6d00
6d80
68c0
0000
ENDCHAR
STARTCHAR 4832
ENCODING 20240
SWIDTH 960 0
DWIDTH 10 0
BBX 10 10 0 -2
BITMAP
3680
3600
6fc0
6600
e6c0
6680
6300
6740
6dc0
0000
ENDCHAR
STARTCHAR 3559
ENCODING 20241
SWIDTH 960 0
DWIDTH 10 0
BBX 10 10 0 -2
BITMAP
3600
3600
6fc0
6600
ef00
6f00
6a80
76c0
6600
0000
ENDCHAR
STARTCHAR 3271
ENCODING 20250
SWIDTH 960 0
DWIDTH 10 0
BBX 10 10 0 -2
BITMAP
0c00
1a00
3300
eec0
0000
7f80
1800
3300
7e80
0000
ENDCHAR
STARTCHAR 5067
ENCODING 20252
SWIDTH 960 0
DWIDTH 10 0
BBX 10 10 0 -2
BITMAP
3600
3780
6680
6dc0
e300
6300
6fc0
6300
6300
0000
ENDCHAR
STARTCHAR 4541
ENCODING 20253
SWIDTH 960 0
DWIDTH 10 0
BBX 10 10 0 -2
BITMAP
3000
3780
6000
6fc0
e600
6600
6d80
6dc0
6f40
0000
ENDCHAR
STARTCHAR 476c
ENCODING 20271
SWIDTH 960 0
DWIDTH 10 0
BBX 10 10 0 -2
BITMAP
3300
3600
6fc0
6cc0
ecc0
6fc0
6cc0
6cc0
6fc0
0000
ENDCHAR
STARTCHAR 5046
ENCODING 20272
SWIDTH 960 0
DWIDTH 10 0
BBX 10 10 0 -2
BITMAP
3300
3300
6fc0
6300
e300
6fc0
6cc0
6cc0
6fc0
0000
ENDCHAR
STARTCHAR 483c
ENCODING 20276
SWIDTH 960 0
DWIDTH 10 0
BBX 10 10 0 -2
BITMAP
3540
3540
6300
6fc0
e300
6fc0
6300
6300
6300
0000
ENDCHAR
STARTCHAR 4e62
ENCODING 20278
SWIDTH 960 0
DWIDTH 10 0
BBX 10 10 0 -2
BITMAP
3700
3580
6b40
6000
ef80
6680
6680
6780
6600
0000
ENDCHAR
STARTCHAR 3f2d
ENCODING 20280
SWIDTH 960 0
DWIDTH 10 0
BBX 10 10 0 -2
BITMAP
3300
37c0
6d40
6fc0
ed40
6fc0
6300
6300
6300
0000
ENDCHAR
STARTCHAR 3b47
ENCODING 20282
SWIDTH 960 0
DWIDTH 10 0
BBX 10 10 0 -2
BITMAP
3000
37c0
60c0
6f40
e0c0
6f40
6d40
6f40
61c0
0000
ENDCHAR
STARTCHAR 3b77
ENCODING 20284
SWIDTH 960 0
DWIDTH 10 0
BBX 10 10 0 -2
BITMAP
30c0
34c0
6d40
6d40
ecc0
6ec0
6d80
6340
6ec0
0000
ENDCHAR
STARTCHAR 3240
ENCODING 20285
SWIDTH 960 0
DWIDTH 10 0
BBX 10 10 0 -2
BITMAP
3400
3400
6fc0
6d40
ed40
6d40
6d40
6b40
6bc0
0000
ENDCHAR
STARTCHAR 4451
ENCODING 20291
SWIDTH 960 0
DWIDTH 10 0
BBX 10 10 0 -2
BITMAP
3000
37c0
6d40
6d40
efc0
6d40
6d40
6d40
6fc0
0000
ENDCHAR
STARTCHAR 4322
ENCODING 20294
SWIDTH 960 0
DWIDTH 10 0
BBX 10 10 0 -2
BITMAP
3780
3580
6d80
6f80
ed80
6d80
6f80
6000
6fc0
0000
ENDCHAR
STARTCHAR 504a
ENCODING 20295
SWIDTH 960 0
DWIDTH 10 0
BBX 10 10 0 -2
BITMAP
3300
37c0
6cc0
6000
efc0
6300
6300
6300
6700
0000
ENDCHAR
STARTCHAR 304c
ENCODING 20301
SWIDTH 960 0
DWIDTH 10 0
BBX 10 10 0 -2
BITMAP
3600
3600
6fc0
6d80
ed80
6d80
6d80
6d80
6fc0
0000
ENDCHAR
STARTCHAR 4463
ENCODING 20302
SWIDTH 960 0
DWIDTH 10 0
BBX 10 10 0 -2
BITMAP
31c0
3700
6d00
6fc0
ed00
6d80
6ec0
6000
6fc0
0000
ENDCHAR
STARTCHAR 3d3b
ENCODING 20303
SWIDTH 960 0
DWIDTH 10 0
BBX 10 10 0 -2
BITMAP
3600
3300
6fc0
6300
e300
6fc0
6300
6300
6fc0
0000
ENDCHAR
STARTCHAR 3a34
ENCODING 20304
SWIDTH 960 0
DWIDTH 10 0
BBX 10 10 0 -2
BITMAP
3600
3600
6fc0
6c00
ec00
6f80
6b00
6300
6fc0
0000
ENDCHAR
STARTCHAR 4d24
ENCODING 20305
SWIDTH 960 0
DWIDTH 10 0
BBX 10 10 0 -2
BITMAP
3600
3600
6fc0
6600
ec00
6fc0
6ac0
6ac0
67c0
0000
ENDCHAR
STARTCHAR 424e
ENCODING 20307
SWIDTH 960 0
DWIDTH 10 0
BBX 10 10 0 -2
BITMAP
3600
3600
6fc0
6600
ef00
6a80
76c0
6f00
6600
0000
ENDCHAR
STARTCHAR 323f
ENCODING 20309
SWIDTH 960 0
DWIDTH 10 0
BBX 10 10 0 -2
BITMAP
3000
3fc0
6180
6e80
ea80
6a80
6e80
6180
6380
0000
ENDCHAR
STARTCHAR 5049
ENCODING 20311
SWIDTH 960 0
DWIDTH 10 0
BBX 10 10 0 -2
BITMAP
3600
3fc0
68c0
6c00
ed80
6e00
6c00
6cc0
6fc0
0000
ENDCHAR
STARTCHAR 4d3e
ENCODING 20313
SWIDTH 960 0
DWIDTH 10 0
BBX 10 10 0 -2
BITMAP
0c00
1a00
3300
eec0
0c00
7fc0
0c00
6d80
dcc0
0000
ENDCHAR
STARTCHAR 5045
ENCODING 20314
SWIDTH 960 0
DWIDTH 10 0
BBX 10 10 0 -2
BITMAP
3300
3500
6fc0
6300
efc0
6300
6300
6680
6cc0
0000
ENDCHAR
STARTCHAR 5047
ENCODING 20315
SWIDTH 960 0
DWIDTH 10 0
BBX 10 10 0 -2
BITMAP
3700
3fc0
6740
6fc0
eb00
6fc0
6740
6dc0
6b00
0000
ENDCHAR
STARTCHAR 3a6e
ENCODING 20316
SWIDTH 960 0
DWIDTH 10 0
BBX 10 10 0 -2
BITMAP
3600
3600
6fc0
6a00
e7c0
6600
67c0
6600
6600
0000
ENDCHAR
STARTCHAR 5048
ENCODING 20317
SWIDTH 960 0
DWIDTH 10 0
BBX 10 10 0 -2
BITMAP
3600
37c0
68c0
6f40
ed40
6d40
6f40
60c0
6380
0000
ENDCHAR
STARTCHAR 5524
ENCODING 20318
SWIDTH 960 0
DWIDTH 10 0
BBX 10 10 0 -2
BITMAP
3700
3000
6fc0
6600
efc0
6d80
6f00
6680
6cc0
0000
ENDCHAR
STARTCHAR 5050
ENCODING 20329
SWIDTH 960 0
DWIDTH 10 0
BBX 10 10 0 -2
BITMAP
7fc0
70c0
d740
d6c0
dfc0
dac0
dac0
dac0
d6c0
0000
ENDCHAR
STARTCHAR 5053
ENCODING 20335
SWIDTH 960 0
DWIDTH 10 0
BBX 10 10 0 -2
BITMAP
34c0
3680
6fc0
6300
efc0
6300
6fc0
6300
6300
0000
ENDCHAR
STARTCHAR 5051
ENCODING 20336
SWIDTH 960 0
DWIDTH 10 0
BBX 10 10 0 -2
BITMAP
37c0
3300
6600
6fc0
ecc0
6fc0
6cc0
6cc0
6fc0
0000
ENDCHAR
STARTCHAR 3242
ENCODING 20339
SWIDTH 960 0
DWIDTH 10 0
BBX 10 10 0 -2
BITMAP
3600
3780
6600
6fc0
e600
6600
6f80
6600
6fc0
0000
ENDCHAR
STARTCHAR 4a3b
ENCODING 20341
SWIDTH 960 0
DWIDTH 10 0
BBX 10 10 0 -2
BITMAP
3580
3700
6fc0
6d80
ed80
6fc0
6d80
6d80
6980
0000
ENDCHAR
STARTCHAR 504b
ENCODING 20342
SWIDTH 960 0
DWIDTH 10 0
BBX 10 10 0 -2
BITMAP
3300
37c0
6300
6fc0
e000
6000
6fc0
6cc0
6fc0
0000
ENDCHAR
STARTCHAR 504f
ENCODING 20347
SWIDTH 960 0
DWIDTH 10 0
BBX 10 10 0 -2
BITMAP
3680
3680
6ec0
6680
e680
6ec0
6680
6680
6dc0
0000
ENDCHAR
STARTCHAR 3873
ENCODING 20348
SWIDTH 960 0
DWIDTH 10 0
BBX 10 10 0 -2
BITMAP
3300
37c0
6680
6cc0
e680
6680
6300
6680
6cc0
0000
ENDCHAR
STARTCHAR 3b48
ENCODING 20351
SWIDTH 960 0
DWIDTH 10 0
BBX 10 10 0 -2
BITMAP
3600
3fc0
6600
6fc0
eac0
6fc0
6a00
6e00
6dc0
0000
ENDCHAR
STARTCHAR 3426
ENCODING 20355
SWIDTH 960 0
DWIDTH 10 0
BBX 10 10 0 -2
BITMAP
3f80
3980
6980
6f80
e000
6a80
6a80
6a80
76c0
0000
ENDCHAR
STARTCHAR 5054
ENCODING 20358
SWIDTH 960 0
DWIDTH 10 0
BBX 10 10 0 -2
BITMAP
0c00
ffc0
3500
3500
6e80
ccc0
1e00
3500
edc0
0000
ENDCHAR
STARTCHAR 504c
ENCODING 20360
SWIDTH 960 0
DWIDTH 10 0
BBX 10 10 0 -2
BITMAP
33c0
36c0
6380
6f00
e000
63c0
6ec0
6380
6f00
0000
ENDCHAR
STARTCHAR 4e63
ENCODING 20363
SWIDTH 960 0
DWIDTH 10 0
BBX 10 10 0 -2
BITMAP
7ec0
6b40
dd40
d540
dd40
ed40
cd40
d8c0
d1c0
0000
ENDCHAR
STARTCHAR 3b78
ENCODING 20365
SWIDTH 960 0
DWIDTH 10 0
BBX 10 10 0 -2
BITMAP
3300
3780
6300
efc0
6180
6fc0
6180
6d80
6380
0000
ENDCHAR
STARTCHAR 504d
ENCODING 20367
SWIDTH 960 0
DWIDTH 10 0
BBX 10 10 0 -2
BITMAP
3300
3500
6fc0
6300
efc0
6300
6780
6d40
6300
0000
ENDCHAR
STARTCHAR 5052
ENCODING 20369
SWIDTH 960 0
DWIDTH 10 0
BBX 10 10 0 -2
BITMAP
3300
37c0
6600
6fc0
eac0
67c0
66c0
67c0
66c0
0000
ENDCHAR
STARTCHAR 5055
ENCODING 20374
SWIDTH 960 0
DWIDTH 10 0
BBX 10 10 0 -2
BITMAP
0c00
1a00
3f00
e1c0
7f80
6a80
7f80
6a80
6a80
0000
ENDCHAR
STARTCHAR 504e
ENCODING 20376
SWIDTH 960 0
DWIDTH 10 0
BBX 10 10 0 -2
BITMAP
3600
3fc0
68c0
6f80
e600
67c0
6e00
66c0
67c0
0000
ENDCHAR
STARTCHAR 3621
ENCODING 20379
SWIDTH 960 0
DWIDTH 10 0
BBX 10 10 0 -2
BITMAP
3500
3500
6f80
6d00
ed00
6fc0
6000
6d00
6980
0000
ENDCHAR
STARTCHAR 304d
ENCODING 20381
SWIDTH 960 0
DWIDTH 10 0
BBX 10 10 0 -2
BITMAP
3600
3600
6fc0
6c00
eec0
6d80
7500
6e80
6cc0
0000
ENDCHAR
STARTCHAR 3622
ENCODING 20384
SWIDTH 960 0
DWIDTH 10 0
BBX 10 10 0 -2
BITMAP
3600
3fc0
6600
6a80
ef00
6fc0
6600
6d00
69c0
0000
ENDCHAR
STARTCHAR 3241
ENCODING 20385
SWIDTH 960 0
DWIDTH 10 0
BBX 10 10 0 -2
BITMAP
6000
7fc0
cd00
dfc0
d540
d540
d540
d540
dfc0
0000
ENDCHAR
STARTCHAR 5525
ENCODING 20395
SWIDTH 960 0
DWIDTH 10 0
BBX 10 10 0 -2
BITMAP
3600
37c0
6c00
6780
e600
6fc0
6d80
6f00
6dc0
0000
ENDCHAR
STARTCHAR 4b79
ENCODING 20397
SWIDTH 960 0
DWIDTH 10 0
BBX 10 10 0 -2
BITMAP
37c0
34c0
6fc0
6d80
ed80
6b40
6000
6700
6180
0000
ENDCHAR
STARTCHAR 496e
ENCODING 20398
SWIDTH 960 0
DWIDTH 10 0
BBX 10 10 0 -2
BITMAP
3400
3fc0
6000
6f80
ea80
7fc0
6a80
6fc0
6380
0000
ENDCHAR
STARTCHAR 3874
ENCODING 20399
SWIDTH 960 0
DWIDTH 10 0
BBX 10 10 0 -2
BITMAP
3780
3180
6fc0
6600
efc0
6b00
6fc0
6680
6cc0
0000
ENDCHAR
STARTCHAR 3f2f
ENCODING 20405
SWIDTH 960 0
DWIDTH 10 0
BBX 10 10 0 -2
BITMAP
3780
3180
6180
efc0
68c0
6f80
6d80
6700
6dc0
0000
ENDCHAR
STARTCHAR 4e37
ENCODING 20406
SWIDTH 960 0
DWIDTH 10 0
BBX 10 10 0 -2
BITMAP
3780
3580
6d80
6f80
e600
6fc0
68c0
68c0
6fc0
0000
ENDCHAR
STARTCHAR 4a58
ENCODING 20415
SWIDTH 960 0
DWIDTH 10 0
BBX 10 10 0 -2
BITMAP
37c0
3300
6fc0
6d40
efc0
6d40
6fc0
6700
6ec0
0000
ENDCHAR
STARTCHAR 3738
ENCODING 20418
SWIDTH 960 0
DWIDTH 10 0
BBX 10 10 0 -2
BITMAP
3380
3600
6680
6d00
e6c0
6fc0
6300
6d40
6d40
0000
ENDCHAR
STARTCHAR 4225
ENCODING 20419
SWIDTH 960 0
DWIDTH 10 0
BBX 10 10 0 -2
BITMAP
37c0
34c0
6fc0
6300
e300
6dc0
6d00
6f00
6bc0
0000
ENDCHAR
STARTCHAR 3264
ENCODING 20420
SWIDTH 960 0
DWIDTH 10 0
BBX 10 10 0 -2
BITMAP
3700
3d40
6d00
6fc0
ed00
6f40
6d40
6d80
6d40
0000
ENDCHAR
STARTCHAR 3d53
ENCODING 20426
SWIDTH 960 0
DWIDTH 10 0
BBX 10 10 0 -2
BITMAP
3600
3580
6fc0
6d00
ebc0
6780
6d80
6700
6dc0
0000
ENDCHAR
STARTCHAR 5059
ENCODING 20430
SWIDTH 960 0
DWIDTH 10 0
BBX 10 10 0 -2
BITMAP
6780
6680
d780
c680
0680
6780
6680
d680
cfc0
0000
ENDCHAR
STARTCHAR 505e
ENCODING 20432
SWIDTH 960 0
DWIDTH 10 0
BBX 10 10 0 -2
BITMAP
36c0
3d40
6d40
6f40
ed40
6f40
6d40
6cc0
6dc0
0000
ENDCHAR
STARTCHAR 505c
ENCODING 20433
SWIDTH 960 0
DWIDTH 10 0
BBX 10 10 0 -2
BITMAP
37c0
3380
6fc0
6d40
efc0
6d40
6fc0
6d40
6d40
0000
ENDCHAR
STARTCHAR 5057
ENCODING 20436
SWIDTH 960 0
DWIDTH 10 0
BBX 10 10 0 -2
BITMAP
3780
3580
6f80
6d80
ef80
6d80
6f80
6d00
6bc0
0000
ENDCHAR
STARTCHAR 422f
ENCODING 20439
SWIDTH 960 0
DWIDTH 10 0
BBX 10 10 0 -2
BITMAP
3580
38c0
6700
6d80
e8c0
6f80
6d80
6d80
6f80
0000
ENDCHAR
STARTCHAR 505a
ENCODING 20440
SWIDTH 960 0
DWIDTH 10 0
BBX 10 10 0 -2
BITMAP
3380
3680
6ac0
6000
ef80
6300
6fc0
6300
6700
0000
ENDCHAR
STARTCHAR 505d
ENCODING 20442
SWIDTH 960 0
DWIDTH 10 0
BBX 10 10 0 -2
BITMAP
37c0
3540
6fc0
6d40
efc0
6300
6fc0
6300
6fc0
0000
ENDCHAR
STARTCHAR 505b
ENCODING 20443
SWIDTH 960 0
DWIDTH 10 0
BBX 10 10 0 -2
BITMAP
3780
3580
6fc0
6d40
ed40
6fc0
6700
6d40
6bc0
0000
ENDCHAR
STARTCHAR 4a5d
ENCODING 20445
SWIDTH 960 0
DWIDTH 10 0
BBX 10 10 0 -2
BITMAP
37c0
34c0
6cc0
6fc0
e300
6fc0
6300
6780
6d40
0000
ENDCHAR
STARTCHAR 5058
ENCODING 20447
SWIDTH 960 0
DWIDTH 10 0
BBX 10 10 0 -2
BITMAP
3300
36c0
6fc0
6600
efc0
6300
6fc0
6680
6cc0
0000
ENDCHAR
STARTCHAR 3f2e
ENCODING 20449
SWIDTH 960 0
DWIDTH 10 0
BBX 10 10 0 -2
BITMAP
3700
3000
6fc0
6000
ef80
6000
6f80
6d80
6f80
0000
ENDCHAR
STARTCHAR 4b73
ENCODING 20451
SWIDTH 960 0
DWIDTH 10 0
BBX 10 10 0 -2
BITMAP
3780
3580
6f80
6000
ef80
6600
6fc0
6d00
69c0
0000
ENDCHAR
STARTCHAR 505f
ENCODING 20452
SWIDTH 960 0
DWIDTH 10 0
BBX 10 10 0 -2
BITMAP
3680
37c0
6340
6fc0
ed00
6fc0
6740
6d40
6b40
0000
ENDCHAR
STARTCHAR 5060
ENCODING 20453
SWIDTH 960 0
DWIDTH 10 0
BBX 10 10 0 -2
BITMAP
3300
37c0
6300
6fc0
ed40
6fc0
6300
6fc0
6300
0000
ENDCHAR
STARTCHAR 3d24
ENCODING 20462
SWIDTH 960 0
DWIDTH 10 0
BBX 10 10 0 -2
BITMAP
3600
37c0
6e80
6b00
eac0
6980
6b00
69c0
6700
0000
ENDCHAR
STARTCHAR 506d
ENCODING 20463
SWIDTH 960 0
DWIDTH 10 0
BBX 10 10 0 -2
BITMAP
3300
3fc0
6800
6b40
ebc0
6ec0
6ac0
6ac0
6ac0
0000
ENDCHAR
STARTCHAR 4750
ENCODING 20467
SWIDTH 960 0
DWIDTH 10 0
BBX 10 10 0 -2
BITMAP
3500
3500
6dc0
6d00
edc0
6d00
6dc0
6d00
6b00
0000
ENDCHAR
STARTCHAR 4936
ENCODING 20469
SWIDTH 960 0
DWIDTH 10 0
BBX 10 10 0 -2
BITMAP
3300
37c0
6300
6fc0
e300
6fc0
6d40
6d80
6ec0
0000
ENDCHAR
STARTCHAR 5068
ENCODING 20470
SWIDTH 960 0
DWIDTH 10 0
BBX 10 10 0 -2
BITMAP
3400
3600
6dc0
6f40
ed40
6d40
6e80
6d40
6d40
0000
ENDCHAR
STARTCHAR 4a70
ENCODING 20472
SWIDTH 960 0
DWIDTH 10 0
BBX 10 10 0 -2
BITMAP
6600
6f80
cd00
dfc0
da80
d740
c600
df80
c600
0000
ENDCHAR
STARTCHAR 3236
ENCODING 20474
SWIDTH 960 0
DWIDTH 10 0
BBX 10 10 0 -2
BITMAP
3600
3fc0
6d00
6a80
ffc0
6a80
6f80
66c0
67c0
0000
ENDCHAR
STARTCHAR 506c
ENCODING 20478
SWIDTH 960 0
DWIDTH 10 0
BBX 10 10 0 -2
BITMAP
3300
37c0
6d40
6fc0
ed40
6fc0
6680
6fc0
6180
0000
ENDCHAR
STARTCHAR 5066
ENCODING 20485
SWIDTH 960 0
DWIDTH 10 0
BBX 10 10 0 -2
BITMAP
3300
37c0
6680
6680
ed40
6300
6fc0
6300
6300
0000
ENDCHAR
STARTCHAR 506f
ENCODING 20486
SWIDTH 960 0
DWIDTH 10 0
BBX 10 10 0 -2
BITMAP
3fc0
3600
6fc0
6ac0
ef40
6f40
6ac0
6ac0
6ac0
0000
ENDCHAR
STARTCHAR 4152
ENCODING 20489
SWIDTH 960 0
DWIDTH 10 0
BBX 10 10 0 -2
BITMAP
0c00
3b00
ffc0
3300
3f00
3300
7f80
d180
3f80
0000
ENDCHAR
STARTCHAR 3844
ENCODING 20491
SWIDTH 960 0
DWIDTH 10 0
BBX 10 10 0 -2
BITMAP
3fc0
3ac0
6f40
6ac0
ef40
6d40
6f40
68c0
6fc0
0000
ENDCHAR
STARTCHAR 475c
ENCODING 20493
SWIDTH 960 0
DWIDTH 10 0
BBX 10 10 0 -2
BITMAP
3300
37c0
6680
6fc0
e000
6fc0
6cc0
6cc0
6fc0
0000
ENDCHAR
STARTCHAR 6047
ENCODING 20495
SWIDTH 960 0
DWIDTH 10 0
BBX 10 10 0 -2
BITMAP
6780
6e80
d300
d6c0
d000
d340
d7c0
d680
ccc0
0000
ENDCHAR
STARTCHAR 506e
ENCODING 20497
SWIDTH 960 0
DWIDTH 10 0
BBX 10 10 0 -2
BITMAP
36c0
36c0
6ec0
6cc0
ecc0
6cc0
6cc0
6cc0
6dc0
0000
ENDCHAR
STARTCHAR 455d
ENCODING 20498
SWIDTH 960 0
DWIDTH 10 0
BBX 10 10 0 -2
BITMAP
30c0
3f40
6d40
6f40
e340
6d40
6f40
6cc0
6f40
0000
ENDCHAR
STARTCHAR 5063
ENCODING 20500
SWIDTH 960 0
DWIDTH 10 0
BBX 10 10 0 -2
BITMAP
37c0
34c0
6fc0
6d00
ed40
6fc0
6d00
6d40
6bc0
0000
ENDCHAR
STARTCHAR 3876
ENCODING 20502
SWIDTH 960 0
DWIDTH 10 0
BBX 10 10 0 -2
BITMAP
3600
3780
6600
6fc0
ed80
6fc0
6600
6f80
6600
0000
ENDCHAR
STARTCHAR 3875
ENCODING 20505
SWIDTH 960 0
DWIDTH 10 0
BBX 10 10 0 -2
BITMAP
3780
3180
6fc0
6300
ebc0
6b00
6bc0
6b80
66c0
0000
ENDCHAR
STARTCHAR 5061
ENCODING 20506
SWIDTH 960 0
DWIDTH 10 0
BBX 10 10 0 -2
BITMAP
3300
37c0
6300
6680
efc0
6180
6e80
6e80
6380
0000
ENDCHAR
STARTCHAR 3c5a
ENCODING 20511
SWIDTH 960 0
DWIDTH 10 0
BBX 10 10 0 -2
BITMAP
3580
3fc0
6d80
6fc0
e000
6f80
6d80
6d80
6f80
0000
ENDCHAR
STARTCHAR 5069
ENCODING 20513
SWIDTH 960 0
DWIDTH 10 0
BBX 10 10 0 -2
BITMAP
3780
3580
6f80
6d80
efc0
68c0
6fc0
68c0
6fc0
0000
ENDCHAR
STARTCHAR 4a6f
ENCODING 20515
SWIDTH 960 0
DWIDTH 10 0
BBX 10 10 0 -2
BITMAP
6d00
6d00
dfc0
db40
df40
db40
da80
d6c0
d740
0000
ENDCHAR
STARTCHAR 434d
ENCODING 20516
SWIDTH 960 0
DWIDTH 10 0
BBX 10 10 0 -2
BITMAP
3300
37c0
6300
6b80
ea80
6a80
6b80
6800
6fc0
0000
ENDCHAR
STARTCHAR 5065
ENCODING 20517
SWIDTH 960 0
DWIDTH 10 0
BBX 10 10 0 -2
BITMAP
3300
37c0
6cc0
6680
edc0
6000
6780
6300
6fc0
0000
ENDCHAR
STARTCHAR 3771
ENCODING 20518
SWIDTH 960 0
DWIDTH 10 0
BBX 10 10 0 -2
BITMAP
6a80
6f80
cd00
dfc0
d980
d740
cf00
ccc0
cfc0
0000
ENDCHAR
STARTCHAR 5062
ENCODING 20520
SWIDTH 960 0
DWIDTH 10 0
BBX 10 10 0 -2
BITMAP
37c0
34c0
6fc0
6d80
efc0
6d80
6bc0
6ac0
67c0
0000
ENDCHAR
STARTCHAR 506a
ENCODING 20521
SWIDTH 960 0
DWIDTH 10 0
BBX 10 10 0 -2
BITMAP
6600
6f80
c600
dfc0
da80
df80
d980
d980
db80
0000
ENDCHAR
STARTCHAR 5064
ENCODING 20522
SWIDTH 960 0
DWIDTH 10 0
BBX 10 10 0 -2
BITMAP
36c0
34c0
6ec0
6cc0
efc0
6680
6680
6680
6dc0
0000
ENDCHAR
STARTCHAR 4e51
ENCODING 20523
SWIDTH 960 0
DWIDTH 10 0
BBX 10 10 0 -2
BITMAP
3300
3680
6cc0
6b80
e000
6fc0
6d40
6fc0
6d40
0000
ENDCHAR
STARTCHAR 506b
ENCODING 20524
SWIDTH 960 0
DWIDTH 10 0
BBX 10 10 0 -2
BITMAP
3600
3780
6600
6f80
e980
6f80
6600
7fc0
6600
0000
ENDCHAR
STARTCHAR 4f41
ENCODING 20525
SWIDTH 960 0
DWIDTH 10 0
BBX 10 10 0 -2
BITMAP
3780
3600
6fc0
6e80
eac0
6fc0
6d80
6f00
6dc0
0000
ENDCHAR
STARTCHAR 3666
ENCODING 20534
SWIDTH 960 0
DWIDTH 10 0
BBX 10 10 0 -2
BITMAP
3780
3580
6f80
6d80
ef80
6d80
6fc0
6d80
68c0
0000
ENDCHAR
STARTCHAR 3770
ENCODING 20537
SWIDTH 960 0
DWIDTH 10 0
BBX 10 10 0 -2
BITMAP
3600
3500
6f80
76c0
ef80
6a80
6f80
6d00
6980
0000
ENDCHAR
STARTCHAR 5070
ENCODING 20547
SWIDTH 960 0
DWIDTH 10 0
BBX 10 10 0 -2
BITMAP
6fc0
6a80
6b80
eb00
6fc0
6a80
6b80
6ac0
6fc0
0000
ENDCHAR
STARTCHAR 5071
ENCODING 20551
SWIDTH 960 0
DWIDTH 10 0
BBX 10 10 0 -2
BITMAP
6ec0
6ac0
dec0
d800
ddc0
db40
dd40
d980
db40
0000
ENDCHAR
STARTCHAR 5075
ENCODING 20552
SWIDTH 960 0
DWIDTH 10 0
BBX 10 10 0 -2
BITMAP
3780
3580
6f80
6600
efc0
6d40
6ac0
6740
6180
0000
ENDCHAR
STARTCHAR 304e
ENCODING 20553
SWIDTH 960 0
DWIDTH 10 0
BBX 10 10 0 -2
BITMAP
3400
3f80
6d80
7fc0
ed00
6f80
6a00
7fc0
6600
0000
ENDCHAR
STARTCHAR 4a50
ENCODING 20559
SWIDTH 960 0
DWIDTH 10 0
BBX 10 10 0 -2
BITMAP
37c0
3000
6fc0
6fc0
ec00
6fc0
6d40
6fc0
6d40
0000
ENDCHAR
STARTCHAR 5074
ENCODING 20560
SWIDTH 960 0
DWIDTH 10 0
BBX 10 10 0 -2
BITMAP
6300
6fc0
c680
dfc0
db00
dac0
db80
d8c0
d780
0000
ENDCHAR
STARTCHAR 5073
ENCODING 20565
SWIDTH 960 0
DWIDTH 10 0
BBX 10 10 0 -2
BITMAP
3580
36c0
6d80
6ec0
e300
6fc0
6cc0
6cc0
6fc0
0000
ENDCHAR
STARTCHAR 5077
ENCODING 20566
SWIDTH 960 0
DWIDTH 10 0
BBX 10 10 0 -2
BITMAP
3600
3780
6700
6fc0
e6c0
6f80
6d80
6d80
6f80
0000
ENDCHAR
STARTCHAR 5076
ENCODING 20570
SWIDTH 960 0
DWIDTH 10 0
BBX 10 10 0 -2
BITMAP
3500
3500
6fc0
6d40
ed40
6f40
6a80
6e80
6340
0000
ENDCHAR
STARTCHAR 4464
ENCODING 20572
SWIDTH 960 0
DWIDTH 10 0
BBX 10 10 0 -2
BITMAP
3300
3fc0
6f80
6d80
efc0
68c0
6f80
6300
6700
0000
ENDCHAR
STARTCHAR 3772
ENCODING 20581
SWIDTH 960 0
DWIDTH 10 0
BBX 10 10 0 -2
BITMAP
6180
7dc0
cdc0
dbc0
dd80
cdc0
d580
d980
d7c0
0000
ENDCHAR
STARTCHAR 5078
ENCODING 20588
SWIDTH 960 0
DWIDTH 10 0
BBX 10 10 0 -2
BITMAP
3400
37c0
6d40
6fc0
eb40
66c0
6000
6ac0
6b40
0000
ENDCHAR
STARTCHAR 3c45
ENCODING 20594
SWIDTH 960 0
DWIDTH 10 0
BBX 10 10 0 -2
BITMAP
37c0
3540
6fc0
6d40
efc0
6000
6300
6ac0
6b40
0000
ENDCHAR
STARTCHAR 4226
ENCODING 20596
SWIDTH 960 0
DWIDTH 10 0
BBX 10 10 0 -2
BITMAP
7cc0
7540
dd40
d540
dd40
d540
dd40
c0c0
d5c0
0000
ENDCHAR
STARTCHAR 4465
ENCODING 20597
SWIDTH 960 0
DWIDTH 10 0
BBX 10 10 0 -2
BITMAP
3600
37c0
6600
6f80
ed80
6f80
6d80
6f80
68c0
0000
ENDCHAR
STARTCHAR 3676
ENCODING 20598
SWIDTH 960 0
DWIDTH 10 0
BBX 10 10 0 -2
BITMAP
3780
3580
6e80
6f80
e600
6fc0
6ac0
6b40
69c0
0000
ENDCHAR
STARTCHAR 5079
ENCODING 20600
SWIDTH 960 0
DWIDTH 10 0
BBX 10 10 0 -2
BITMAP
3700
3680
6dc0
6000
ef40
6d40
6f80
6d40
6d40
0000
ENDCHAR
STARTCHAR 3536
ENCODING 20605
SWIDTH 960 0
DWIDTH 10 0
BBX 10 10 0 -2
BITMAP
3500
3780
6680
6780
ed80
6fc0
68c0
7540
6180
0000
ENDCHAR
STARTCHAR 507a
ENCODING 20608
SWIDTH 960 0
DWIDTH 10 0
BBX 10 10 0 -2
BITMAP
3400
6f80
6a80
ef80
6a80
6fc0
6680
6ec0
6bc0
0000
ENDCHAR
STARTCHAR 507c
ENCODING 20613
SWIDTH 960 0
DWIDTH 10 0
BBX 10 10 0 -2
BITMAP
3340
37c0
6300
6fc0
ed40
6180
6fc0
6680
6180
0000
ENDCHAR
STARTCHAR 4b35
ENCODING 20621
SWIDTH 960 0
DWIDTH 10 0
BBX 10 10 0 -2
BITMAP
3600
3fc0
6d00
6fc0
eac0
6f80
6700
6d80
6b80
0000
ENDCHAR
STARTCHAR 3766
ENCODING 20625
SWIDTH 960 0
DWIDTH 10 0
BBX 10 10 0 -2
BITMAP
3680
35c0
6a80
e7c0
6d80
6300
6fc0
6d80
6b40
0000
ENDCHAR
STARTCHAR 3b31
ENCODING 20632
SWIDTH 960 0
DWIDTH 10 0
BBX 10 10 0 -2
BITMAP
0c00
3b00
edc0
6d80
d540
6d80
d540
ffc0
0c00
0000
ENDCHAR
STARTCHAR 4877
ENCODING 20633
SWIDTH 960 0
DWIDTH 10 0
BBX 10 10 0 -2
BITMAP
6d80
6fc0
cd80
dfc0
d000
d7c0
d540
d7c0
d540
0000
ENDCHAR
STARTCHAR 507b
ENCODING 20634
SWIDTH 960 0
DWIDTH 10 0
BBX 10 10 0 -2
BITMAP
3580
3e80
63c0
eb40
6340
6b40
6d80
6a80
6340
0000
ENDCHAR
STARTCHAR 3a45
ENCODING 20652
SWIDTH 960 0
DWIDTH 10 0
BBX 10 10 0 -2
BITMAP
3540
3540
6fc0
6680
efc0
6d00
6f80
6d00
6fc0
0000
ENDCHAR
STARTCHAR 4d43
ENCODING 20653
SWIDTH 960 0
DWIDTH 10 0
BBX 10 10 0 -2
BITMAP
3600
3fc0
6b00
6b80
edc0
6b80
6d40
6fc0
6d40
0000
ENDCHAR
STARTCHAR 507e
ENCODING 20658
SWIDTH 960 0
DWIDTH 10 0
BBX 10 10 0 -2
BITMAP
6980
7e80
dbc0
df40
db40
df40
da80
da80
d740
0000
ENDCHAR
STARTCHAR 5123
ENCODING 20659
SWIDTH 960 0
DWIDTH 10 0
BBX 10 10 0 -2
BITMAP
3600
3fc0
6d80
6e80
ef40
6180
6fc0
6d80
6380
0000
ENDCHAR
STARTCHAR 507d
ENCODING 20660
SWIDTH 960 0
DWIDTH 10 0
BBX 10 10 0 -2
BITMAP
3fc0
6800
6b80
ea80
6fc0
6d40
6fc0
6800
6fc0
0000
ENDCHAR
STARTCHAR 3a44
ENCODING 20661
SWIDTH 960 0
DWIDTH 10 0
BBX 10 10 0 -2
BITMAP
3600
3780
6600
6fc0
ed80
6f80
6d80
6f80
68c0
0000
ENDCHAR
STARTCHAR 3d7d
ENCODING 20663
SWIDTH 960 0
DWIDTH 10 0
BBX 10 10 0 -2
BITMAP
3400
37c0
6a80
6680
efc0
6c00
6fc0
6b40
66c0
0000
ENDCHAR
STARTCHAR 3739
ENCODING 20670
SWIDTH 960 0
DWIDTH 10 0
BBX 10 10 0 -2
BITMAP
37c0
3180
6bc0
6d40
ebc0
6b40
6dc0
6000
6340
0000
ENDCHAR
STARTCHAR 5124
ENCODING 20674
SWIDTH 960 0
DWIDTH 10 0
BBX 10 10 0 -2
BITMAP
6600
6f80
da80
dfc0
da80
dfc0
cd00
c700
ddc0
0000
ENDCHAR
STARTCHAR 364f
ENCODING 20677
SWIDTH 960 0
DWIDTH 10 0
BBX 10 10 0 -2
BITMAP
3500
3fc0
6f80
6a80
ef80
6600
6f80
6600
6fc0
0000
ENDCHAR
STARTCHAR 5121
ENCODING 20681
SWIDTH 960 0
DWIDTH 10 0
BBX 10 10 0 -2
BITMAP
0c00
3b00
eec0
0000
fbc0
dac0
fbc0
6300
dac0
0000
ENDCHAR
STARTCHAR 5122
ENCODING 20682
SWIDTH 960 0
DWIDTH 10 0
BBX 10 10 0 -2
BITMAP
6f80
6d00
df80
da80
df80
cf00
db80
d6c0
cf80
0000
ENDCHAR
STARTCHAR 462f
ENCODING 20685
SWIDTH 960 0
DWIDTH 10 0
BBX 10 10 0 -2
BITMAP
6f00
6d00
dfc0
d540
df40
d540
df40
cd40
dec0
0000
ENDCHAR
STARTCHAR 417c
ENCODING 20687
SWIDTH 960 0
DWIDTH 10 0
BBX 10 10 0 -2
BITMAP
3700
3500
6fc0
6d40
efc0
6700
6dc0
6680
6d40
0000
ENDCHAR
STARTCHAR 3623
ENCODING 20689
SWIDTH 960 0
DWIDTH 10 0
BBX 10 10 0 -2
BITMAP
3780
3600
6fc0
6d80
eb40
6000
6fc0
6b40
69c0
0000
ENDCHAR
STARTCHAR 4b4d
ENCODING 20693
SWIDTH 960 0
DWIDTH 10 0
BBX 10 10 0 -2
BITMAP
3540
3300
6fc0
6680
efc0
6300
6fc0
6680
6cc0
0000
ENDCHAR
STARTCHAR 5125
ENCODING 20694
SWIDTH 960 0
DWIDTH 10 0
BBX 10 10 0 -2
BITMAP
3600
3fc0
6f80
6d80
ef80
6700
6fc0
6d80
6f80
0000
ENDCHAR
STARTCHAR 4e3d
ENCODING 20698
SWIDTH 960 0
DWIDTH 10 0
BBX 10 10 0 -2
BITMAP
3600
3fc0
6b40
6f80
edc0
6f80
6600
6a80
6ec0
0000
ENDCHAR
STARTCHAR 5126
ENCODING 20702
SWIDTH 960 0
DWIDTH 10 0
BBX 10 10 0 -2
BITMAP
3780
3680
6f00
6d00
ef80
6d80
6fc0
68c0
6d40
0000
ENDCHAR
STARTCHAR 5129
ENCODING 20707
SWIDTH 960 0
DWIDTH 10 0
BBX 10 10 0 -2
BITMAP
3580
3dc0
6d80
6dc0
ed80
6f40
6d80
6d80
6f80
0000
ENDCHAR
STARTCHAR 5127
ENCODING 20709
SWIDTH 960 0
DWIDTH 10 0
BBX 10 10 0 -2
BITMAP
3600
3780
6fc0
6d80
efc0
6d80
6fc0
6d00
6bc0
0000
ENDCHAR
STARTCHAR 414e
ENCODING 20711
SWIDTH 960 0
DWIDTH 10 0
BBX 10 10 0 -2
BITMAP
3680
37c0
6d40
6fc0
ed40
6fc0
6680
6680
6780
0000
ENDCHAR
STARTCHAR 5128
ENCODING 20717
SWIDTH 960 0
DWIDTH 10 0
BBX 10 10 0 -2
BITMAP
3580
3d80
6fc0
6d80
eb40
6f80
6d80
6d80
6f80
0000
ENDCHAR
STARTCHAR 512a
ENCODING 20718
SWIDTH 960 0
DWIDTH 10 0
BBX 10 10 0 -2
BITMAP
3600
3fc0
6d80
6fc0
ee80
6f80
6f80
6600
6fc0
0000
ENDCHAR
STARTCHAR 512c
ENCODING 20725
SWIDTH 960 0
DWIDTH 10 0
BBX 10 10 0 -2
BITMAP
37c0
3680
6f80
6000
efc0
6e80
6f80
6000
6fc0
0000
ENDCHAR
STARTCHAR 512b
ENCODING 20729
SWIDTH 960 0
DWIDTH 10 0
BBX 10 10 0 -2
BITMAP
37c0
3680
6fc0
6fc0
e680
6780
6680
6780
6cc0
0000
ENDCHAR
STARTCHAR 4a48
ENCODING 20731
SWIDTH 960 0
DWIDTH 10 0
BBX 10 10 0 -2
BITMAP
3180
3e80
6bc0
6f40
ebc0
7e80
6a80
6fc0
6180
0000
ENDCHAR
STARTCHAR 3537
ENCODING 20736
SWIDTH 960 0
DWIDTH 10 0
BBX 10 10 0 -2
BITMAP
3680
37c0
6300
6fc0
e300
6fc0
6d40
6e80
6d40
0000
ENDCHAR
STARTCHAR 512e
ENCODING 20737
SWIDTH 960 0
DWIDTH 10 0
BBX 10 10 0 -2
BITMAP
3680
37c0
6d00
6fc0
e000
6ec0
6fc0
6cc0
6dc0
0000
ENDCHAR
STARTCHAR 512f
ENCODING 20738
SWIDTH 960 0
DWIDTH 10 0
BBX 10 10 0 -2
BITMAP
3680
37c0
6d40
6fc0
ec00
6fc0
6d40
6d80
6b40
0000
ENDCHAR
STARTCHAR 322f
ENCODING 20740
SWIDTH 960 0
DWIDTH 10 0
BBX 10 10 0 -2
BITMAP
3300
37c0
6680
6fc0
ed80
6f80
6300
6ac0
6b40
0000
ENDCHAR
STARTCHAR 512d
ENCODING 20745
SWIDTH 960 0
DWIDTH 10 0
BBX 10 10 0 -2
BITMAP
3700
3580
6b40
6000
efc0
6d40
6fc0
6680
6d40
0000
ENDCHAR
STARTCHAR 3c74
ENCODING 20754
SWIDTH 960 0
DWIDTH 10 0
BBX 10 10 0 -2
BITMAP
7fc0
6600
dfc0
d6c0
c000
dfc0
cc00
dfc0
d540
0000
ENDCHAR
STARTCHAR 5132
ENCODING 20756
SWIDTH 960 0
DWIDTH 10 0
BBX 10 10 0 -2
BITMAP
3600
3780
6fc0
60c0
ef80
6600
6fc0
6e80
6380
0000
ENDCHAR
STARTCHAR 5131
ENCODING 20757
SWIDTH 960 0
DWIDTH 10 0
BBX 10 10 0 -2
BITMAP
3600
3fc0
6e80
6b40
ed80
6f80
6d80
6f80
6980
0000
ENDCHAR
STARTCHAR 5130
ENCODING 20758
SWIDTH 960 0
DWIDTH 10 0
BBX 10 10 0 -2
BITMAP
3680
35c0
6e00
6dc0
ee00
6000
6fc0
6d40
6fc0
0000
ENDCHAR
STARTCHAR 5056
ENCODING 20760
SWIDTH 960 0
DWIDTH 10 0
BBX 10 10 0 -2
BITMAP
6600
6f80
dac0
cf80
da80
d540
df80
da80
dfc0
0000
ENDCHAR
STARTCHAR 5133
ENCODING 20762
SWIDTH 960 0
DWIDTH 10 0
BBX 10 10 0 -2
BITMAP
6d00
6fc0
da80
dfc0
d4c0
cf80
dd80
c780
de00
0000
ENDCHAR
STARTCHAR 3d7e
ENCODING 20767
SWIDTH 960 0
DWIDTH 10 0
BBX 10 10 0 -2
BITMAP
3580
3fc0
6b40
6000
ef80
6d80
6d80
6f80
68c0
0000
ENDCHAR
STARTCHAR 5134
ENCODING 20769
SWIDTH 960 0
DWIDTH 10 0
BBX 10 10 0 -2
BITMAP
3780
3680
6d80
6f80
e000
6fc0
6b40
6ec0
6fc0
0000
ENDCHAR
STARTCHAR 4d25
ENCODING 20778
SWIDTH 960 0
DWIDTH 10 0
BBX 10 10 0 -2
BITMAP
3780
3600
6f80
6d80
efc0
6b40
6d80
6700
6dc0
0000
ENDCHAR
STARTCHAR 4c59
ENCODING 20786
SWIDTH 960 0
DWIDTH 10 0
BBX 10 10 0 -2
BITMAP
6d80
63c0
dd80
c7c0
dd00
c3c0
df40
d540
ddc0
0000
ENDCHAR
STARTCHAR 5136
ENCODING 20791
SWIDTH 960 0
DWIDTH 10 0
BBX 10 10 0 -2
BITMAP
6ec0
6000
dec0
c300
dfc0
da80
dfc0
dd80
d6c0
0000
ENDCHAR
STARTCHAR 5135
ENCODING 20794
SWIDTH 960 0
DWIDTH 10 0
BBX 10 10 0 -2
BITMAP
3540
6e80
efc0
6a80
6fc0
6680
6fc0
6e80
6bc0
0000
ENDCHAR
STARTCHAR 5138
ENCODING 20795
SWIDTH 960 0
DWIDTH 10 0
BBX 10 10 0 -2
BITMAP
6a80
7fc0
d540
df80
da80
df80
c600
dfc0
d540
0000
ENDCHAR
STARTCHAR 5137
ENCODING 20796
SWIDTH 960 0
DWIDTH 10 0
BBX 10 10 0 -2
BITMAP
6ec0
6ac0
dec0
c300
dfc0
d9c0
df40
da80
d540
0000
ENDCHAR
STARTCHAR 5139
ENCODING 20799
SWIDTH 960 0
DWIDTH 10 0
BBX 10 10 0 -2
BITMAP
3600
3600
3600
3600
3600
3600
6600
66c0
c7c0
0000
ENDCHAR
STARTCHAR 513a
ENCODING 20800
SWIDTH 960 0
DWIDTH 10 0
BBX 10 10 0 -2
BITMAP
0000
ffc0
3600
3600
3600
3600
6600
66c0
c7c0
0000
ENDCHAR
STARTCHAR 3074
ENCODING 20801
SWIDTH 960 0
DWIDTH 10 0
BBX 10 10 0 -2
BITMAP
1800
1800
3300
ff80
3680
3600
3600
66c0
c7c0
0000
ENDCHAR
STARTCHAR 3835
ENCODING 20803
SWIDTH 960 0
DWIDTH 10 0
BBX 10 10 0 -2
BITMAP
7f80
0000
0000
ffc0
1a00
1a00
3600
66c0
c7c0
0000
ENDCHAR
STARTCHAR 373b
ENCODING 20804
SWIDTH 960 0
DWIDTH 10 0
BBX 10 10 0 -2
BITMAP
7f80
6180
6180
6180
7f80
1a00
1a00
36c0
e7c0
0000
ENDCHAR
STARTCHAR 3d3c
ENCODING 20805
SWIDTH 960 0
DWIDTH 10 0
BBX 10 10 0 -2
BITMAP
0c00
ffc0
1800
3300
ff80
1ac0
1a00
36c0
e7c0
0000
ENDCHAR
STARTCHAR 437b
ENCODING 20806
SWIDTH 960 0
DWIDTH 10 0
BBX 10 10 0 -2
BITMAP
1a00
6a80
3b00
1a00
3b00
6a80
1a00
36c0
e7c0
0000
ENDCHAR
STARTCHAR 3624
ENCODING 20807
SWIDTH 960 0
DWIDTH 10 0
BBX 10 10 0 -2
BITMAP
6180
6a80
6d80
6a80
6180
7f80
1a00
36c0
e7c0
0000
ENDCHAR
STARTCHAR 4068
ENCODING 20808
SWIDTH 960 0
DWIDTH 10 0
BBX 10 10 0 -2
BITMAP
0c00
3400
7f80
0c00
ffc0
1a00
1a00
36c0
e7c0
0000
ENDCHAR
STARTCHAR 3877
ENCODING 20809
SWIDTH 960 0
DWIDTH 10 0
BBX 10 10 0 -2
BITMAP
0c00
6d80
3500
ffc0
1a00
1a00
3600
66c0
c7c0
0000
ENDCHAR
STARTCHAR 396e
ENCODING 20811
SWIDTH 960 0
DWIDTH 10 0
BBX 10 10 0 -2
BITMAP
0c00
ffc0
0c00
3f00
3300
3f00
1a00
36c0
e7c0
0000
ENDCHAR
STARTCHAR 513c
ENCODING 20812
SWIDTH 960 0
DWIDTH 10 0
BBX 10 10 0 -2
BITMAP
3300
6180
df40
3300
3300
3f00
1a00
36c0
e7c0
0000
ENDCHAR
STARTCHAR 4c48
ENCODING 20813
SWIDTH 960 0
DWIDTH 10 0
BBX 10 10 0 -2
BITMAP
3e00
6600
cc00
7f80
6d80
7f80
1a00
36c0
e7c0
0000
ENDCHAR
STARTCHAR 4546
ENCODING 20814
SWIDTH 960 0
DWIDTH 10 0
BBX 10 10 0 -2
BITMAP
0700
7c00
0c00
7f80
6d80
7f80
1a00
3680
e7c0
0000
ENDCHAR
STARTCHAR 3b79
ENCODING 20816
SWIDTH 960 0
DWIDTH 10 0
BBX 10 10 0 -2
BITMAP
6f00
6b00
6f00
6b00
6f00
3600
3600
66c0
c7c0
0000
ENDCHAR
STARTCHAR 513b
ENCODING 20818
SWIDTH 960 0
DWIDTH 10 0
BBX 10 10 0 -2
BITMAP
1800
7780
6180
7b80
6180
7f80
1a00
36c0
e7c0
0000
ENDCHAR
STARTCHAR 513d
ENCODING 20820
SWIDTH 960 0
DWIDTH 10 0
BBX 10 10 0 -2
BITMAP
3e00
6600
ff80
6d80
7f80
1b00
1a80
36c0
e7c0
0000
ENDCHAR
STARTCHAR 455e
ENCODING 20826
SWIDTH 960 0
DWIDTH 10 0
BBX 10 10 0 -2
BITMAP
6d80
3500
ffc0
c0c0
3f00
3300
3f00
1ac0
f7c0
0000
ENDCHAR
STARTCHAR 3375
ENCODING 20828
SWIDTH 960 0
DWIDTH 10 0
BBX 10 10 0 -2
BITMAP
0c00
6ec0
dac0
dec0
dac0
eec0
0000
36c0
e7c0
0000
ENDCHAR
STARTCHAR 513e
ENCODING 20834
SWIDTH 960 0
DWIDTH 10 0
BBX 10 10 0 -2
BITMAP
6300
f7c0
6300
f7c0
d6c0
f7c0
6380
d680
cdc0
0000
ENDCHAR
STARTCHAR 467e
ENCODING 20837
SWIDTH 960 0
DWIDTH 10 0
BBX 10 10 0 -2
BITMAP
7c00
0c00
0c00
1a00
1a00
3300
3300
6180
c0c0
0000
ENDCHAR
STARTCHAR 4134
ENCODING 20840
SWIDTH 960 0
DWIDTH 10 0
BBX 10 10 0 -2
BITMAP
0c00
1a00
3300
e1c0
3f00
0c00
3f00
0c00
7f80
0000
ENDCHAR
STARTCHAR 5140
ENCODING 20841
SWIDTH 960 0
DWIDTH 10 0
BBX 10 10 0 -2
BITMAP
ffc0
0c00
ffc0
ccc0
f740
d540
eec0
ccc0
cdc0
0000
ENDCHAR
STARTCHAR 5141
ENCODING 20842
SWIDTH 960 0
DWIDTH 10 0
BBX 10 10 0 -2
BITMAP
7e00
3300
eec0
0000
fb40
db40
ea80
db40
db40
0000
ENDCHAR
STARTCHAR 482c
ENCODING 20843
SWIDTH 960 0
DWIDTH 10 0
BBX 10 10 0 -2
BITMAP
0600
3600
3600
3300
3300
6300
6180
6180
c0c0
0000
ENDCHAR
STARTCHAR 3878
ENCODING 20844
SWIDTH 960 0
DWIDTH 10 0
BBX 10 10 0 -2
BITMAP
0e00
3300
3300
6d80
ccc0
1800
1b00
3780
7d80
0000
ENDCHAR
STARTCHAR 4f3b
ENCODING 20845
SWIDTH 960 0
DWIDTH 10 0
BBX 10 10 0 -2
BITMAP
0c00
0c00
ffc0
0000
3300
3300
6180
6180
c0c0
0000
ENDCHAR
STARTCHAR 5142
ENCODING 20846
SWIDTH 960 0
DWIDTH 10 0
BBX 10 10 0 -2
BITMAP
3700
3300
6180
df40
1800
1f00
3300
0300
0e00
0000
ENDCHAR
STARTCHAR 3626
ENCODING 20849
SWIDTH 960 0
DWIDTH 10 0
BBX 10 10 0 -2
BITMAP
3300
3300
7f80
3300
3300
ffc0
0000
3300
e1c0
0000
ENDCHAR
STARTCHAR 4a3c
ENCODING 20853
SWIDTH 960 0
DWIDTH 10 0
BBX 10 10 0 -2
BITMAP
0700
3c00
3000
3f80
3600
3600
ffc0
3300
6180
0000
ENDCHAR
STARTCHAR 4236
ENCODING 20854
SWIDTH 960 0
DWIDTH 10 0
BBX 10 10 0 -2
BITMAP
3300
7f80
3300
3f00
3300
3300
ffc0
6180
c0c0
0000
ENDCHAR
STARTCHAR 3671
ENCODING 20855
SWIDTH 960 0
DWIDTH 10 0
BBX 10 10 0 -2
BITMAP
7f00
6300
7f00
6300
7f00
6300
ff80
6300
c180
0000
ENDCHAR
STARTCHAR 4535
ENCODING 20856
SWIDTH 960 0
DWIDTH 10 0
BBX 10 10 0 -2
BITMAP
1a00
1a00
7f80
6a80
7f80
6a80
ffc0
3300
e1c0
0000
ENDCHAR
STARTCHAR 3773
ENCODING 20860
SWIDTH 960 0
DWIDTH 10 0
BBX 10 10 0 -2
BITMAP
3300
ffc0
1a00
7f80
dac0
7f80
1a00
3b00
eac0
0000
ENDCHAR
STARTCHAR 5143
ENCODING 20864
SWIDTH 960 0
DWIDTH 10 0
BBX 10 10 0 -2
BITMAP
1ac0
fb80
1a00
ffc0
3500
7f80
1a00
ffc0
6180
0000
ENDCHAR
STARTCHAR 5144
ENCODING 20866
SWIDTH 960 0
DWIDTH 10 0
BBX 10 10 0 -2
BITMAP
ffc0
c0c0
c0c0
c0c0
c0c0
c0c0
c0c0
c0c0
c1c0
0000
ENDCHAR
STARTCHAR 4662
ENCODING 20869
SWIDTH 960 0
DWIDTH 10 0
BBX 10 10 0 -2
BITMAP
0c00
0c00
ffc0
ccc0
dac0
d340
e1c0
c0c0
c1c0
0000
ENDCHAR
STARTCHAR 315f
ENCODING 20870
SWIDTH 960 0
DWIDTH 10 0
BBX 10 10 0 -2
BITMAP
ffc0
ccc0
ccc0
ccc0
ffc0
c0c0
c0c0
c0c0
c1c0
0000
ENDCHAR
STARTCHAR 5147
ENCODING 20873
SWIDTH 960 0
DWIDTH 10 0
BBX 10 10 0 -2
BITMAP
0c00
7f80
6d80
7f80
6d80
ffc0
6180
6180
6380
0000
ENDCHAR
STARTCHAR 3a7d
ENCODING 20874
SWIDTH 960 0
DWIDTH 10 0
BBX 10 10 0 -2
BITMAP
7f80
6a80
6a80
6a80
ffc0
6a80
6a80
6a80
6380
0000
ENDCHAR
STARTCHAR 5146
ENCODING 20876
SWIDTH 960 0
DWIDTH 10 0
BBX 10 10 0 -2
BITMAP
7b80
6a80
6a80
6a80
ffc0
6a80
6a80
6a80
d580
0000
ENDCHAR
STARTCHAR 3a46
ENCODING 20877
SWIDTH 960 0
DWIDTH 10 0
BBX 10 10 0 -2
BITMAP
ffc0
0c00
7f80
6d80
7f80
6d80
ffc0
6180
6380
0000
ENDCHAR
STARTCHAR 5148
ENCODING 20879
SWIDTH 960 0
DWIDTH 10 0
BBX 10 10 0 -2
BITMAP
ffc0
dac0
d6c0
e740
c0c0
df40
d340
df40
c1c0
0000
ENDCHAR
STARTCHAR 666e
ENCODING 20880
SWIDTH 960 0
DWIDTH 10 0
BBX 10 10 0 -2
BITMAP
ff80
c180
de80
0000
7f00
6300
7f00
6300
6700
0000
ENDCHAR
STARTCHAR 5149
ENCODING 20881
SWIDTH 960 0
DWIDTH 10 0
BBX 10 10 0 -2
BITMAP
0c00
ffc0
ccc0
ffc0
0000
7f80
6180
6e80
6380
0000
ENDCHAR
STARTCHAR 4b41
ENCODING 20882
SWIDTH 960 0
DWIDTH 10 0
BBX 10 10 0 -2
BITMAP
ffc0
c0c0
ffc0
0000
7f80
6180
7f80
6180
7f80
0000
ENDCHAR
STARTCHAR 514a
ENCODING 20883
SWIDTH 960 0
DWIDTH 10 0
BBX 10 10 0 -2
BITMAP
3300
7f80
3300
ffc0
0c00
3f00
3500
ffc0
3300
0000
ENDCHAR
STARTCHAR 514b
ENCODING 20885
SWIDTH 960 0
DWIDTH 10 0
BBX 10 10 0 -2
BITMAP
ffc0
c0c0
3f00
6c00
ff80
6d80
7f80
1ac0
f7c0
0000
ENDCHAR
STARTCHAR 514c
ENCODING 20886
SWIDTH 960 0
DWIDTH 10 0
BBX 10 10 0 -2
BITMAP
0000
0000
0000
ffc0
c0c0
c0c0
0000
0000
0000
0000
ENDCHAR
STARTCHAR 3e69
ENCODING 20887
SWIDTH 960 0
DWIDTH 10 0
BBX 10 10 0 -2
BITMAP
ffc0
c0c0
3e00
3600
3600
3600
3600
66c0
c7c0
0000
ENDCHAR
STARTCHAR 3c4c
ENCODING 20889
SWIDTH 960 0
DWIDTH 10 0
BBX 10 10 0 -2
BITMAP
ffc0
d8c0
1f00
3000
3f00
0300
ffc0
0300
0e00
0000
ENDCHAR
STARTCHAR 3427
ENCODING 20896
SWIDTH 960 0
DWIDTH 10 0
BBX 10 10 0 -2
BITMAP
ffc0
c0c0
7980
07c0
fd80
6a80
6b80
68c0
dfc0
0000
ENDCHAR
STARTCHAR 514f
ENCODING 20898
SWIDTH 960 0
DWIDTH 10 0
BBX 10 10 0 -2
BITMAP
ffc0
c0c0
7f00
1c00
f6c0
6a80
3b00
eec0
1c00
0000
ENDCHAR
STARTCHAR 514d
ENCODING 20900
SWIDTH 960 0
DWIDTH 10 0
BBX 10 10 0 -2
BITMAP
ffc0
dec0
6600
ff80
6d80
7f80
0d00
3d80
efc0
0000
ENDCHAR
STARTCHAR 4c3d
ENCODING 20901
SWIDTH 960 0
DWIDTH 10 0
BBX 10 10 0 -2
BITMAP
ffc0
d340
3f00
3300
3f00
0c00
ffc0
3300
6180
0000
ENDCHAR
STARTCHAR 514e
ENCODING 20902
SWIDTH 960 0
DWIDTH 10 0
BBX 10 10 0 -2
BITMAP
ffc0
c0c0
7b80
0300
ff80
6a80
6b00
6a80
cfc0
0000
ENDCHAR
STARTCHAR 495a
ENCODING 20904
SWIDTH 960 0
DWIDTH 10 0
BBX 10 10 0 -2
BITMAP
ffc0
c0c0
7f80
3300
7f80
6d80
7f80
6d80
7f80
0000
ENDCHAR
STARTCHAR 5150
ENCODING 20905
SWIDTH 960 0
DWIDTH 10 0
BBX 10 10 0 -2
BITMAP
ffc0
d8c0
7780
6180
7b80
6180
7fc0
60c0
d540
0000
ENDCHAR
STARTCHAR 5151
ENCODING 20906
SWIDTH 960 0
DWIDTH 10 0
BBX 10 10 0 -2
BITMAP
ffc0
dac0
7f80
3300
ffc0
6d80
df40
3500
3500
0000
ENDCHAR
STARTCHAR 5152
ENCODING 20907
SWIDTH 960 0
DWIDTH 10 0
BBX 10 10 0 -2
BITMAP
0000
3000
1800
0000
0600
0c00
0c00
1800
3000
0000
ENDCHAR
STARTCHAR 455f
ENCODING 20908
SWIDTH 960 0
DWIDTH 10 0
BBX 10 10 0 -2
BITMAP
1f00
3300
ea00
0c00
3b00
edc0
0600
1c00
0600
0000
ENDCHAR
STARTCHAR 5156
ENCODING 20912
SWIDTH 960 0
DWIDTH 10 0
BBX 10 10 0 -2
BITMAP
0300
c300
6340
1f80
0700
6d80
6d80
db40
c700
0000
ENDCHAR
STARTCHAR 5154
ENCODING 20913
SWIDTH 960 0
DWIDTH 10 0
BBX 10 10 0 -2
BITMAP
0000
dfc0
6600
0f80
0d80
6d80
6f00
c300
dfc0
0000
ENDCHAR
STARTCHAR 5155
ENCODING 20914
SWIDTH 960 0
DWIDTH 10 0
BBX 10 10 0 -2
BITMAP
0600
c600
6f80
1a80
1a80
6f80
6600
c600
c600
0000
ENDCHAR
STARTCHAR 5153
ENCODING 20915
SWIDTH 960 0
DWIDTH 10 0
BBX 10 10 0 -2
BITMAP
0600
c600
6f80
0680
1fc0
6600
6600
cd00
d9c0
0000
ENDCHAR
STARTCHAR 3a63
ENCODING 20916
SWIDTH 960 0
DWIDTH 10 0
BBX 10 10 0 -2
BITMAP
df80
6d00
0d00
3fc0
0700
0d00
6d00
db00
d700
0000
ENDCHAR
STARTCHAR 5157
ENCODING 20917
SWIDTH 960 0
DWIDTH 10 0
BBX 10 10 0 -2
BITMAP
0000
df80
6980
1980
1f80
6d00
6d00
db40
d3c0
0000
ENDCHAR
STARTCHAR 4c6a
ENCODING 20918
SWIDTH 960 0
DWIDTH 10 0
BBX 10 10 0 -2
BITMAP
0600
cc00
6980
1f40
0000
6f80
6980
d980
df80
0000
ENDCHAR
STARTCHAR 4e64
ENCODING 20919
SWIDTH 960 0
DWIDTH 10 0
BBX 10 10 0 -2
BITMAP
0700
cd80
6b40
0000
1f80
6680
6680
c780
c600
0000
ENDCHAR
STARTCHAR 5158
ENCODING 20925
SWIDTH 960 0
DWIDTH 10 0
BBX 10 10 0 -2
BITMAP
bec0
db40
1f40
1b40
1b40
d740
cd40
d8c0
b1c0
0000
ENDCHAR
STARTCHAR 4028
ENCODING 20932
SWIDTH 960 0
DWIDTH 10 0
BBX 10 10 0 -2
BITMAP
0600
df80
d6c0
1f80
0600
6fc0
6d80
c780
dcc0
0000
ENDCHAR
STARTCHAR 5159
ENCODING 20933
SWIDTH 960 0
DWIDTH 10 0
BBX 10 10 0 -2
BITMAP
bfc0
d6c0
3fc0
36c0
3740
d540
d740
d0c0
bfc0
0000
ENDCHAR
STARTCHAR 3d5a
ENCODING 20934
SWIDTH 960 0
DWIDTH 10 0
BBX 10 10 0 -2
BITMAP
0680
cd00
6fc0
0d00
0f80
6d00
6f80
cd00
cfc0
0000
ENDCHAR
STARTCHAR 515a
ENCODING 20937
SWIDTH 960 0
DWIDTH 10 0
BBX 10 10 0 -2
BITMAP
c600
dfc0
0000
1f80
1980
6f80
6600
da80
d6c0
0000
ENDCHAR
STARTCHAR 437c
ENCODING 20939
SWIDTH 960 0
DWIDTH 10 0
BBX 10 10 0 -2
BITMAP
dfc0
6ac0
1f40
1ac0
1f40
68c0
6f40
dd40
d740
0000
ENDCHAR
STARTCHAR 4e3f
ENCODING 20940
SWIDTH 960 0
DWIDTH 10 0
BBX 10 10 0 -2
BITMAP
0600
cf80
6600
1fc0
0d00
6bc0
6d80
c700
ddc0
0000
ENDCHAR
STARTCHAR 4560
ENCODING 20941
SWIDTH 960 0
DWIDTH 10 0
BBX 10 10 0 -2
BITMAP
0600
dfc0
6a80
1f80
1a80
6f80
6f00
da80
d6c0
0000
ENDCHAR
STARTCHAR 5245
ENCODING 20950
SWIDTH 960 0
DWIDTH 10 0
BBX 10 10 0 -2
BITMAP
c680
6fc0
1d00
6d00
cfc0
0000
0c00
ffc0
0c00
0000
ENDCHAR
STARTCHAR 515b
ENCODING 20955
SWIDTH 960 0
DWIDTH 10 0
BBX 10 10 0 -2
BITMAP
0600
bfc0
da80
1980
1f80
0000
dfc0
da80
b6c0
0000
ENDCHAR
STARTCHAR 3645
ENCODING 20957
SWIDTH 960 0
DWIDTH 10 0
BBX 10 10 0 -2
BITMAP
dbc0
6ec0
1980
0dc0
0ec0
6d80
6ec0
cd80
db40
0000
ENDCHAR
STARTCHAR 515c
ENCODING 20960
SWIDTH 960 0
DWIDTH 10 0
BBX 10 10 0 -2
BITMAP
0000
3e00
3600
3600
3600
3600
3600
66c0
c7c0
0000
ENDCHAR
STARTCHAR 4b5e
ENCODING 20961
SWIDTH 960 0
DWIDTH 10 0
BBX 10 10 0 -2
BITMAP
7f00
6300
6300
6b00
6d00
6300
6300
c340
c3c0
0000
ENDCHAR
STARTCHAR 3d68
ENCODING 20966
SWIDTH 960 0
DWIDTH 10 0
BBX 10 10 0 -2
BITMAP
6000
7b80
6a80
6a80
ea80
3680
35c0
6800
cfc0
0000
ENDCHAR
STARTCHAR 427c
ENCODING 20967
SWIDTH 960 0
DWIDTH 10 0
BBX 10 10 0 -2
BITMAP
ffc0
c0c0
ccc0
df40
d540
d540
d540
d540
ccc0
0000
ENDCHAR
STARTCHAR 515e
ENCODING 20969
SWIDTH 960 0
DWIDTH 10 0
BBX 10 10 0 -2
BITMAP
7f80
6180
6d80
7f80
6d80
6e80
7580
cd80
c0c0
0000
ENDCHAR
STARTCHAR 4664
ENCODING 20970
SWIDTH 960 0
DWIDTH 10 0
BBX 10 10 0 -2
BITMAP
7f80
6180
6680
6680
6b80
6a80
6a80
df40
c0c0
0000
ENDCHAR
STARTCHAR 515f
ENCODING 20973
SWIDTH 960 0
DWIDTH 10 0
BBX 10 10 0 -2
BITMAP
3780
6600
efc0
6600
6f80
0000
3e00
36c0
e7c0
0000
ENDCHAR
STARTCHAR 5160
ENCODING 20976
SWIDTH 960 0
DWIDTH 10 0
BBX 10 10 0 -2
BITMAP
ff80
d980
de80
d680
de80
c180
de80
d980
dec0
0000
ENDCHAR
STARTCHAR 332e
ENCODING 20977
SWIDTH 960 0
DWIDTH 10 0
BBX 10 10 0 -2
BITMAP
db80
da80
fa80
0680
fa80
da80
fa80
7680
fac0
0000
ENDCHAR
STARTCHAR 5161
ENCODING 20981
SWIDTH 960 0
DWIDTH 10 0
BBX 10 10 0 -2
BITMAP
0000
c180
c180
c180
c180
c180
c180
c180
ff80
0000
ENDCHAR
STARTCHAR 3627
ENCODING 20982
SWIDTH 960 0
DWIDTH 10 0
BBX 10 10 0 -2
BITMAP
0000
c340
d340
dac0
ccc0
dac0
d340
c0c0
ffc0
0000
ENDCHAR
STARTCHAR 464c
ENCODING 20984
SWIDTH 960 0
DWIDTH 10 0
BBX 10 10 0 -2
BITMAP
3f00
3300
3300
f3c0
c0c0
c0c0
c0c0
c0c0
ffc0
0000
ENDCHAR
STARTCHAR 317a
ENCODING 20985
SWIDTH 960 0
DWIDTH 10 0
BBX 10 10 0 -2
BITMAP
fbc0
dac0
dac0
dac0
dec0
c0c0
c0c0
c0c0
ffc0
0000
ENDCHAR
STARTCHAR 3d50
ENCODING 20986
SWIDTH 960 0
DWIDTH 10 0
BBX 10 10 0 -2
BITMAP
0c00
6d80
6d80
7f80
0c00
0c00
ccc0
ccc0
ffc0
0000
ENDCHAR
STARTCHAR 4821
ENCODING 20989
SWIDTH 960 0
DWIDTH 10 0
BBX 10 10 0 -2
BITMAP
ffc0
1800
dcc0
d540
ccc0
dec0
d540
dcc0
ffc0
0000
ENDCHAR
STARTCHAR 5162
ENCODING 20990
SWIDTH 960 0
DWIDTH 10 0
BBX 10 10 0 -2
BITMAP
3f00
0600
ccc0
f7c0
d5c0
d540
f6c0
dcc0
ffc0
0000
ENDCHAR
STARTCHAR 4561
ENCODING 20992
SWIDTH 960 0
DWIDTH 10 0
BBX 10 10 0 -2
BITMAP
0000
ff80
1980
1980
1980
3180
3180
6180
c700
0000
ENDCHAR
STARTCHAR 3f4f
ENCODING 20995
SWIDTH 960 0
DWIDTH 10 0
BBX 10 10 0 -2
BITMAP
0000
ff80
1980
d980
6980
3180
3980
6180
c700
0000
ENDCHAR
STARTCHAR 5163
ENCODING 20996
SWIDTH 960 0
DWIDTH 10 0
BBX 10 10 0 -2
BITMAP
0000
ff00
1b00
db00
6b00
3b00
37c0
6300
cf00
0000
ENDCHAR
STARTCHAR 4a2c
ENCODING 20998
SWIDTH 960 0
DWIDTH 10 0
BBX 10 10 0 -2
BITMAP
1a00
3300
6180
c0c0
7f00
1b00
1b00
3300
6700
0000
ENDCHAR
STARTCHAR 405a
ENCODING 20999
SWIDTH 960 0
DWIDTH 10 0
BBX 10 10 0 -2
BITMAP
0000
6fc0
66c0
fac0
66c0
66c0
6ac0
76c0
0dc0
0000
ENDCHAR
STARTCHAR 3422
ENCODING 21000
SWIDTH 960 0
DWIDTH 10 0
BBX 10 10 0 -2
BITMAP
18c0
1ac0
dac0
76c0
36c0
36c0
68c0
68c0
c1c0
0000
ENDCHAR
STARTCHAR 3429
ENCODING 21002
SWIDTH 960 0
DWIDTH 10 0
BBX 10 10 0 -2
BITMAP
00c0
fd40
3340
3340
fd40
3340
3340
30c0
31c0
0000
ENDCHAR
STARTCHAR 5164
ENCODING 21003
SWIDTH 960 0
DWIDTH 10 0
BBX 10 10 0 -2
BITMAP
18c0
f6c0
36c0
fac0
36c0
36c0
36c0
60c0
c1c0
0000
ENDCHAR
STARTCHAR 5166
ENCODING 21006
SWIDTH 960 0
DWIDTH 10 0
BBX 10 10 0 -2
BITMAP
c0c0
c340
fd40
d540
d540
d540
b540
6cc0
1dc0
0000
ENDCHAR
STARTCHAR 373a
ENCODING 21009
SWIDTH 960 0
DWIDTH 10 0
BBX 10 10 0 -2
BITMAP
fcc0
6b40
6b40
fd40
6b40
6b40
68c0
68c0
69c0
0000
ENDCHAR
STARTCHAR 5165
ENCODING 21012
SWIDTH 960 0
DWIDTH 10 0
BBX 10 10 0 -2
BITMAP
30c0
3340
fd40
3540
ff40
3340
38c0
6cc0
c1c0
0000
ENDCHAR
STARTCHAR 4e73
ENCODING 21015
SWIDTH 960 0
DWIDTH 10 0
BBX 10 10 0 -2
BITMAP
fcc0
66c0
7ac0
6ac0
7ac0
dac0
18c0
30c0
61c0
0000
ENDCHAR
STARTCHAR 3d69
ENCODING 21021
SWIDTH 960 0
DWIDTH 10 0
BBX 10 10 0 -2
BITMAP
6000
6fc0
fb40
3340
6b40
7340
eac0
66c0
6dc0
0000
ENDCHAR
STARTCHAR 483d
ENCODING 21028
SWIDTH 960 0
DWIDTH 10 0
BBX 10 10 0 -2
BITMAP
d4c0
d540
3340
fd40
3340
fd40
30c0
30c0
31c0
0000
ENDCHAR
STARTCHAR 4a4c
ENCODING 21029
SWIDTH 960 0
DWIDTH 10 0
BBX 10 10 0 -2
BITMAP
f8c0
dac0
fac0
66c0
66c0
7ac0
6ac0
d8c0
d9c0
0000
ENDCHAR
STARTCHAR 5167
ENCODING 21031
SWIDTH 960 0
DWIDTH 10 0
BBX 10 10 0 -2
BITMAP
3000
37c0
fd40
3340
fd40
3340
6b40
fac0
0dc0
0000
ENDCHAR
STARTCHAR 4d78
ENCODING 21033
SWIDTH 960 0
DWIDTH 10 0
BBX 10 10 0 -2
BITMAP
3cc0
f340
3340
fd40
3340
7b40
74c0
d0c0
31c0
0000
ENDCHAR
STARTCHAR 5168
ENCODING 21034
SWIDTH 960 0
DWIDTH 10 0
BBX 10 10 0 -2
BITMAP
fcc0
d540
d540
ff40
d540
d540
d540
d4c0
cdc0
0000
ENDCHAR
STARTCHAR 5169
ENCODING 21038
SWIDTH 960 0
DWIDTH 10 0
BBX 10 10 0 -2
BITMAP
1cc0
f340
3340
ff40
3340
3340
fd40
ccc0
fdc0
0000
ENDCHAR
STARTCHAR 457e
ENCODING 21040
SWIDTH 960 0
DWIDTH 10 0
BBX 10 10 0 -2
BITMAP
fcc0
3340
6d40
fd40
0340
3340
fd40
30c0
fdc0
0000
ENDCHAR
STARTCHAR 516a
ENCODING 21043
SWIDTH 960 0
DWIDTH 10 0
BBX 10 10 0 -2
BITMAP
30c0
fd40
6b40
f540
0340
ff40
6340
7cc0
19c0
0000
ENDCHAR
STARTCHAR 4029
ENCODING 21046
SWIDTH 960 0
DWIDTH 10 0
BBX 10 10 0 -2
BITMAP
d0c0
fd40
3340
fd40
3340
fd40
d540
d4c0
31c0
0000
ENDCHAR
STARTCHAR 3a7e
ENCODING 21047
SWIDTH 960 0
DWIDTH 10 0
BBX 10 10 0 -2
BITMAP
fcc0
cd40
fd40
d340
fd40
d540
d540
d4c0
31c0
0000
ENDCHAR
STARTCHAR 3774
ENCODING 21048
SWIDTH 960 0
DWIDTH 10 0
BBX 10 10 0 -2
BITMAP
6d80
3500
7f80
1a00
ffc0
6180
df40
1b00
7700
0000
ENDCHAR
STARTCHAR 516b
ENCODING 21049
SWIDTH 960 0
DWIDTH 10 0
BBX 10 10 0 -2
BITMAP
6cc0
3b40
3540
e340
3340
fd40
78c0
d4c0
31c0
0000
ENDCHAR
STARTCHAR 3b49
ENCODING 21050
SWIDTH 960 0
DWIDTH 10 0
BBX 10 10 0 -2
BITMAP
30c0
fd40
3340
fd40
d540
d540
7b40
d4c0
31c0
0000
ENDCHAR
STARTCHAR 396f
ENCODING 21051
SWIDTH 960 0
DWIDTH 10 0
BBX 10 10 0 -2
BITMAP
30c0
fd40
3340
6d40
3b40
3340
ed40
18c0
f5c0
0000
ENDCHAR
STARTCHAR 4466
ENCODING 21059
SWIDTH 960 0
DWIDTH 10 0
BBX 10 10 0 -2
BITMAP
ccc0
6b40
fd40
3540
fd40
d340
fd40
74c0
d5c0
0000
ENDCHAR
STARTCHAR 516d
ENCODING 21060
SWIDTH 960 0
DWIDTH 10 0
BBX 10 10 0 -2
BITMAP
fcc0
0340
6d40
db40
6d40
0340
fd40
30c0
fdc0
0000
ENDCHAR
STARTCHAR 4227
ENCODING 21063
SWIDTH 960 0
DWIDTH 10 0
BBX 10 10 0 -2
BITMAP
f8c0
dac0
fac0
dac0
fac0
dac0
fac0
30c0
d9c0
0000
ENDCHAR
STARTCHAR 3a6f
ENCODING 21066
SWIDTH 960 0
DWIDTH 10 0
BBX 10 10 0 -2
BITMAP
d4c0
3340
fd40
cd40
fd40
cd40
fd40
ccc0
ddc0
0000
ENDCHAR
STARTCHAR 516e
ENCODING 21067
SWIDTH 960 0
DWIDTH 10 0
BBX 10 10 0 -2
BITMAP
30c0
fd40
3340
fd40
cd40
fcc0
69c0
6800
cfc0
0000
ENDCHAR
STARTCHAR 516f
ENCODING 21068
SWIDTH 960 0
DWIDTH 10 0
BBX 10 10 0 -2
BITMAP
30c0
fd40
3340
fd40
d540
fd40
3340
78c0
d5c0
0000
ENDCHAR
STARTCHAR 4130
ENCODING 21069
SWIDTH 960 0
DWIDTH 10 0
BBX 10 10 0 -2
BITMAP
3300
ffc0
0000
7980
6a80
7a80
6a80
7980
6b80
0000
ENDCHAR
STARTCHAR 516c
ENCODING 21071
SWIDTH 960 0
DWIDTH 10 0
BBX 10 10 0 -2
BITMAP
9800
d780
fa80
d680
fa80
d780
d6c0
d580
d580
0000
ENDCHAR
STARTCHAR 5171
ENCODING 21076
SWIDTH 960 0
DWIDTH 10 0
BBX 10 10 0 -2
BITMAP
fcc0
cd40
fd40
cd40
fd40
6340
fd40
acc0
d5c0
0000
ENDCHAR
STARTCHAR 4b36
ENCODING 21078
SWIDTH 960 0
DWIDTH 10 0
BBX 10 10 0 -2
BITMAP
30c0
fd40
6b40
ff40
0340
7d40
6d40
6cc0
7dc0
0000
ENDCHAR
STARTCHAR 3964
ENCODING 21083
SWIDTH 960 0
DWIDTH 10 0
BBX 10 10 0 -2
BITMAP
fcc0
cd40
ed40
fd40
d540
d540
d4c0
fcc0
cdc0
0000
ENDCHAR
STARTCHAR 5170
ENCODING 21086
SWIDTH 960 0
DWIDTH 10 0
BBX 10 10 0 -2
BITMAP
30c0
fd40
6b40
cd40
fd40
1b40
eb40
e8c0
39c0
0000
ENDCHAR
STARTCHAR 3775
ENCODING 21091
SWIDTH 960 0
DWIDTH 10 0
BBX 10 10 0 -2
BITMAP
30c0
6b40
fd40
3340
fd40
d540
fd40
68c0
cdc0
0000
ENDCHAR
STARTCHAR 3a5e
ENCODING 21092
SWIDTH 960 0
DWIDTH 10 0
BBX 10 10 0 -2
BITMAP
30c0
fd40
6b40
3340
ed40
7b40
6b40
78c0
d9c0
0000
ENDCHAR
STARTCHAR 476d
ENCODING 21093
SWIDTH 960 0
DWIDTH 10 0
BBX 10 10 0 -2
BITMAP
f8c0
1b40
fb40
1b40
fd40
3340
d540
78c0
d5c0
0000
ENDCHAR
STARTCHAR 5174
ENCODING 21097
SWIDTH 960 0
DWIDTH 10 0
BBX 10 10 0 -2
BITMAP
7cc0
3340
ff40
3540
d540
d740
3340
78c0
d5c0
0000
ENDCHAR
STARTCHAR 5172
ENCODING 21098
SWIDTH 960 0
DWIDTH 10 0
BBX 10 10 0 -2
BITMAP
3300
ffc0
6a80
7a80
6980
0000
ffc0
38c0
e380
0000
ENDCHAR
STARTCHAR 497b
ENCODING 21103
SWIDTH 960 0
DWIDTH 10 0
BBX 10 10 0 -2
BITMAP
fcc0
0340
7b40
6b40
fd40
d540
fcc0
d4c0
fdc0
0000
ENDCHAR
STARTCHAR 3e6a
ENCODING 21104
SWIDTH 960 0
DWIDTH 10 0
BBX 10 10 0 -2
BITMAP
fcc0
3340
fd40
d540
fd40
d540
fd40
78c0
d5c0
0000
ENDCHAR
STARTCHAR 517b
ENCODING 21105
SWIDTH 960 0
DWIDTH 10 0
BBX 10 10 0 -2
BITMAP
3000
6bc0
fd40
3740
fd40
d5c0
fd40
6ac0
cdc0
0000
ENDCHAR
STARTCHAR 3364
ENCODING 21106
SWIDTH 960 0
DWIDTH 10 0
BBX 10 10 0 -2
BITMAP
30c0
fd40
d540
7b40
3340
fd40
0340
78c0
79c0
0000
ENDCHAR
STARTCHAR 5175
ENCODING 21107
SWIDTH 960 0
DWIDTH 10 0
BBX 10 10 0 -2
BITMAP
68c0
ff40
6b40
cd40
7b40
0340
fd40
ccc0
fdc0
0000
ENDCHAR
STARTCHAR 5173
ENCODING 21108
SWIDTH 960 0
DWIDTH 10 0
BBX 10 10 0 -2
BITMAP
d4c0
fd40
0340
fd40
6b40
7b40
6b40
30c0
fdc0
0000
ENDCHAR
STARTCHAR 414f
ENCODING 21109
SWIDTH 960 0
DWIDTH 10 0
BBX 10 10 0 -2
BITMAP
30c0
6b40
fd40
6b40
7b40
6b40
7cc0
ecc0
7dc0
0000
ENDCHAR
STARTCHAR 5177
ENCODING 21117
SWIDTH 960 0
DWIDTH 10 0
BBX 10 10 0 -2
BITMAP
fcc0
6b40
fd40
d540
fd40
0340
fd40
30c0
d5c0
0000
ENDCHAR
STARTCHAR 5176
ENCODING 21119
SWIDTH 960 0
DWIDTH 10 0
BBX 10 10 0 -2
BITMAP
68c0
d540
fd40
d540
fd40
3340
fd40
78c0
d5c0
0000
ENDCHAR
STARTCHAR 3344
ENCODING 21123
SWIDTH 960 0
DWIDTH 10 0
BBX 10 10 0 -2
BITMAP
30c0
fd40
3540
fd40
fd40
d540
fd40
00c0
fdc0
0000
ENDCHAR
STARTCHAR 3760
ENCODING 21127
SWIDTH 960 0
DWIDTH 10 0
BBX 10 10 0 -2
BITMAP
3cc0
3340
ff40
d340
dd40
e8c0
dcc0
eac0
d9c0
0000
ENDCHAR
STARTCHAR 517c
ENCODING 21128
SWIDTH 960 0
DWIDTH 10 0
BBX 10 10 0 -2
BITMAP
7b00
67c0
7a80
ebc0
7b00
0000
ffc0
18c0
f380
0000
ENDCHAR
STARTCHAR 4e2d
ENCODING 21129
SWIDTH 960 0
DWIDTH 10 0
BBX 10 10 0 -2
BITMAP
6cc0
d540
f540
3340
6b40
dd40
7340
3d40
f1c0
0000
ENDCHAR
STARTCHAR 5178
ENCODING 21133
SWIDTH 960 0
DWIDTH 10 0
BBX 10 10 0 -2
BITMAP
30c0
6b40
fd40
0340
fd40
d540
fd40
68c0
d5c0
0000
ENDCHAR
STARTCHAR 517d
ENCODING 21137
SWIDTH 960 0
DWIDTH 10 0
BBX 10 10 0 -2
BITMAP
30c0
fd40
6b40
d540
6d40
7d40
6d40
7cc0
cdc0
0000
ENDCHAR
STARTCHAR 517a
ENCODING 21138
SWIDTH 960 0
DWIDTH 10 0
BBX 10 10 0 -2
BITMAP
3000
6bc0
f540
0340
ff40
d540
fd40
6ac0
d6c0
0000
ENDCHAR
STARTCHAR 5179
ENCODING 21140
SWIDTH 960 0
DWIDTH 10 0
BBX 10 10 0 -2
BITMAP
3000
6bc0
fd40
0740
fd40
d5c0
fd40
6ac0
d6c0
0000
ENDCHAR
STARTCHAR 4e4f
ENCODING 21147
SWIDTH 960 0
DWIDTH 10 0
BBX 10 10 0 -2
BITMAP
1800
1800
ff80
1980
1980
3180
3180
6180
c780
0000
ENDCHAR
STARTCHAR 3879
ENCODING 21151
SWIDTH 960 0
DWIDTH 10 0
BBX 10 10 0 -2
BITMAP
0600
0600
f7c0
66c0
66c0
66c0
74c0
ecc0
1bc0
0000
ENDCHAR
STARTCHAR 3243
ENCODING 21152
SWIDTH 960 0
DWIDTH 10 0
BBX 10 10 0 -2
BITMAP
3000
3000
fdc0
3540
3540
3540
6d40
6d40
ddc0
0000
ENDCHAR
STARTCHAR 4e74
ENCODING 21155
SWIDTH 960 0
DWIDTH 10 0
BBX 10 10 0 -2
BITMAP
0c00
6d00
ddc0
0700
3c00
ec00
7f80
1980
7780
0000
ENDCHAR
STARTCHAR 3d75
ENCODING 21161
SWIDTH 960 0
DWIDTH 10 0
BBX 10 10 0 -2
BITMAP
0300
7b00
6bc0
7b40
6b40
7b40
6d40
f6c0
06c0
0000
ENDCHAR
STARTCHAR 4558
ENCODING 21162
SWIDTH 960 0
DWIDTH 10 0
BBX 10 10 0 -2
BITMAP
3000
fdc0
6b40
3980
ed40
0c00
7fc0
18c0
7380
0000
ENDCHAR
STARTCHAR 3965
ENCODING 21163
SWIDTH 960 0
DWIDTH 10 0
BBX 10 10 0 -2
BITMAP
6300
6300
fbc0
6340
fb40
6340
db40
fac0
06c0
0000
ENDCHAR
STARTCHAR 5222
ENCODING 21164
SWIDTH 960 0
DWIDTH 10 0
BBX 10 10 0 -2
BITMAP
c300
fd00
8fc0
f540
d540
d540
f540
1ac0
76c0
0000
ENDCHAR
STARTCHAR 5223
ENCODING 21165
SWIDTH 960 0
DWIDTH 10 0
BBX 10 10 0 -2
BITMAP
0300
fb00
6bc0
6b40
db40
0340
fb40
dac0
fac0
0000
ENDCHAR
STARTCHAR 4e65
ENCODING 21169
SWIDTH 960 0
DWIDTH 10 0
BBX 10 10 0 -2
BITMAP
0300
fd00
c7c0
fd40
d340
dd40
d540
d540
ea80
0000
ENDCHAR
STARTCHAR 4f2b
ENCODING 21172
SWIDTH 960 0
DWIDTH 10 0
BBX 10 10 0 -2
BITMAP
6980
3500
ffc0
c0c0
1800
ff80
1980
3180
e700
0000
ENDCHAR
STARTCHAR 5225
ENCODING 21173
SWIDTH 960 0
DWIDTH 10 0
BBX 10 10 0 -2
BITMAP
6d80
df40
1a00
ffc0
6980
df40
1b00
3300
6700
0000
ENDCHAR
STARTCHAR 387a
ENCODING 21177
SWIDTH 960 0
DWIDTH 10 0
BBX 10 10 0 -2
BITMAP
3300
3300
ffc0
6b40
cd40
6b40
3340
6ac0
dac0
0000
ENDCHAR
STARTCHAR 5224
ENCODING 21180
SWIDTH 960 0
DWIDTH 10 0
BBX 10 10 0 -2
BITMAP
6300
fb00
67c0
6340
fb40
0340
fb40
dac0
fac0
0000
ENDCHAR
STARTCHAR 332f
ENCODING 21182
SWIDTH 960 0
DWIDTH 10 0
BBX 10 10 0 -2
BITMAP
6300
fb00
67c0
db40
7340
6b40
d340
76c0
dac0
0000
ENDCHAR
STARTCHAR 5226
ENCODING 21185
SWIDTH 960 0
DWIDTH 10 0
BBX 10 10 0 -2
BITMAP
fb00
0300
6bc0
d340
6b40
0340
fb40
66c0
fac0
0000
ENDCHAR
STARTCHAR 4b56
ENCODING 21187
SWIDTH 960 0
DWIDTH 10 0
BBX 10 10 0 -2
BITMAP
3300
fd00
37c0
fd40
cd40
3b40
fd40
36c0
76c0
0000
ENDCHAR
STARTCHAR 443c
ENCODING 21189
SWIDTH 960 0
DWIDTH 10 0
BBX 10 10 0 -2
BITMAP
3300
fd00
37c0
fd40
d540
fd40
3340
7b40
d6c0
0000
ENDCHAR
STARTCHAR 4d26
ENCODING 21191
SWIDTH 960 0
DWIDTH 10 0
BBX 10 10 0 -2
BITMAP
7f00
1a00
7f80
6d80
7f80
6d80
ffc0
18c0
f380
0000
ENDCHAR
STARTCHAR 4a59
ENCODING 21193
SWIDTH 960 0
DWIDTH 10 0
BBX 10 10 0 -2
BITMAP
7b00
db00
37c0
fd40
d540
fd40
6ac0
6800
dfc0
0000
ENDCHAR
STARTCHAR 5227
ENCODING 21197
SWIDTH 960 0
DWIDTH 10 0
BBX 10 10 0 -2
BITMAP
3300
fb00
0fc0
fb40
db40
fb40
3340
dac0
d6c0
0000
ENDCHAR
STARTCHAR 7055
ENCODING 21202
SWIDTH 960 0
DWIDTH 10 0
BBX 10 10 0 -2
BITMAP
6b00
fd00
7bc0
3340
fd40
fd40
3340
fac0
36c0
0000
ENDCHAR
STARTCHAR 4630
ENCODING 21205
SWIDTH 960 0
DWIDTH 10 0
BBX 10 10 0 -2
BITMAP
fd00
3300
ffc0
d540
fd40
d540
fd40
3340
fac0
0000
ENDCHAR
STARTCHAR 5228
ENCODING 21207
SWIDTH 960 0
DWIDTH 10 0
BBX 10 10 0 -2
BITMAP
7f80
6180
7f80
0000
7b00
6bc0
7b40
6d40
f6c0
0000
ENDCHAR
STARTCHAR 342a
ENCODING 21208
SWIDTH 960 0
DWIDTH 10 0
BBX 10 10 0 -2
BITMAP
6b00
fd00
6bc0
7b40
6b40
fd40
6b40
66c0
7ac0
0000
ENDCHAR
STARTCHAR 4c33
ENCODING 21209
SWIDTH 960 0
DWIDTH 10 0
BBX 10 10 0 -2
BITMAP
f600
37c0
6a80
f300
36c0
6600
efc0
66c0
edc0
0000
ENDCHAR
STARTCHAR 3e21
ENCODING 21213
SWIDTH 960 0
DWIDTH 10 0
BBX 10 10 0 -2
BITMAP
f680
d7c0
f300
d780
fac0
d780
d680
d680
d580
0000
ENDCHAR
STARTCHAR 5229
ENCODING 21214
SWIDTH 960 0
DWIDTH 10 0
BBX 10 10 0 -2
BITMAP
d540
3300
eac0
0000
ffc0
ccc0
7f80
1980
7380
0000
ENDCHAR
STARTCHAR 4a67
ENCODING 21215
SWIDTH 960 0
DWIDTH 10 0
BBX 10 10 0 -2
BITMAP
1a00
ffc0
3f00
3300
ffc0
3500
7f80
db40
3700
0000
ENDCHAR
STARTCHAR 522d
ENCODING 21216
SWIDTH 960 0
DWIDTH 10 0
BBX 10 10 0 -2
BITMAP
ed00
6d00
efc0
3340
6b40
cd40
7340
1ac0
76c0
0000
ENDCHAR
STARTCHAR 402a
ENCODING 21218
SWIDTH 960 0
DWIDTH 10 0
BBX 10 10 0 -2
BITMAP
3600
fb80
d680
6b80
f5c0
1800
ff80
3180
e780
0000
ENDCHAR
STARTCHAR 522a
ENCODING 21219
SWIDTH 960 0
DWIDTH 10 0
BBX 10 10 0 -2
BITMAP
3300
7b00
37c0
fd40
6b40
7b40
6b40
7ac0
cec0
0000
ENDCHAR
STARTCHAR 3650
ENCODING 21220
SWIDTH 960 0
DWIDTH 10 0
BBX 10 10 0 -2
BITMAP
6b00
fd00
7bc0
6b40
7b40
3340
7b40
36c0
fac0
0000
ENDCHAR
STARTCHAR 522b
ENCODING 21222
SWIDTH 960 0
DWIDTH 10 0
BBX 10 10 0 -2
BITMAP
6d00
db00
ffc0
d540
fd40
3340
fd40
7ac0
d5c0
0000
ENDCHAR
STARTCHAR 342b
ENCODING 21223
SWIDTH 960 0
DWIDTH 10 0
BBX 10 10 0 -2
BITMAP
6300
7d00
d7c0
7b40
7d40
eb40
7d40
6ac0
7ec0
0000
ENDCHAR
STARTCHAR 372e
ENCODING 21234
SWIDTH 960 0
DWIDTH 10 0
BBX 10 10 0 -2
BITMAP
3d00
f300
7fc0
d540
fd40
36c0
fac0
0000
dac0
0000
ENDCHAR
STARTCHAR 522e
ENCODING 21235
SWIDTH 960 0
DWIDTH 10 0
BBX 10 10 0 -2
BITMAP
fb00
6300
fbc0
eb40
fb40
6340
fb40
06c0
dac0
0000
ENDCHAR
STARTCHAR 522f
ENCODING 21237
SWIDTH 960 0
DWIDTH 10 0
BBX 10 10 0 -2
BITMAP
fd00
d500
ffc0
d540
dd40
db40
ff40
aac0
a6c0
0000
ENDCHAR
STARTCHAR 5230
ENCODING 21240
SWIDTH 960 0
DWIDTH 10 0
BBX 10 10 0 -2
BITMAP
6b00
fd00
6bc0
ed40
ed40
d340
fb40
d6c0
fac0
0000
ENDCHAR
STARTCHAR 5231
ENCODING 21241
SWIDTH 960 0
DWIDTH 10 0
BBX 10 10 0 -2
BITMAP
3000
3000
3fc0
60c0
c0c0
00c0
00c0
00c0
0380
0000
ENDCHAR
STARTCHAR 3c5b
ENCODING 21242
SWIDTH 960 0
DWIDTH 10 0
BBX 10 10 0 -2
BITMAP
3000
3000
3fc0
60c0
d8c0
0cc0
0cc0
00c0
0380
0000
ENDCHAR
STARTCHAR 387b
ENCODING 21246
SWIDTH 960 0
DWIDTH 10 0
BBX 10 10 0 -2
BITMAP
3000
3000
7fc0
60c0
d8c0
18c0
36c0
7ec0
0380
0000
ENDCHAR
STARTCHAR 4c5e
ENCODING 21247
SWIDTH 960 0
DWIDTH 10 0
BBX 10 10 0 -2
BITMAP
3000
3000
7fc0
6ac0
dac0
36c0
34c0
6cc0
1b80
0000
ENDCHAR
STARTCHAR 4c68
ENCODING 21249
SWIDTH 960 0
DWIDTH 10 0
BBX 10 10 0 -2
BITMAP
3000
3000
7f80
cd80
3580
1d80
1a80
33c0
e700
0000
ENDCHAR
STARTCHAR 4677
ENCODING 21250
SWIDTH 960 0
DWIDTH 10 0
BBX 10 10 0 -2
BITMAP
3000
3fc0
60c0
d0c0
3ec0
30c0
3340
3ec0
0380
0000
ENDCHAR
STARTCHAR 4a71
ENCODING 21253
SWIDTH 960 0
DWIDTH 10 0
BBX 10 10 0 -2
BITMAP
3000
7fc0
c0c0
3ec0
06c0
7e80
6000
60c0
7fc0
0000
ENDCHAR
STARTCHAR 5232
ENCODING 21254
SWIDTH 960 0
DWIDTH 10 0
BBX 10 10 0 -2
BITMAP
3000
3000
7fc0
dac0
76c0
3ac0
6cc0
dac0
31c0
0000
ENDCHAR
STARTCHAR 5233
ENCODING 21256
SWIDTH 960 0
DWIDTH 10 0
BBX 10 10 0 -2
BITMAP
6000
7fc0
c0c0
34c0
db40
d540
c340
ff40
0180
0000
ENDCHAR
STARTCHAR 5235
ENCODING 21261
SWIDTH 960 0
DWIDTH 10 0
BBX 10 10 0 -2
BITMAP
6000
7fc0
db40
7ec0
18c0
7ec0
6ac0
7ec0
6a80
0000
ENDCHAR
STARTCHAR 5237
ENCODING 21263
SWIDTH 960 0
DWIDTH 10 0
BBX 10 10 0 -2
BITMAP
3600
fe00
6bc0
f4c0
0740
fb40
6680
7ac0
37c0
0000
ENDCHAR
STARTCHAR 5236
ENCODING 21264
SWIDTH 960 0
DWIDTH 10 0
BBX 10 10 0 -2
BITMAP
6000
7fc0
c0c0
7ec0
34c0
7ec0
6ac0
76c0
7e80
0000
ENDCHAR
STARTCHAR 5238
ENCODING 21269
SWIDTH 960 0
DWIDTH 10 0
BBX 10 10 0 -2
BITMAP
3000
3000
3180
3700
3c00
f000
3000
30c0
3fc0
0000
ENDCHAR
STARTCHAR 323d
ENCODING 21270
SWIDTH 960 0
DWIDTH 10 0
BBX 10 10 0 -2
BITMAP
3400
3400
6d80
6f00
ec00
6c00
6c00
6cc0
67c0
0000
ENDCHAR
STARTCHAR 4b4c
ENCODING 21271
SWIDTH 960 0
DWIDTH 10 0
BBX 10 10 0 -2
BITMAP
3600
3600
f780
3600
3600
3600
7600
d6c0
37c0
0000
ENDCHAR
STARTCHAR 3a7c
ENCODING 21273
SWIDTH 960 0
DWIDTH 10 0
BBX 10 10 0 -2
BITMAP
fa00
da00
fbc0
0600
fa00
36c0
dbc0
f000
dfc0
0000
ENDCHAR
STARTCHAR 5239
ENCODING 21274
SWIDTH 960 0
DWIDTH 10 0
BBX 10 10 0 -2
BITMAP
ffc0
c000
c000
c000
c000
c000
c000
c000
ffc0
0000
ENDCHAR
STARTCHAR 4159
ENCODING 21277
SWIDTH 960 0
DWIDTH 10 0
BBX 10 10 0 -2
BITMAP
ffc0
c000
c600
dfc0
d6c0
d6c0
d6c0
c600
ffc0
0000
ENDCHAR
STARTCHAR 3e22
ENCODING 21280
SWIDTH 960 0
DWIDTH 10 0
BBX 10 10 0 -2
BITMAP
ff80
c000
df00
d800
df80
d600
d600
c000
ffc0
0000
ENDCHAR
STARTCHAR 3629
ENCODING 21281
SWIDTH 960 0
DWIDTH 10 0
BBX 10 10 0 -2
BITMAP
ff80
c000
df00
cc00
df00
cc00
df00
c000
ffc0
0000
ENDCHAR
STARTCHAR 523a
ENCODING 21283
SWIDTH 960 0
DWIDTH 10 0
BBX 10 10 0 -2
BITMAP
ffc0
c000
df00
d500
df00
d500
df00
cc00
ffc0
0000
ENDCHAR
STARTCHAR 485b
ENCODING 21290
SWIDTH 960 0
DWIDTH 10 0
BBX 10 10 0 -2
BITMAP
ffc0
c000
cd00
ddc0
cd00
ddc0
cd00
db00
ffc0
0000
ENDCHAR
STARTCHAR 523b
ENCODING 21295
SWIDTH 960 0
DWIDTH 10 0
BBX 10 10 0 -2
BITMAP
ffc0
d300
c7c0
d680
c7c0
da80
d7c0
c000
ffc0
0000
ENDCHAR
STARTCHAR 523c
ENCODING 21297
SWIDTH 960 0
DWIDTH 10 0
BBX 10 10 0 -2
BITMAP
ffc0
c600
df80
dfc0
d980
d980
df80
d0c0
ffc0
0000
ENDCHAR
STARTCHAR 523d
ENCODING 21299
SWIDTH 960 0
DWIDTH 10 0
BBX 10 10 0 -2
BITMAP
ffc0
c600
dd80
d740
da80
df80
cd00
da80
ffc0
0000
ENDCHAR
STARTCHAR 523e
ENCODING 21304
SWIDTH 960 0
DWIDTH 10 0
BBX 10 10 0 -2
BITMAP
ffc0
6000
6000
6000
6000
6000
6000
6000
3fc0
0000
ENDCHAR
STARTCHAR 4924
ENCODING 21305
SWIDTH 960 0
DWIDTH 10 0
BBX 10 10 0 -2
BITMAP
0000
ffc0
da00
da00
d600
e780
c000
c000
ffc0
0000
ENDCHAR
STARTCHAR 3668
ENCODING 21306
SWIDTH 960 0
DWIDTH 10 0
BBX 10 10 0 -2
BITMAP
ff80
c300
d300
da00
cc00
da00
d300
c000
ffc0
0000
ENDCHAR
STARTCHAR 3065
ENCODING 21307
SWIDTH 960 0
DWIDTH 10 0
BBX 10 10 0 -2
BITMAP
ffc0
d800
df80
d600
dfc0
c600
cd00
d9c0
ffc0
0000
ENDCHAR
STARTCHAR 463f
ENCODING 21311
SWIDTH 960 0
DWIDTH 10 0
BBX 10 10 0 -2
BITMAP
ffc0
cd00
dfc0
c600
dfc0
cc00
df80
d580
ffc0
0000
ENDCHAR
STARTCHAR 523f
ENCODING 21312
SWIDTH 960 0
DWIDTH 10 0
BBX 10 10 0 -2
BITMAP
ffc0
cf00
cd00
cf00
c000
ddc0
d540
ddc0
ffc0
0000
ENDCHAR
STARTCHAR 3d3d
ENCODING 21313
SWIDTH 960 0
DWIDTH 10 0
BBX 10 10 0 -2
BITMAP
0c00
0c00
0d80
ffc0
0c00
0c00
0c00
0c00
0c00
0000
ENDCHAR
STARTCHAR 4069
ENCODING 21315
SWIDTH 960 0
DWIDTH 10 0
BBX 10 10 0 -2
BITMAP
0700
7c00
0c00
0c00
ffc0
0c00
0c00
0c00
0c00
0000
ENDCHAR
STARTCHAR 5241
ENCODING 21317
SWIDTH 960 0
DWIDTH 10 0
BBX 10 10 0 -2
BITMAP
3500
3500
3500
ffc0
3500
3500
6d00
6d00
c300
0000
ENDCHAR
STARTCHAR 5240
ENCODING 21318
SWIDTH 960 0
DWIDTH 10 0
BBX 10 10 0 -2
BITMAP
1800
fe00
36c0
e7c0
0c00
0c00
ffc0
0c00
0c00
0000
ENDCHAR
STARTCHAR 3e23
ENCODING 21319
SWIDTH 960 0
DWIDTH 10 0
BBX 10 10 0 -2
BITMAP
1a00
7600
3600
3600
ffc0
3600
3600
6600
c600
0000
ENDCHAR
STARTCHAR 3861
ENCODING 21320
SWIDTH 960 0
DWIDTH 10 0
BBX 10 10 0 -2
BITMAP
3000
3000
7f80
cc00
0c00
ffc0
0c00
0c00
0c00
0000
ENDCHAR
STARTCHAR 5243
ENCODING 21321
SWIDTH 960 0
DWIDTH 10 0
BBX 10 10 0 -2
BITMAP
0c00
0c00
ffc0
0c00
3500
3300
ffc0
6300
c300
0000
ENDCHAR
STARTCHAR 483e
ENCODING 21322
SWIDTH 960 0
DWIDTH 10 0
BBX 10 10 0 -2
BITMAP
0c00
6d80
3500
7f80
0c00
0c00
ffc0
0c00
0c00
0000
ENDCHAR
STARTCHAR 5244
ENCODING 21325
SWIDTH 960 0
DWIDTH 10 0
BBX 10 10 0 -2
BITMAP
fcc0
0cc0
0cc0
0cc0
ffc0
cc00
cc00
cc00
cfc0
0000
ENDCHAR
STARTCHAR 485c
ENCODING 21329
SWIDTH 960 0
DWIDTH 10 0
BBX 10 10 0 -2
BITMAP
1800
7f80
6d80
7f80
6d80
7f80
3600
ffc0
0600
0000
ENDCHAR
STARTCHAR 4234
ENCODING 21330
SWIDTH 960 0
DWIDTH 10 0
BBX 10 10 0 -2
BITMAP
0c00
ffc0
3300
3300
6a80
0c00
ffc0
0c00
0c00
0000
ENDCHAR
STARTCHAR 426e
ENCODING 21331
SWIDTH 960 0
DWIDTH 10 0
BBX 10 10 0 -2
BITMAP
0c00
0f80
0c00
7f80
6180
7f80
0c00
ffc0
0c00
0000
ENDCHAR
STARTCHAR 3628
ENCODING 21332
SWIDTH 960 0
DWIDTH 10 0
BBX 10 10 0 -2
BITMAP
6600
6f80
f680
6680
6d00
6fc0
6d40
6d40
6ac0
0000
ENDCHAR
STARTCHAR 466e
ENCODING 21335
SWIDTH 960 0
DWIDTH 10 0
BBX 10 10 0 -2
BITMAP
0c00
ffc0
0c00
ffc0
dac0
df40
ccc0
df40
cdc0
0000
ENDCHAR
STARTCHAR 4331
ENCODING 21336
SWIDTH 960 0
DWIDTH 10 0
BBX 10 10 0 -2
BITMAP
3500
7f80
6d80
7f80
6d80
7f80
0c00
ffc0
0c00
0000
ENDCHAR
STARTCHAR 476e
ENCODING 21338
SWIDTH 960 0
DWIDTH 10 0
BBX 10 10 0 -2
BITMAP
c680
dfc0
ea80
df80
da80
dfc0
c300
db00
c700
0000
ENDCHAR
STARTCHAR 4b4e
ENCODING 21340
SWIDTH 960 0
DWIDTH 10 0
BBX 10 10 0 -2
BITMAP
1800
1800
1800
1c00
1a00
1b00
1800
1800
1800
0000
ENDCHAR
STARTCHAR 5246
ENCODING 21342
SWIDTH 960 0
DWIDTH 10 0
BBX 10 10 0 -2
BITMAP
0c00
0c00
ffc0
0c00
0e00
0d00
0c00
0c00
0c00
0000
ENDCHAR
STARTCHAR 406a
ENCODING 21344
SWIDTH 960 0
DWIDTH 10 0
BBX 10 10 0 -2
BITMAP
0c00
0c00
0f80
0c00
0c00
7f80
6180
6180
7f80
0000
ENDCHAR
STARTCHAR 3735
ENCODING 21350
SWIDTH 960 0
DWIDTH 10 0
BBX 10 10 0 -2
BITMAP
3300
fd00
3300
fd80
0340
3300
fd00
3300
fd00
0000
ENDCHAR
STARTCHAR 5247
ENCODING 21353
SWIDTH 960 0
DWIDTH 10 0
BBX 10 10 0 -2
BITMAP
3f00
3300
3300
3300
3300
3300
3700
3000
3000
0000
ENDCHAR
STARTCHAR 5248
ENCODING 21358
SWIDTH 960 0
DWIDTH 10 0
BBX 10 10 0 -2
BITMAP
7f80
6000
7fc0
6000
6f00
6b00
6b00
d8c0
dfc0
0000
ENDCHAR
STARTCHAR 312c
ENCODING 21359
SWIDTH 960 0
DWIDTH 10 0
BBX 10 10 0 -2
BITMAP
3800
e7c0
dac0
dac0
dac0
fac0
dac0
3600
6600
0000
ENDCHAR
STARTCHAR 3075
ENCODING 21360
SWIDTH 960 0
DWIDTH 10 0
BBX 10 10 0 -2
BITMAP
3800
e7c0
c6c0
fac0
c6c0
c6c0
fac0
c600
0600
0000
ENDCHAR
STARTCHAR 346d
ENCODING 21361
SWIDTH 960 0
DWIDTH 10 0
BBX 10 10 0 -2
BITMAP
3e00
6600
ff80
6000
6f00
6b00
6b00
d8c0
dfc0
0000
ENDCHAR
STARTCHAR 4228
ENCODING 21363
SWIDTH 960 0
DWIDTH 10 0
BBX 10 10 0 -2
BITMAP
fbc0
dac0
fac0
dac0
fac0
c6c0
d6c0
ea00
0600
0000
ENDCHAR
STARTCHAR 3551
ENCODING 21364
SWIDTH 960 0
DWIDTH 10 0
BBX 10 10 0 -2
BITMAP
3000
37c0
fac0
36c0
fac0
66c0
6ac0
fac0
0600
0000
ENDCHAR
STARTCHAR 4d71
ENCODING 21365
SWIDTH 960 0
DWIDTH 10 0
BBX 10 10 0 -2
BITMAP
1800
f7c0
dac0
eac0
db40
dac0
fac0
dac0
3600
0000
ENDCHAR
STARTCHAR 524b
ENCODING 21367
SWIDTH 960 0
DWIDTH 10 0
BBX 10 10 0 -2
BITMAP
6d80
df40
1a00
ffc0
3300
7e80
d6c0
3180
3f80
0000
ENDCHAR
STARTCHAR 3237
ENCODING 21368
SWIDTH 960 0
DWIDTH 10 0
BBX 10 10 0 -2
BITMAP
c000
fbc0
36c0
fac0
36c0
dac0
d6c0
dac0
f600
0000
ENDCHAR
STARTCHAR 524a
ENCODING 21371
SWIDTH 960 0
DWIDTH 10 0
BBX 10 10 0 -2
BITMAP
d000
dbc0
06c0
76c0
dac0
06c0
fac0
da00
fa00
0000
ENDCHAR
STARTCHAR 362a
ENCODING 21375
SWIDTH 960 0
DWIDTH 10 0
BBX 10 10 0 -2
BITMAP
6000
dec0
eac0
eec0
e9c0
eac0
6ec0
6680
c180
0000
ENDCHAR
STARTCHAR 524c
ENCODING 21378
SWIDTH 960 0
DWIDTH 10 0
BBX 10 10 0 -2
BITMAP
7fc0
6000
6000
6000
6000
6000
6000
c000
c000
0000
ENDCHAR
STARTCHAR 4c71
ENCODING 21380
SWIDTH 960 0
DWIDTH 10 0
BBX 10 10 0 -2
BITMAP
7fc0
6000
6f80
6980
6980
6b80
6800
d8c0
dfc0
0000
ENDCHAR
STARTCHAR 524d
ENCODING 21398
SWIDTH 960 0
DWIDTH 10 0
BBX 10 10 0 -2
BITMAP
ffc0
dac0
db80
dcc0
db80
d8c0
db80
d400
d7c0
0000
ENDCHAR
STARTCHAR 4e52
ENCODING 21400
SWIDTH 960 0
DWIDTH 10 0
BBX 10 10 0 -2
BITMAP
7fc0
6a80
6f80
6a80
6f80
6600
6f80
c600
dfc0
0000
ENDCHAR
STARTCHAR 387c
ENCODING 21402
SWIDTH 960 0
DWIDTH 10 0
BBX 10 10 0 -2
BITMAP
7fc0
6980
6f80
6980
6f80
6300
6fc0
c600
ce00
0000
ENDCHAR
STARTCHAR 3836
ENCODING 21407
SWIDTH 960 0
DWIDTH 10 0
BBX 10 10 0 -2
BITMAP
7fc0
6600
6f80
6980
6980
6f80
6600
d6c0
d6c0
0000
ENDCHAR
STARTCHAR 524e
ENCODING 21408
SWIDTH 960 0
DWIDTH 10 0
BBX 10 10 0 -2
BITMAP
ffc0
c000
dcc0
d540
dd40
d540
dd40
c0c0
d5c0
0000
ENDCHAR
STARTCHAR 5250
ENCODING 21413
SWIDTH 960 0
DWIDTH 10 0
BBX 10 10 0 -2
BITMAP
ffc0
c000
d500
dfc0
db40
da00
de80
d980
d340
0000
ENDCHAR
STARTCHAR 524f
ENCODING 21414
SWIDTH 960 0
DWIDTH 10 0
BBX 10 10 0 -2
BITMAP
ffc0
df80
c600
df80
df80
c700
dd00
c600
ddc0
0000
ENDCHAR
STARTCHAR 3f5f
ENCODING 21416
SWIDTH 960 0
DWIDTH 10 0
BBX 10 10 0 -2
BITMAP
ffc0
c000
dd80
c7c0
dd80
d580
dd80
d580
bb80
0000
ENDCHAR
STARTCHAR 3139
ENCODING 21417
SWIDTH 960 0
DWIDTH 10 0
BBX 10 10 0 -2
BITMAP
ffc0
c000
ddc0
d580
ddc0
d180
d580
dd80
d6c0
0000
ENDCHAR
STARTCHAR 315e
ENCODING 21421
SWIDTH 960 0
DWIDTH 10 0
BBX 10 10 0 -2
BITMAP
ffc0
c000
ddc0
d580
ddc0
d580
dd80
d540
d540
0000
ENDCHAR
STARTCHAR 5251
ENCODING 21422
SWIDTH 960 0
DWIDTH 10 0
BBX 10 10 0 -2
BITMAP
ffc0
c000
d5c0
ff00
d5c0
dd40
d540
ff40
d4c0
0000
ENDCHAR
STARTCHAR 5252
ENCODING 21424
SWIDTH 960 0
DWIDTH 10 0
BBX 10 10 0 -2
BITMAP
ffc0
d800
da80
dbc0
df40
d740
da80
da80
d740
0000
ENDCHAR
STARTCHAR 3837
ENCODING 21427
SWIDTH 960 0
DWIDTH 10 0
BBX 10 10 0 -2
BITMAP
6d80
ffc0
c000
dd00
dbc0
ff40
d580
fdc0
cd40
0000
ENDCHAR
STARTCHAR 5253
ENCODING 21430
SWIDTH 960 0
DWIDTH 10 0
BBX 10 10 0 -2
BITMAP
0c00
0c00
0c00
1800
1800
3300
3180
6f40
f8c0
0000
ENDCHAR
STARTCHAR 356e
ENCODING 21435
SWIDTH 960 0
DWIDTH 10 0
BBX 10 10 0 -2
BITMAP
0c00
0c00
7f80
0c00
ffc0
0c00
1800
3300
7e80
0000
ENDCHAR
STARTCHAR 3b32
ENCODING 21442
SWIDTH 960 0
DWIDTH 10 0
BBX 10 10 0 -2
BITMAP
1800
3300
7f80
0c00
ffc0
3300
edc0
0700
3c00
0000
ENDCHAR
STARTCHAR 5254
ENCODING 21443
SWIDTH 960 0
DWIDTH 10 0
BBX 10 10 0 -2
BITMAP
1a00
3f00
6180
f5c0
1a00
3700
edc0
0700
7c00
0000
ENDCHAR
STARTCHAR 4b74
ENCODING 21448
SWIDTH 960 0
DWIDTH 10 0
BBX 10 10 0 -2
BITMAP
0000
7f00
3300
3300
1a00
1a00
0c00
3b00
e1c0
0000
ENDCHAR
STARTCHAR 3a35
ENCODING 21449
SWIDTH 960 0
DWIDTH 10 0
BBX 10 10 0 -2
BITMAP
7f80
1980
6d80
3500
3300
1a00
0c00
3b00
e1c0
0000
ENDCHAR
STARTCHAR 355a
ENCODING 21450
SWIDTH 960 0
DWIDTH 10 0
BBX 10 10 0 -2
BITMAP
fe00
3600
3600
3780
3180
6980
6d00
6e00
dbc0
0000
ENDCHAR
STARTCHAR 4d27
ENCODING 21451
SWIDTH 960 0
DWIDTH 10 0
BBX 10 10 0 -2
BITMAP
1800
1800
ffc0
1800
1f80
3580
3500
6600
ddc0
0000
ENDCHAR
STARTCHAR 4150
ENCODING 21452
SWIDTH 960 0
DWIDTH 10 0
BBX 10 10 0 -2
BITMAP
ffc0
18c0
1ac0
6a80
3680
6b00
6b00
c680
0cc0
0000
ENDCHAR
STARTCHAR 483f
ENCODING 21453
SWIDTH 960 0
DWIDTH 10 0
BBX 10 10 0 -2
BITMAP
7fc0
6000
7f80
6980
6980
6d00
6600
cd00
d9c0
0000
ENDCHAR
STARTCHAR 3c7d
ENCODING 21454
SWIDTH 960 0
DWIDTH 10 0
BBX 10 10 0 -2
BITMAP
3000
37c0
d0c0
d680
d680
db00
f300
d680
34c0
0000
ENDCHAR
STARTCHAR 3d47
ENCODING 21460
SWIDTH 960 0
DWIDTH 10 0
BBX 10 10 0 -2
BITMAP
3000
3bc0
3340
fd40
3340
d580
d580
3340
76c0
0000
ENDCHAR
STARTCHAR 3c68
ENCODING 21462
SWIDTH 960 0
DWIDTH 10 0
BBX 10 10 0 -2
BITMAP
fc00
6bc0
7b40
6b40
7b40
6980
f980
1b40
1ac0
0000
ENDCHAR
STARTCHAR 3c75
ENCODING 21463
SWIDTH 960 0
DWIDTH 10 0
BBX 10 10 0 -2
BITMAP
0780
7d80
3500
ffc0
c0c0
3f00
3300
1e00
f3c0
0000
ENDCHAR
STARTCHAR 3d76
ENCODING 21465
SWIDTH 960 0
DWIDTH 10 0
BBX 10 10 0 -2
BITMAP
3000
6bc0
fd40
3340
fd40
3340
d580
d580
7340
0000
ENDCHAR
STARTCHAR 4840
ENCODING 21467
SWIDTH 960 0
DWIDTH 10 0
BBX 10 10 0 -2
BITMAP
6bc0
f600
67c0
fb40
6740
fac0
6680
6d80
cd40
0000
ENDCHAR
STARTCHAR 5257
ENCODING 21471
SWIDTH 960 0
DWIDTH 10 0
BBX 10 10 0 -2
BITMAP
3400
6d80
7580
7f80
0c00
7f80
3300
1e00
f3c0
0000
ENDCHAR
STARTCHAR 3143
ENCODING 21473
SWIDTH 960 0
DWIDTH 10 0
BBX 10 10 0 -2
BITMAP
3c00
33c0
fd40
d540
7b40
ed80
7980
6b40
7ac0
0000
ENDCHAR
STARTCHAR 4151
ENCODING 21474
SWIDTH 960 0
DWIDTH 10 0
BBX 10 10 0 -2
BITMAP
6a80
ffc0
3300
ffc0
6800
7b80
6a80
fb00
1ac0
0000
ENDCHAR
STARTCHAR 387d
ENCODING 21475
SWIDTH 960 0
DWIDTH 10 0
BBX 10 10 0 -2
BITMAP
0000
ff80
c180
c180
c180
c180
c180
c180
ff80
0000
ENDCHAR
STARTCHAR 3845
ENCODING 21476
SWIDTH 960 0
DWIDTH 10 0
BBX 10 10 0 -2
BITMAP
0c00
0c00
ffc0
0c00
0c00
7f80
6180
6180
7f80
0000
ENDCHAR
STARTCHAR 3667
ENCODING 21477
SWIDTH 960 0
DWIDTH 10 0
BBX 10 10 0 -2
BITMAP
3000
3000
7fc0
60c0
dec0
36c0
36c0
3ec0
0380
0000
ENDCHAR
STARTCHAR 525b
ENCODING 21480
SWIDTH 960 0
DWIDTH 10 0
BBX 10 10 0 -2
BITMAP
0000
f7c0
d340
d340
d340
d340
f6c0
06c0
0dc0
0000
ENDCHAR
STARTCHAR 4321
ENCODING 21481
SWIDTH 960 0
DWIDTH 10 0
BBX 10 10 0 -2
BITMAP
fbc0
dac0
dac0
dac0
dac0
dac0
fac0
0600
0600
0000
ENDCHAR
STARTCHAR 427e
ENCODING 21482
SWIDTH 960 0
DWIDTH 10 0
BBX 10 10 0 -2
BITMAP
7f80
6180
6180
6180
6180
7f80
0000
6180
c0c0
0000
ENDCHAR
STARTCHAR 362b
ENCODING 21483
SWIDTH 960 0
DWIDTH 10 0
BBX 10 10 0 -2
BITMAP
0180
f680
d680
d680
d680
d6c0
f780
0180
0180
0000
ENDCHAR
STARTCHAR 3e24
ENCODING 21484
SWIDTH 960 0
DWIDTH 10 0
BBX 10 10 0 -2
BITMAP
ff80
1980
3180
e780
0000
ff80
c180
c180
ff80
0000
ENDCHAR
STARTCHAR 525c
ENCODING 21485
SWIDTH 960 0
DWIDTH 10 0
BBX 10 10 0 -2
BITMAP
0300
f500
d500
d500
d580
d580
f580
18c0
18c0
0000
ENDCHAR
STARTCHAR 525a
ENCODING 21486
SWIDTH 960 0
DWIDTH 10 0
BBX 10 10 0 -2
BITMAP
0000
f7c0
d300
d300
d300
d300
f300
0300
0700
0000
ENDCHAR
STARTCHAR 3244
ENCODING 21487
SWIDTH 960 0
DWIDTH 10 0
BBX 10 10 0 -2
BITMAP
0000
ffc0
0180
7d80
6d80
6d80
7d80
0180
0380
0000
ENDCHAR
STARTCHAR 4266
ENCODING 21488
SWIDTH 960 0
DWIDTH 10 0
BBX 10 10 0 -2
BITMAP
1800
3000
6180
ff40
0000
7f80
6180
6180
7f80
0000
ENDCHAR
STARTCHAR 3c38
ENCODING 21489
SWIDTH 960 0
DWIDTH 10 0
BBX 10 10 0 -2
BITMAP
0600
f600
d6c0
d780
d600
d600
f600
06c0
07c0
0000
ENDCHAR
STARTCHAR 3b4b
ENCODING 21490
SWIDTH 960 0
DWIDTH 10 0
BBX 10 10 0 -2
BITMAP
0c00
0c00
7f80
6d80
7f80
0c00
3400
1c00
f7c0
0000
ENDCHAR
STARTCHAR 3126
ENCODING 21491
SWIDTH 960 0
DWIDTH 10 0
BBX 10 10 0 -2
BITMAP
1800
1800
ffc0
3000
3000
7f80
d180
3180
3f80
0000
ENDCHAR
STARTCHAR 3370
ENCODING 21494
SWIDTH 960 0
DWIDTH 10 0
BBX 10 10 0 -2
BITMAP
0300
f300
d300
d7c0
d300
d300
f300
0300
0300
0000
ENDCHAR
STARTCHAR 3966
ENCODING 21495
SWIDTH 960 0
DWIDTH 10 0
BBX 10 10 0 -2
BITMAP
3f00
3300
3f00
0000
ffc0
1800
3f80
0180
0700
0000
ENDCHAR
STARTCHAR 3b4a
ENCODING 21496
SWIDTH 960 0
DWIDTH 10 0
BBX 10 10 0 -2
BITMAP
ffc0
00c0
7ec0
00c0
7ec0
66c0
66c0
7ec0
01c0
0000
ENDCHAR
STARTCHAR 525d
ENCODING 21498
SWIDTH 960 0
DWIDTH 10 0
BBX 10 10 0 -2
BITMAP
0700
f300
d300
d300
d300
d680
f680
0cc0
18c0
0000
ENDCHAR
STARTCHAR 525e
ENCODING 21505
SWIDTH 960 0
DWIDTH 10 0
BBX 10 10 0 -2
BITMAP
0000
f7c0
d300
d300
d7c0
d300
f300
0300
0700
0000
ENDCHAR
STARTCHAR 3549
ENCODING 21507
SWIDTH 960 0
DWIDTH 10 0
BBX 10 10 0 -2
BITMAP
0600
f7c0
d400
d780
d300
d600
f600
0cc0
07c0
0000
ENDCHAR
STARTCHAR 3346
ENCODING 21508
SWIDTH 960 0
DWIDTH 10 0
BBX 10 10 0 -2
BITMAP
1f00
3300
ea00
0c00
3b00
e1c0
3f00
3300
3f00
0000
ENDCHAR
STARTCHAR 3967
ENCODING 21512
SWIDTH 960 0
DWIDTH 10 0
BBX 10 10 0 -2
BITMAP
0c00
1a00
3300
6e80
c0c0
3f00
3300
3300
3f00
0000
ENDCHAR
STARTCHAR 3548
ENCODING 21513
SWIDTH 960 0
DWIDTH 10 0
BBX 10 10 0 -2
BITMAP
0c00
0c00
ffc0
0c00
7f80
0000
7f80
6180
7f80
0000
ENDCHAR
STARTCHAR 445f
ENCODING 21514
SWIDTH 960 0
DWIDTH 10 0
BBX 10 10 0 -2
BITMAP
7f80
6180
7f80
0c00
ffc0
ccc0
ccc0
cdc0
0c00
0000
ENDCHAR
STARTCHAR 3125
ENCODING 21515
SWIDTH 960 0
DWIDTH 10 0
BBX 10 10 0 -2
BITMAP
0180
f180
d7c0
d180
d580
d680
d180
f180
0380
0000
ENDCHAR
STARTCHAR 4631
ENCODING 21516
SWIDTH 960 0
DWIDTH 10 0
BBX 10 10 0 -2
BITMAP
ffc0
c0c0
df40
c0c0
df40
d340
d340
df40
c1c0
0000
ENDCHAR
STARTCHAR 4c3e
ENCODING 21517
SWIDTH 960 0
DWIDTH 10 0
BBX 10 10 0 -2
BITMAP
1800
1f00
3300
ea00
0c00
1fc0
38c0
e8c0
1fc0
0000
ENDCHAR
STARTCHAR 3921
ENCODING 21518
SWIDTH 960 0
DWIDTH 10 0
BBX 10 10 0 -2
BITMAP
0780
7c00
6000
7fc0
6000
6f80
d980
d980
1f80
0000
ENDCHAR
STARTCHAR 4d79
ENCODING 21519
SWIDTH 960 0
DWIDTH 10 0
BBX 10 10 0 -2
BITMAP
0c00
ffc0
0c00
7f80
6d80
7f80
3400
1c00
f7c0
0000
ENDCHAR
STARTCHAR 4547
ENCODING 21520
SWIDTH 960 0
DWIDTH 10 0
BBX 10 10 0 -2
BITMAP
0300
f300
d300
d7c0
d300
d300
f300
0300
0fc0
0000
ENDCHAR
STARTCHAR 387e
ENCODING 21521
SWIDTH 960 0
DWIDTH 10 0
BBX 10 10 0 -2
BITMAP
1800
3000
ffc0
c0c0
df40
d340
d340
df40
c1c0
0000
ENDCHAR
STARTCHAR 372f
ENCODING 21531
SWIDTH 960 0
DWIDTH 10 0
BBX 10 10 0 -2
BITMAP
7f00
1b00
ffc0
1b00
7f00
3000
7f80
d180
3f80
0000
ENDCHAR
STARTCHAR 5267
ENCODING 21533
SWIDTH 960 0
DWIDTH 10 0
BBX 10 10 0 -2
BITMAP
0c00
ffc0
3300
1e00
f3c0
0000
7f80
6180
7f80
0000
ENDCHAR
STARTCHAR 3663
ENCODING 21535
SWIDTH 960 0
DWIDTH 10 0
BBX 10 10 0 -2
BITMAP
0700
f580
d8c0
d700
d000
d780
f180
0300
0600
0000
ENDCHAR
STARTCHAR 4b4a
ENCODING 21536
SWIDTH 960 0
DWIDTH 10 0
BBX 10 10 0 -2
BITMAP
0340
f300
d7c0
d300
d300
d300
f680
0680
0cc0
0000
ENDCHAR
STARTCHAR 485d
ENCODING 21542
SWIDTH 960 0
DWIDTH 10 0
BBX 10 10 0 -2
BITMAP
ffc0
1c00
3500
6d80
ccc0
0000
7f80
6180
7f80
0000
ENDCHAR
STARTCHAR 5266
ENCODING 21545
SWIDTH 960 0
DWIDTH 10 0
BBX 10 10 0 -2
BITMAP
0300
f580
d580
d8c0
d780
d680
f680
0d80
1b80
0000
ENDCHAR
STARTCHAR 345e
ENCODING 21547
SWIDTH 960 0
DWIDTH 10 0
BBX 10 10 0 -2
BITMAP
1e00
3300
6e80
c0c0
3f00
0600
7f80
6180
7f80
0000
ENDCHAR
STARTCHAR 5261
ENCODING 21548
SWIDTH 960 0
DWIDTH 10 0
BBX 10 10 0 -2
BITMAP
0380
f600
d400
d7c0
d500
d500
f500
1b00
3300
0000
ENDCHAR
STARTCHAR 5262
ENCODING 21549
SWIDTH 960 0
DWIDTH 10 0
BBX 10 10 0 -2
BITMAP
0300
f7c0
d000
d780
d680
d680
f680
0d80
19c0
0000
ENDCHAR
STARTCHAR 5264
ENCODING 21550
SWIDTH 960 0
DWIDTH 10 0
BBX 10 10 0 -2
BITMAP
0300
f7c0
d000
d780
d680
d680
f680
0d80
19c0
0000
ENDCHAR
STARTCHAR 5265
ENCODING 21558
SWIDTH 960 0
DWIDTH 10 0
BBX 10 10 0 -2
BITMAP
0700
f300
d7c0
d540
d540
d6c0
f4c0
0cc0
0dc0
0000
ENDCHAR
STARTCHAR 355b
ENCODING 21560
SWIDTH 960 0
DWIDTH 10 0
BBX 10 10 0 -2
BITMAP
1f00
f500
d500
d780
d580
d680
f500
1b00
36c0
0000
ENDCHAR
STARTCHAR 3f61
ENCODING 21561
SWIDTH 960 0
DWIDTH 10 0
BBX 10 10 0 -2
BITMAP
0600
f600
d7c0
d4c0
d300
d300
f300
0680
0cc0
0000
ENDCHAR
STARTCHAR 4a2d
ENCODING 21563
SWIDTH 960 0
DWIDTH 10 0
BBX 10 10 0 -2
BITMAP
0600
f600
d7c0
dac0
d6c0
d540
fb40
06c0
01c0
0000
ENDCHAR
STARTCHAR 5263
ENCODING 21564
SWIDTH 960 0
DWIDTH 10 0
BBX 10 10 0 -2
BITMAP
1f00
f700
d500
d500
df00
d500
f500
0d40
1dc0
0000
ENDCHAR
STARTCHAR 525f
ENCODING 21565
SWIDTH 960 0
DWIDTH 10 0
BBX 10 10 0 -2
BITMAP
0300
f500
d7c0
d500
d300
d7c0
f300
0300
0300
0000
ENDCHAR
STARTCHAR 3863
ENCODING 21566
SWIDTH 960 0
DWIDTH 10 0
BBX 10 10 0 -2
BITMAP
7f80
1800
7f00
3300
ffc0
0000
7f80
6180
7f80
0000
ENDCHAR
STARTCHAR 5260
ENCODING 21568
SWIDTH 960 0
DWIDTH 10 0
BBX 10 10 0 -2
BITMAP
0fc0
f680
d680
d680
d7c0
d380
f680
0d80
1b80
0000
ENDCHAR
STARTCHAR 4f24
ENCODING 21570
SWIDTH 960 0
DWIDTH 10 0
BBX 10 10 0 -2
BITMAP
7f00
6300
6300
7f00
3000
ff80
c180
c180
ff80
0000
ENDCHAR
STARTCHAR 4a72
ENCODING 21574
SWIDTH 960 0
DWIDTH 10 0
BBX 10 10 0 -2
BITMAP
7f80
6180
6180
7f80
0c00
ffc0
3500
6d80
ccc0
0000
ENDCHAR
STARTCHAR 4468
ENCODING 21576
SWIDTH 960 0
DWIDTH 10 0
BBX 10 10 0 -2
BITMAP
3f00
3300
3f00
0000
7f80
0c00
3f00
0c00
ffc0
0000
ENDCHAR
STARTCHAR 3862
ENCODING 21577
SWIDTH 960 0
DWIDTH 10 0
BBX 10 10 0 -2
BITMAP
1f00
6b00
6f00
6000
7f00
0300
ffc0
6180
c0c0
0000
ENDCHAR
STARTCHAR 3970
ENCODING 21578
SWIDTH 960 0
DWIDTH 10 0
BBX 10 10 0 -2
BITMAP
0c00
3400
7f80
0c00
ffc0
0000
3f00
3300
3f00
0000
ENDCHAR
STARTCHAR 5268
ENCODING 21582
SWIDTH 960 0
DWIDTH 10 0
BBX 10 10 0 -2
BITMAP
0f80
f580
d580
d780
d500
d500
f580
0d80
18c0
0000
ENDCHAR
STARTCHAR 465d
ENCODING 21585
SWIDTH 960 0
DWIDTH 10 0
BBX 10 10 0 -2
BITMAP
3f00
0c00
ffc0
1a00
3300
ffc0
3300
3300
3f00
0000
ENDCHAR
STARTCHAR 526c
ENCODING 21599
SWIDTH 960 0
DWIDTH 10 0
BBX 10 10 0 -2
BITMAP
0300
f300
d7c0
d300
d6c0
d380
f300
06c0
0fc0
0000
ENDCHAR
STARTCHAR 3c7e
ENCODING 21608
SWIDTH 960 0
DWIDTH 10 0
BBX 10 10 0 -2
BITMAP
7fc0
6cc0
6ec0
6cc0
7f40
6cc0
6ec0
dac0
dec0
0000
ENDCHAR
STARTCHAR 3c76
ENCODING 21610
SWIDTH 960 0
DWIDTH 10 0
BBX 10 10 0 -2
BITMAP
1f80
f980
d980
df80
d500
d500
f500
1b40
33c0
0000
ENDCHAR
STARTCHAR 526f
ENCODING 21616
SWIDTH 960 0
DWIDTH 10 0
BBX 10 10 0 -2
BITMAP
3600
3a80
d700
dac0
e7c0
0000
7f80
6180
7f80
0000
ENDCHAR
STARTCHAR 526d
ENCODING 21617
SWIDTH 960 0
DWIDTH 10 0
BBX 10 10 0 -2
BITMAP
03c0
ee80
aa80
aa80
aa80
aa80
ea80
1b40
3740
0000
ENDCHAR
STARTCHAR 4c23
ENCODING 21619
SWIDTH 960 0
DWIDTH 10 0
BBX 10 10 0 -2
BITMAP
0600
f600
d780
d600
dfc0
d600
f700
1a80
36c0
0000
ENDCHAR
STARTCHAR 526a
ENCODING 21621
SWIDTH 960 0
DWIDTH 10 0
BBX 10 10 0 -2
BITMAP
1fc0
f180
d780
d580
d580
d780
f180
0180
0380
0000
ENDCHAR
STARTCHAR 5273
ENCODING 21622
SWIDTH 960 0
DWIDTH 10 0
BBX 10 10 0 -2
BITMAP
0600
f7c0
df40
d540
d540
d540
f680
0740
0d40
0000
ENDCHAR
STARTCHAR 526e
ENCODING 21623
SWIDTH 960 0
DWIDTH 10 0
BBX 10 10 0 -2
BITMAP
0fc0
f540
d7c0
d540
d540
d7c0
f300
0300
0300
0000
ENDCHAR
STARTCHAR 5271
ENCODING 21627
SWIDTH 960 0
DWIDTH 10 0
BBX 10 10 0 -2
BITMAP
0300
f7c0
d540
d7c0
d540
d540
f7c0
0300
0300
0000
ENDCHAR
STARTCHAR 3846
ENCODING 21628
SWIDTH 960 0
DWIDTH 10 0
BBX 10 10 0 -2
BITMAP
0380
f700
d300
d540
d780
dfc0
d300
f300
0700
0000
ENDCHAR
STARTCHAR 4c3f
ENCODING 21629
SWIDTH 960 0
DWIDTH 10 0
BBX 10 10 0 -2
BITMAP
0c00
3b00
e1c0
3f00
0000
7b80
6a80
7b80
0600
0000
ENDCHAR
STARTCHAR 5272
ENCODING 21632
SWIDTH 960 0
DWIDTH 10 0
BBX 10 10 0 -2
BITMAP
0f80
f580
d780
d580
d580
d780
f580
0d80
1fc0
0000
ENDCHAR
STARTCHAR 5274
ENCODING 21636
SWIDTH 960 0
DWIDTH 10 0
BBX 10 10 0 -2
BITMAP
0300
f540
d540
d7c0
d300
d300
f540
0d40
0fc0
0000
ENDCHAR
STARTCHAR 5276
ENCODING 21638
SWIDTH 960 0
DWIDTH 10 0
BBX 10 10 0 -2
BITMAP
0c00
f7c0
d8c0
d740
d540
d740
f580
0cc0
0fc0
0000
ENDCHAR
STARTCHAR 3a70
ENCODING 21643
SWIDTH 960 0
DWIDTH 10 0
BBX 10 10 0 -2
BITMAP
0600
f600
d7c0
da00
d7c0
d600
d7c0
f600
0600
0000
ENDCHAR
STARTCHAR 4f42
ENCODING 21644
SWIDTH 960 0
DWIDTH 10 0
BBX 10 10 0 -2
BITMAP
3800
f7c0
36c0
fac0
36c0
7ac0
76c0
d6c0
37c0
0000
ENDCHAR
STARTCHAR 526b
ENCODING 21646
SWIDTH 960 0
DWIDTH 10 0
BBX 10 10 0 -2
BITMAP
6300
7b00
eac0
3000
efc0
0000
7f80
6180
7f80
0000
ENDCHAR
STARTCHAR 5269
ENCODING 21647
SWIDTH 960 0
DWIDTH 10 0
BBX 10 10 0 -2
BITMAP
0700
f000
d700
d340
d780
d700
f580
1b40
0700
0000
ENDCHAR
STARTCHAR 5275
ENCODING 21648
SWIDTH 960 0
DWIDTH 10 0
BBX 10 10 0 -2
BITMAP
0680
f680
d7c0
dd80
d680
d580
f580
0d80
0d80
0000
ENDCHAR
STARTCHAR 5270
ENCODING 21650
SWIDTH 960 0
DWIDTH 10 0
BBX 10 10 0 -2
BITMAP
fbc0
dac0
fbc0
0000
3e00
3600
36c0
66c0
c7c0
0000
ENDCHAR
STARTCHAR 5278
ENCODING 21666
SWIDTH 960 0
DWIDTH 10 0
BBX 10 10 0 -2
BITMAP
7b80
6a80
7b80
1e00
ffc0
3000
7f80
0180
0700
0000
ENDCHAR
STARTCHAR 5323
ENCODING 21668
SWIDTH 960 0
DWIDTH 10 0
BBX 10 10 0 -2
BITMAP
0300
f7c0
d4c0
d780
d300
d7c0
f300
0340
03c0
0000
ENDCHAR
STARTCHAR 527a
ENCODING 21669
SWIDTH 960 0
DWIDTH 10 0
BBX 10 10 0 -2
BITMAP
0fc0
f300
d680
d740
d000
d300
f7c0
0300
0fc0
0000
ENDCHAR
STARTCHAR 527e
ENCODING 21672
SWIDTH 960 0
DWIDTH 10 0
BBX 10 10 0 -2
BITMAP
0600
efc0
1b40
6680
dcc0
0000
7f80
6180
7f80
0000
ENDCHAR
STARTCHAR 5321
ENCODING 21675
SWIDTH 960 0
DWIDTH 10 0
BBX 10 10 0 -2
BITMAP
7dc0
6d40
7d40
6bc0
6800
6d40
6c00
c700
c1c0
0000
ENDCHAR
STARTCHAR 527b
ENCODING 21676
SWIDTH 960 0
DWIDTH 10 0
BBX 10 10 0 -2
BITMAP
0300
f7c0
d680
d4c0
d680
d680
f300
0680
0cc0
0000
ENDCHAR
STARTCHAR 533e
ENCODING 21679
SWIDTH 960 0
DWIDTH 10 0
BBX 10 10 0 -2
BITMAP
0600
f780
d680
d500
d680
d4c0
f780
0680
0780
0000
ENDCHAR
STARTCHAR 3a69
ENCODING 21682
SWIDTH 960 0
DWIDTH 10 0
BBX 10 10 0 -2
BITMAP
0cc0
f680
d7c0
d300
d7c0
d300
f680
0680
0cc0
0000
ENDCHAR
STARTCHAR 3331
ENCODING 21683
SWIDTH 960 0
DWIDTH 10 0
BBX 10 10 0 -2
BITMAP
0300
f7c0
d300
d680
d300
d6c0
f580
0380
0ec0
0000
ENDCHAR
STARTCHAR 5279
ENCODING 21688
SWIDTH 960 0
DWIDTH 10 0
BBX 10 10 0 -2
BITMAP
0680
06c0
ffc0
c600
dd40
c340
dd80
d580
dd40
0000
ENDCHAR
STARTCHAR 5325
ENCODING 21692
SWIDTH 960 0
DWIDTH 10 0
BBX 10 10 0 -2
BITMAP
7f00
6300
6f00
ff80
c180
de80
d680
de80
c380
0000
ENDCHAR
STARTCHAR 3076
ENCODING 21693
SWIDTH 960 0
DWIDTH 10 0
BBX 10 10 0 -2
BITMAP
0fc0
f4c0
d540
d7c0
d540
d540
f6c0
0cc0
0fc0
0000
ENDCHAR
STARTCHAR 5324
ENCODING 21694
SWIDTH 960 0
DWIDTH 10 0
BBX 10 10 0 -2
BITMAP
0340
f7c0
d380
dfc0
d600
d6c0
fb00
06c0
07c0
0000
ENDCHAR
STARTCHAR 3025
ENCODING 21696
SWIDTH 960 0
DWIDTH 10 0
BBX 10 10 0 -2
BITMAP
0c00
ffc0
0000
3f00
3300
3f00
1a80
7300
ddc0
0000
ENDCHAR
STARTCHAR 494a
ENCODING 21697
SWIDTH 960 0
DWIDTH 10 0
BBX 10 10 0 -2
BITMAP
3f00
3300
3300
3f00
0000
fbc0
dac0
dac0
fbc0
0000
ENDCHAR
STARTCHAR 5322
ENCODING 21698
SWIDTH 960 0
DWIDTH 10 0
BBX 10 10 0 -2
BITMAP
0fc0
f300
d7c0
d540
d540
d6c0
f4c0
0cc0
0fc0
0000
ENDCHAR
STARTCHAR 527c
ENCODING 21700
SWIDTH 960 0
DWIDTH 10 0
BBX 10 10 0 -2
BITMAP
0680
f680
d7c0
d680
d680
d680
f7c0
0680
0cc0
0000
ENDCHAR
STARTCHAR 5277
ENCODING 21703
SWIDTH 960 0
DWIDTH 10 0
BBX 10 10 0 -2
BITMAP
0300
f780
d300
d7c0
d000
d300
f780
0300
0fc0
0000
ENDCHAR
STARTCHAR 527d
ENCODING 21704
SWIDTH 960 0
DWIDTH 10 0
BBX 10 10 0 -2
BITMAP
0700
f580
d8c0
d700
d000
d780
f580
0d80
0f80
0000
ENDCHAR
STARTCHAR 3a48
ENCODING 21705
SWIDTH 960 0
DWIDTH 10 0
BBX 10 10 0 -2
BITMAP
3600
fe80
3600
ffc0
0300
fb40
d980
fb80
0ec0
0000
ENDCHAR
STARTCHAR 5326
ENCODING 21720
SWIDTH 960 0
DWIDTH 10 0
BBX 10 10 0 -2
BITMAP
0c00
fbc0
d000
d5c0
dd80
d580
f580
0d80
0d80
0000
ENDCHAR
STARTCHAR 3077
ENCODING 21729
SWIDTH 960 0
DWIDTH 10 0
BBX 10 10 0 -2
BITMAP
3f00
3300
7f80
6180
7f80
6180
7f80
3300
6180
0000
ENDCHAR
STARTCHAR 532f
ENCODING 21730
SWIDTH 960 0
DWIDTH 10 0
BBX 10 10 0 -2
BITMAP
0fc0
f300
d780
d300
d7c0
d680
f7c0
0680
0d80
0000
ENDCHAR
STARTCHAR 5327
ENCODING 21733
SWIDTH 960 0
DWIDTH 10 0
BBX 10 10 0 -2
BITMAP
ffc0
6d80
7d80
0000
ffc0
7d80
6d80
7d80
0780
0000
ENDCHAR
STARTCHAR 5328
ENCODING 21734
SWIDTH 960 0
DWIDTH 10 0
BBX 10 10 0 -2
BITMAP
0700
fd40
d500
dfc0
d500
d740
fd80
0d80
1d40
0000
ENDCHAR
STARTCHAR 3e25
ENCODING 21736
SWIDTH 960 0
DWIDTH 10 0
BBX 10 10 0 -2
BITMAP
0d40
f300
d7c0
d4c0
d7c0
d4c0
f7c0
0cc0
0dc0
0000
ENDCHAR
STARTCHAR 4b69
ENCODING 21737
SWIDTH 960 0
DWIDTH 10 0
BBX 10 10 0 -2
BITMAP
0fc0
f540
d7c0
d540
d7c0
d300
f7c0
0300
0fc0
0000
ENDCHAR
STARTCHAR 532d
ENCODING 21741
SWIDTH 960 0
DWIDTH 10 0
BBX 10 10 0 -2
BITMAP
fbc0
dac0
fbc0
0d00
0d80
ffc0
1a00
3300
e1c0
0000
ENDCHAR
STARTCHAR 532c
ENCODING 21742
SWIDTH 960 0
DWIDTH 10 0
BBX 10 10 0 -2
BITMAP
0340
f7c0
d300
d7c0
d680
d500
fbc0
0300
0700
0000
ENDCHAR
STARTCHAR 452f
ENCODING 21746
SWIDTH 960 0
DWIDTH 10 0
BBX 10 10 0 -2
BITMAP
6780
f600
67c0
f680
6d80
0000
7f80
6180
7f80
0000
ENDCHAR
STARTCHAR 532e
ENCODING 21754
SWIDTH 960 0
DWIDTH 10 0
BBX 10 10 0 -2
BITMAP
0340
f7c0
d300
d7c0
d540
d7c0
f540
0fc0
0d40
0000
ENDCHAR
STARTCHAR 532b
ENCODING 21757
SWIDTH 960 0
DWIDTH 10 0
BBX 10 10 0 -2
BITMAP
0fc0
f300
d7c0
d7c0
d540
d7c0
f500
0700
1dc0
0000
ENDCHAR
STARTCHAR 3134
ENCODING 21764
SWIDTH 960 0
DWIDTH 10 0
BBX 10 10 0 -2
BITMAP
0f80
f580
d780
d580
d780
d580
f780
0d80
18c0
0000
ENDCHAR
STARTCHAR 3a36
ENCODING 21766
SWIDTH 960 0
DWIDTH 10 0
BBX 10 10 0 -2
BITMAP
0600
0d80
f7c0
d680
d5c0
d780
d580
f700
1dc0
0000
ENDCHAR
STARTCHAR 3f30
ENCODING 21767
SWIDTH 960 0
DWIDTH 10 0
BBX 10 10 0 -2
BITMAP
7fc0
6000
7fc0
6b00
ddc0
0000
3f80
3180
3f80
0000
ENDCHAR
STARTCHAR 5329
ENCODING 21775
SWIDTH 960 0
DWIDTH 10 0
BBX 10 10 0 -2
BITMAP
06c0
f380
d6c0
d600
dfc0
d500
ffc0
3540
0300
0000
ENDCHAR
STARTCHAR 4562
ENCODING 21776
SWIDTH 960 0
DWIDTH 10 0
BBX 10 10 0 -2
BITMAP
0600
7fc0
6600
6f80
7fc0
6680
6f80
d980
df80
0000
ENDCHAR
STARTCHAR 532a
ENCODING 21780
SWIDTH 960 0
DWIDTH 10 0
BBX 10 10 0 -2
BITMAP
0fc0
f300
d780
d680
d7c0
d000
f780
0d80
0f80
0000
ENDCHAR
STARTCHAR 3022
ENCODING 21782
SWIDTH 960 0
DWIDTH 10 0
BBX 10 10 0 -2
BITMAP
3fc0
0d00
f500
dfc0
d540
dfc0
f500
0d00
3fc0
0000
ENDCHAR
STARTCHAR 5334
ENCODING 21806
SWIDTH 960 0
DWIDTH 10 0
BBX 10 10 0 -2
BITMAP
3300
7fc0
ff80
6600
7fc0
0000
3f80
3180
3f80
0000
ENDCHAR
STARTCHAR 4d23
ENCODING 21807
SWIDTH 960 0
DWIDTH 10 0
BBX 10 10 0 -2
BITMAP
0680
f500
d7c0
d500
d7c0
d500
f7c0
0d00
0fc0
0000
ENDCHAR
STARTCHAR 3e27
ENCODING 21809
SWIDTH 960 0
DWIDTH 10 0
BBX 10 10 0 -2
BITMAP
0780
f680
d780
d680
d7c0
d4c0
f7c0
0cc0
0fc0
0000
ENDCHAR
STARTCHAR 533a
ENCODING 21811
SWIDTH 960 0
DWIDTH 10 0
BBX 10 10 0 -2
BITMAP
0fc0
f000
d7c0
d4c0
d7c0
d500
f7c0
1a80
34c0
0000
ENDCHAR
STARTCHAR 5339
ENCODING 21816
SWIDTH 960 0
DWIDTH 10 0
BBX 10 10 0 -2
BITMAP
0700
f580
db40
d000
d780
d300
f000
1ac0
1b40
0000
ENDCHAR
STARTCHAR 5330
ENCODING 21817
SWIDTH 960 0
DWIDTH 10 0
BBX 10 10 0 -2
BITMAP
0d80
f540
de00
d400
d680
dac0
fa00
3680
0ec0
0000
ENDCHAR
STARTCHAR 4243
ENCODING 21822
SWIDTH 960 0
DWIDTH 10 0
BBX 10 10 0 -2
BITMAP
1f80
e600
bfc0
aa80
bfc0
aa80
ffc0
0600
1f80
0000
ENDCHAR
STARTCHAR 5331
ENCODING 21824
SWIDTH 960 0
DWIDTH 10 0
BBX 10 10 0 -2
BITMAP
0fc0
f580
d5c0
d580
d7c0
d580
f5c0
1980
37c0
0000
ENDCHAR
STARTCHAR 426f
ENCODING 21828
SWIDTH 960 0
DWIDTH 10 0
BBX 10 10 0 -2
BITMAP
1fc0
f600
d740
dd80
d700
dd80
f740
1d40
0600
0000
ENDCHAR
STARTCHAR 5336
ENCODING 21829
SWIDTH 960 0
DWIDTH 10 0
BBX 10 10 0 -2
BITMAP
0300
f3c0
d300
d7c0
d4c0
d7c0
f300
0fc0
0300
0000
ENDCHAR
STARTCHAR 3e26
ENCODING 21830
SWIDTH 960 0
DWIDTH 10 0
BBX 10 10 0 -2
BITMAP
0c00
ffc0
3300
ffc0
dac0
f7c0
dec0
dac0
dec0
0000
ENDCHAR
STARTCHAR 5333
ENCODING 21836
SWIDTH 960 0
DWIDTH 10 0
BBX 10 10 0 -2
BITMAP
0300
f7c0
d4c0
d680
d5c0
d000
f780
0300
0fc0
0000
ENDCHAR
STARTCHAR 4c64
ENCODING 21839
SWIDTH 960 0
DWIDTH 10 0
BBX 10 10 0 -2
BITMAP
fbc0
dac0
fbc0
c0c0
df40
d340
d340
df40
c1c0
0000
ENDCHAR
STARTCHAR 373c
ENCODING 21843
SWIDTH 960 0
DWIDTH 10 0
BBX 10 10 0 -2
BITMAP
fa00
07c0
7a80
6b00
7ac0
c000
7f80
6180
7f80
0000
ENDCHAR
STARTCHAR 5337
ENCODING 21846
SWIDTH 960 0
DWIDTH 10 0
BBX 10 10 0 -2
BITMAP
0300
f540
d700
d5c0
d000
d300
f540
0700
0dc0
0000
ENDCHAR
STARTCHAR 5338
ENCODING 21847
SWIDTH 960 0
DWIDTH 10 0
BBX 10 10 0 -2
BITMAP
07c0
f4c0
d180
d600
d5c0
d4c0
f6c0
0cc0
0fc0
0000
ENDCHAR
STARTCHAR 5335
ENCODING 21852
SWIDTH 960 0
DWIDTH 10 0
BBX 10 10 0 -2
BITMAP
1fc0
f6c0
d580
db40
d000
dfc0
f6c0
0d80
1b40
0000
ENDCHAR
STARTCHAR 533b
ENCODING 21853
SWIDTH 960 0
DWIDTH 10 0
BBX 10 10 0 -2
BITMAP
0600
edc0
ad40
bf40
ad40
ad40
efc0
3500
0dc0
0000
ENDCHAR
STARTCHAR 5332
ENCODING 21859
SWIDTH 960 0
DWIDTH 10 0
BBX 10 10 0 -2
BITMAP
3000
ddc0
db40
dd40
db40
dd40
db40
3dc0
0300
0000
ENDCHAR
STARTCHAR 5341
ENCODING 21883
SWIDTH 960 0
DWIDTH 10 0
BBX 10 10 0 -2
BITMAP
0c00
7f80
1a00
ffc0
d540
0c00
7f80
6180
7f80
0000
ENDCHAR
STARTCHAR 5346
ENCODING 21884
SWIDTH 960 0
DWIDTH 10 0
BBX 10 10 0 -2
BITMAP
0300
f7c0
d680
dfc0
db40
d7c0
f540
0d40
0300
0000
ENDCHAR
STARTCHAR 5342
ENCODING 21886
SWIDTH 960 0
DWIDTH 10 0
BBX 10 10 0 -2
BITMAP
0680
fd80
d5c0
de80
d580
d680
fd80
0d40
0d40
0000
ENDCHAR
STARTCHAR 533d
ENCODING 21888
SWIDTH 960 0
DWIDTH 10 0
BBX 10 10 0 -2
BITMAP
0300
f7c0
d4c0
d380
d680
d300
f780
0ec0
0780
0000
ENDCHAR
STARTCHAR 5347
ENCODING 21891
SWIDTH 960 0
DWIDTH 10 0
BBX 10 10 0 -2
BITMAP
0600
efc0
a600
afc0
ad40
af40
eac0
1f40
1ac0
0000
ENDCHAR
STARTCHAR 4131
ENCODING 21892
SWIDTH 960 0
DWIDTH 10 0
BBX 10 10 0 -2
BITMAP
3300
ffc0
0c00
3f00
ffc0
3500
ffc0
6180
7f80
0000
ENDCHAR
STARTCHAR 5349
ENCODING 21895
SWIDTH 960 0
DWIDTH 10 0
BBX 10 10 0 -2
BITMAP
0cc0
ff40
d540
df40
dd40
df40
f4c0
1ec0
35c0
0000
ENDCHAR
STARTCHAR 3922
ENCODING 21897
SWIDTH 960 0
DWIDTH 10 0
BBX 10 10 0 -2
BITMAP
06c0
f6c0
d5c0
dc00
d5c0
d680
d5c0
f580
0d40
0000
ENDCHAR
STARTCHAR 533f
ENCODING 21898
SWIDTH 960 0
DWIDTH 10 0
BBX 10 10 0 -2
BITMAP
0340
e300
afc0
ab00
ad40
ab40
ae80
ea80
3740
0000
ENDCHAR
STARTCHAR 437d
ENCODING 21899
SWIDTH 960 0
DWIDTH 10 0
BBX 10 10 0 -2
BITMAP
0d80
ffc0
d580
d400
d7c0
d300
f7c0
0780
0d40
0000
ENDCHAR
STARTCHAR 5343
ENCODING 21912
SWIDTH 960 0
DWIDTH 10 0
BBX 10 10 0 -2
BITMAP
0d40
f7c0
d000
d7c0
d600
d7c0
f540
0d40
0d40
0000
ENDCHAR
STARTCHAR 533c
ENCODING 21913
SWIDTH 960 0
DWIDTH 10 0
BBX 10 10 0 -2
BITMAP
0780
f580
dfc0
d600
d540
d680
fd80
06c0
1d00
0000
ENDCHAR
STARTCHAR 342d
ENCODING 21914
SWIDTH 960 0
DWIDTH 10 0
BBX 10 10 0 -2
BITMAP
0700
f500
df80
d580
d580
dfc0
d600
f500
19c0
0000
ENDCHAR
STARTCHAR 346e
ENCODING 21916
SWIDTH 960 0
DWIDTH 10 0
BBX 10 10 0 -2
BITMAP
0c00
ffc0
7f80
3300
3f00
1a00
ffc0
3300
3f00
0000
ENDCHAR
STARTCHAR 3365
ENCODING 21917
SWIDTH 960 0
DWIDTH 10 0
BBX 10 10 0 -2
BITMAP
0f80
f580
d780
d780
d600
d7c0
dac0
f740
0180
0000
ENDCHAR
STARTCHAR 5344
ENCODING 21918
SWIDTH 960 0
DWIDTH 10 0
BBX 10 10 0 -2
BITMAP
0c00
efc0
eb40
ef40
eb40
ef40
eb40
1dc0
1b00
0000
ENDCHAR
STARTCHAR 5340
ENCODING 21919
SWIDTH 960 0
DWIDTH 10 0
BBX 10 10 0 -2
BITMAP
1fc0
fac0
dfc0
d580
d780
d580
f780
0d80
0d80
0000
ENDCHAR
STARTCHAR 3776
ENCODING 21927
SWIDTH 960 0
DWIDTH 10 0
BBX 10 10 0 -2
BITMAP
0600
ffc0
d8c0
d780
d580
d780
f580
0d80
1fc0
0000
ENDCHAR
STARTCHAR 534a
ENCODING 21928
SWIDTH 960 0
DWIDTH 10 0
BBX 10 10 0 -2
BITMAP
0300
f7c0
d780
d000
d7c0
d4c0
f680
0680
0dc0
0000
ENDCHAR
STARTCHAR 5348
ENCODING 21929
SWIDTH 960 0
DWIDTH 10 0
BBX 10 10 0 -2
BITMAP
0f00
f680
d540
d000
d740
d540
f780
0d40
0d40
0000
ENDCHAR
STARTCHAR 4153
ENCODING 21930
SWIDTH 960 0
DWIDTH 10 0
BBX 10 10 0 -2
BITMAP
0c00
ffc0
0c00
7580
0c00
ffc0
6680
6d00
f1c0
0000
ENDCHAR
STARTCHAR 354a
ENCODING 21931
SWIDTH 960 0
DWIDTH 10 0
BBX 10 10 0 -2
BITMAP
0dc0
fec0
d540
dec0
d000
d600
ffc0
0d00
39c0
0000
ENDCHAR
STARTCHAR 362c
ENCODING 21932
SWIDTH 960 0
DWIDTH 10 0
BBX 10 10 0 -2
BITMAP
3f00
0c00
ffc0
3300
eec0
0000
7f80
6e80
6380
0000
ENDCHAR
STARTCHAR 5345
ENCODING 21934
SWIDTH 960 0
DWIDTH 10 0
BBX 10 10 0 -2
BITMAP
fbc0
dac0
fbc0
7f80
6d80
7f80
0c00
ffc0
0c00
0000
ENDCHAR
STARTCHAR 3674
ENCODING 21936
SWIDTH 960 0
DWIDTH 10 0
BBX 10 10 0 -2
BITMAP
0700
f580
dac0
d780
d580
d780
d540
f580
1ec0
0000
ENDCHAR
STARTCHAR 3144
ENCODING 21942
SWIDTH 960 0
DWIDTH 10 0
BBX 10 10 0 -2
BITMAP
6980
3500
ffc0
d340
3f00
1800
7f80
6180
7f80
0000
ENDCHAR
STARTCHAR 534e
ENCODING 21956
SWIDTH 960 0
DWIDTH 10 0
BBX 10 10 0 -2
BITMAP
1fc0
f300
d7c0
d4c0
d7c0
d780
f680
0300
1ec0
0000
ENDCHAR
STARTCHAR 534c
ENCODING 21957
SWIDTH 960 0
DWIDTH 10 0
BBX 10 10 0 -2
BITMAP
0600
f780
d580
d780
d680
dfc0
f600
0d00
19c0
0000
ENDCHAR
STARTCHAR 5427
ENCODING 21959
SWIDTH 960 0
DWIDTH 10 0
BBX 10 10 0 -2
BITMAP
0c00
ffc0
6d80
d540
ffc0
d340
df40
c0c0
ffc0
0000
ENDCHAR
STARTCHAR 5351
ENCODING 21972
SWIDTH 960 0
DWIDTH 10 0
BBX 10 10 0 -2
BITMAP
0d80
f600
d7c0
d680
db80
da80
dfc0
f680
0cc0
0000
ENDCHAR
STARTCHAR 534b
ENCODING 21978
SWIDTH 960 0
DWIDTH 10 0
BBX 10 10 0 -2
BITMAP
0600
f780
d580
d7c0
d400
d7c0
f0c0
3540
01c0
0000
ENDCHAR
STARTCHAR 534f
ENCODING 21980
SWIDTH 960 0
DWIDTH 10 0
BBX 10 10 0 -2
BITMAP
0680
f780
dfc0
d600
db80
d000
f780
0d80
0f80
0000
ENDCHAR
STARTCHAR 534d
ENCODING 21983
SWIDTH 960 0
DWIDTH 10 0
BBX 10 10 0 -2
BITMAP
0cc0
f680
d7c0
d300
d7c0
d600
f780
1b00
0fc0
0000
ENDCHAR
STARTCHAR 3b4c
ENCODING 21987
SWIDTH 960 0
DWIDTH 10 0
BBX 10 10 0 -2
BITMAP
f7c0
d0c0
f740
00c0
f740
d540
f740
d0c0
d1c0
0000
ENDCHAR
STARTCHAR 5350
ENCODING 21988
SWIDTH 960 0
DWIDTH 10 0
BBX 10 10 0 -2
BITMAP
0d40
f7c0
d600
dfc0
d540
d7c0
f300
03c0
0f40
0000
ENDCHAR
STARTCHAR 5353
ENCODING 22007
SWIDTH 960 0
DWIDTH 10 0
BBX 10 10 0 -2
BITMAP
0d80
fe80
d5c0
df40
d540
d740
f580
1b40
1b40
0000
ENDCHAR
STARTCHAR 5358
ENCODING 22009
SWIDTH 960 0
DWIDTH 10 0
BBX 10 10 0 -2
BITMAP
1980
f5c0
d980
d5c0
d3c0
dd80
f5c0
0d80
1bc0
0000
ENDCHAR
STARTCHAR 5356
ENCODING 22013
SWIDTH 960 0
DWIDTH 10 0
BBX 10 10 0 -2
BITMAP
0d00
efc0
ad40
ae00
aa80
ae80
ed80
1f40
3540
0000
ENDCHAR
STARTCHAR 5355
ENCODING 22014
SWIDTH 960 0
DWIDTH 10 0
BBX 10 10 0 -2
BITMAP
0d00
f5c0
de00
d500
d7c0
da80
dbc0
f680
0d40
0000
ENDCHAR
STARTCHAR 4332
ENCODING 22022
SWIDTH 960 0
DWIDTH 10 0
BBX 10 10 0 -2
BITMAP
0d00
ffc0
da80
df80
d600
df80
f600
0d00
39c0
0000
ENDCHAR
STARTCHAR 3245
ENCODING 22025
SWIDTH 960 0
DWIDTH 10 0
BBX 10 10 0 -2
BITMAP
0c00
ffc0
0c00
7f80
3300
ffc0
3180
fbc0
6bc0
0000
ENDCHAR
STARTCHAR 5352
ENCODING 22036
SWIDTH 960 0
DWIDTH 10 0
BBX 10 10 0 -2
BITMAP
1fc0
e800
ab80
aa80
afc0
ad40
efc0
1800
1fc0
0000
ENDCHAR
STARTCHAR 5354
ENCODING 22038
SWIDTH 960 0
DWIDTH 10 0
BBX 10 10 0 -2
BITMAP
0300
f7c0
d300
d7c0
d680
d780
f680
0780
0cc0
0000
ENDCHAR
STARTCHAR 3e28
ENCODING 22039
SWIDTH 960 0
DWIDTH 10 0
BBX 10 10 0 -2
BITMAP
6d80
ffc0
dec0
6000
7f00
60c0
7fc0
3300
3f00
0000
ENDCHAR
STARTCHAR 3133
ENCODING 22040
SWIDTH 960 0
DWIDTH 10 0
BBX 10 10 0 -2
BITMAP
0380
f300
d7c0
d500
d5c0
d400
f540
0d80
1bc0
0000
ENDCHAR
STARTCHAR 5357
ENCODING 22043
SWIDTH 960 0
DWIDTH 10 0
BBX 10 10 0 -2
BITMAP
0600
7fc0
e000
ad80
afc0
ad80
eec0
6dc0
cd80
0000
ENDCHAR
STARTCHAR 325e
ENCODING 22057
SWIDTH 960 0
DWIDTH 10 0
BBX 10 10 0 -2
BITMAP
0d00
ffc0
ed00
ffc0
ea80
ffc0
ea80
3fc0
0600
0000
ENDCHAR
STARTCHAR 5362
ENCODING 22063
SWIDTH 960 0
DWIDTH 10 0
BBX 10 10 0 -2
BITMAP
0300
f780
d5c0
d780
d540
d540
f7c0
0d40
1b40
0000
ENDCHAR
STARTCHAR 3e7c
ENCODING 22065
SWIDTH 960 0
DWIDTH 10 0
BBX 10 10 0 -2
BITMAP
3fc0
f0c0
dfc0
d540
d7c0
f300
3fc0
6b40
d8c0
0000
ENDCHAR
STARTCHAR 535e
ENCODING 22066
SWIDTH 960 0
DWIDTH 10 0
BBX 10 10 0 -2
BITMAP
0dc0
ff40
d5c0
df40
db40
dfc0
f540
1f40
0d40
0000
ENDCHAR
STARTCHAR 535c
ENCODING 22068
SWIDTH 960 0
DWIDTH 10 0
BBX 10 10 0 -2
BITMAP
0d40
ff80
ddc0
d700
dd00
d7c0
f540
0fc0
18c0
0000
ENDCHAR
STARTCHAR 535d
ENCODING 22070
SWIDTH 960 0
DWIDTH 10 0
BBX 10 10 0 -2
BITMAP
1ac0
ff80
ab00
afc0
ab40
ab40
bf40
eac0
3340
0000
ENDCHAR
STARTCHAR 535f
ENCODING 22072
SWIDTH 960 0
DWIDTH 10 0
BBX 10 10 0 -2
BITMAP
1800
efc0
ba80
afc0
aa80
aa80
ffc0
0000
3540
0000
ENDCHAR
STARTCHAR 313d
ENCODING 22082
SWIDTH 960 0
DWIDTH 10 0
BBX 10 10 0 -2
BITMAP
0d80
ffc0
d780
d580
d780
d300
ffc0
0d00
0700
0000
ENDCHAR
STARTCHAR 4139
ENCODING 22092
SWIDTH 960 0
DWIDTH 10 0
BBX 10 10 0 -2
BITMAP
0680
f7c0
d540
d7c0
d540
d7c0
f680
0680
0780
0000
ENDCHAR
STARTCHAR 5359
ENCODING 22094
SWIDTH 960 0
DWIDTH 10 0
BBX 10 10 0 -2
BITMAP
0300
f7c0
d300
d7c0
d4c0
d780
f780
0300
0fc0
0000
ENDCHAR
STARTCHAR 535a
ENCODING 22096
SWIDTH 960 0
DWIDTH 10 0
BBX 10 10 0 -2
BITMAP
7b80
7b80
0000
7f80
0c00
ffc0
0000
7b80
7b80
0000
ENDCHAR
STARTCHAR 337a
ENCODING 22107
SWIDTH 960 0
DWIDTH 10 0
BBX 10 10 0 -2
BITMAP
03c0
0d00
f7c0
d000
d7c0
d540
d6c0
f540
0fc0
0000
ENDCHAR
STARTCHAR 5361
ENCODING 22116
SWIDTH 960 0
DWIDTH 10 0
BBX 10 10 0 -2
BITMAP
0680
f7c0
d680
d540
d780
d000
f7c0
0300
0d40
0000
ENDCHAR
STARTCHAR 346f
ENCODING 22120
SWIDTH 960 0
DWIDTH 10 0
BBX 10 10 0 -2
BITMAP
7b80
6a80
7b80
0c00
ffc0
6180
fbc0
6a80
7b80
0000
ENDCHAR
STARTCHAR 5364
ENCODING 22122
SWIDTH 960 0
DWIDTH 10 0
BBX 10 10 0 -2
BITMAP
0780
f680
d7c0
d540
d7c0
d300
f7c0
0780
0d40
0000
ENDCHAR
STARTCHAR 5360
ENCODING 22123
SWIDTH 960 0
DWIDTH 10 0
BBX 10 10 0 -2
BITMAP
0300
f7c0
d680
d7c0
d680
d780
f000
1ac0
1b40
0000
ENDCHAR
STARTCHAR 5363
ENCODING 22124
SWIDTH 960 0
DWIDTH 10 0
BBX 10 10 0 -2
BITMAP
0d00
efc0
aa80
a000
afc0
ae80
ab40
e600
1fc0
0000
ENDCHAR
STARTCHAR 4a2e
ENCODING 22132
SWIDTH 960 0
DWIDTH 10 0
BBX 10 10 0 -2
BITMAP
0600
ffc0
aa80
bfc0
a980
af80
e980
1f80
30c0
0000
ENDCHAR
STARTCHAR 4655
ENCODING 22136
SWIDTH 960 0
DWIDTH 10 0
BBX 10 10 0 -2
BITMAP
0dc0
1e80
f5c0
db40
dbc0
df40
d5c0
f400
0f40
0000
ENDCHAR
STARTCHAR 4838
ENCODING 22138
SWIDTH 960 0
DWIDTH 10 0
BBX 10 10 0 -2
BITMAP
0dc0
ff00
dbc0
df40
d540
df40
f540
1f40
0cc0
0000
ENDCHAR
STARTCHAR 5366
ENCODING 22144
SWIDTH 960 0
DWIDTH 10 0
BBX 10 10 0 -2
BITMAP
0600
ffc0
b540
aa80
a000
af80
ea80
3fc0
0600
0e00
ENDCHAR
STARTCHAR 5365
ENCODING 22150
SWIDTH 960 0
DWIDTH 10 0
BBX 10 10 0 -2
BITMAP
0680
f7c0
d300
d7c0
d780
d000
f7c0
0d40
0dc0
0000
ENDCHAR
STARTCHAR 3345
ENCODING 22151
SWIDTH 960 0
DWIDTH 10 0
BBX 10 10 0 -2
BITMAP
0d80
ffc0
ed80
ffc0
ed80
fb40
ed80
ed80
3680
0000
ENDCHAR
STARTCHAR 5367
ENCODING 22154
SWIDTH 960 0
DWIDTH 10 0
BBX 10 10 0 -2
BITMAP
0300
f780
d680
d7c0
d540
d7c0
f000
1fc0
0680
0000
ENDCHAR
STARTCHAR 536a
ENCODING 22159
SWIDTH 960 0
DWIDTH 10 0
BBX 10 10 0 -2
BITMAP
0f80
e600
afc0
a700
afc0
a6c0
ab80
ee00
1bc0
0000
ENDCHAR
STARTCHAR 5369
ENCODING 22164
SWIDTH 960 0
DWIDTH 10 0
BBX 10 10 0 -2
BITMAP
0f80
e600
afc0
ab40
af80
a600
ab80
ee00
1bc0
0000
ENDCHAR
STARTCHAR 5368
ENCODING 22176
SWIDTH 960 0
DWIDTH 10 0
BBX 10 10 0 -2
BITMAP
0ec0
eac0
ad40
af40
ad40
ad40
eb40
0cc0
1ec0
0000
ENDCHAR
STARTCHAR 4739
ENCODING 22178
SWIDTH 960 0
DWIDTH 10 0
BBX 10 10 0 -2
BITMAP
0c00
ffc0
3300
ffc0
dac0
7580
ffc0
7700
ddc0
0000
ENDCHAR
STARTCHAR 536b
ENCODING 22181
SWIDTH 960 0
DWIDTH 10 0
BBX 10 10 0 -2
BITMAP
0680
f7c0
d680
d780
d7c0
d680
f7c0
0000
0d40
0000
ENDCHAR
STARTCHAR 536c
ENCODING 22190
SWIDTH 960 0
DWIDTH 10 0
BBX 10 10 0 -2
BITMAP
6ec0
cd80
eec0
69c0
de80
0c00
ffc0
dac0
dec0
0000
ENDCHAR
STARTCHAR 536e
ENCODING 22196
SWIDTH 960 0
DWIDTH 10 0
BBX 10 10 0 -2
BITMAP
7b80
6a80
ffc0
dc00
db00
fdc0
d540
fd80
cd40
0000
ENDCHAR
STARTCHAR 536d
ENCODING 22198
SWIDTH 960 0
DWIDTH 10 0
BBX 10 10 0 -2
BITMAP
0ec0
f6c0
d000
d540
d000
d300
f7c0
0680
0f40
0000
ENDCHAR
STARTCHAR 5370
ENCODING 22204
SWIDTH 960 0
DWIDTH 10 0
BBX 10 10 0 -2
BITMAP
1f80
ed00
af80
aa80
af80
a180
edc0
1980
1d80
0000
ENDCHAR
STARTCHAR 5373
ENCODING 22208
SWIDTH 960 0
DWIDTH 10 0
BBX 10 10 0 -2
BITMAP
1b00
3fc0
ea80
bf80
b500
bfc0
e980
3d80
1980
0000
ENDCHAR
STARTCHAR 5371
ENCODING 22209
SWIDTH 960 0
DWIDTH 10 0
BBX 10 10 0 -2
BITMAP
1f80
ed00
ad00
af80
a300
bfc0
ea80
3fc0
0680
0000
ENDCHAR
STARTCHAR 536f
ENCODING 22210
SWIDTH 960 0
DWIDTH 10 0
BBX 10 10 0 -2
BITMAP
7b80
6a80
ffc0
3300
3f00
6180
fbc0
dac0
fbc0
0000
ENDCHAR
STARTCHAR 5372
ENCODING 22211
SWIDTH 960 0
DWIDTH 10 0
BBX 10 10 0 -2
BITMAP
1b40
fe80
b7c0
ae80
abc0
be80
ebc0
7e80
1bc0
0000
ENDCHAR
STARTCHAR 5374
ENCODING 22216
SWIDTH 960 0
DWIDTH 10 0
BBX 10 10 0 -2
BITMAP
0d00
efc0
ad80
aac0
af40
a000
efc0
0d80
1fc0
0000
ENDCHAR
STARTCHAR 5375
ENCODING 22222
SWIDTH 960 0
DWIDTH 10 0
BBX 10 10 0 -2
BITMAP
7a80
ecc0
bb80
aa80
bb80
a800
fb80
0680
6b80
0000
ENDCHAR
STARTCHAR 5376
ENCODING 22225
SWIDTH 960 0
DWIDTH 10 0
BBX 10 10 0 -2
BITMAP
1fc0
e8c0
afc0
aa80
afc0
aa00
efc0
36c0
3740
0000
ENDCHAR
STARTCHAR 5377
ENCODING 22227
SWIDTH 960 0
DWIDTH 10 0
BBX 10 10 0 -2
BITMAP
3dc0
e9c0
bd40
a780
aa00
bfc0
fac0
3540
3fc0
0000
ENDCHAR
STARTCHAR 5378
ENCODING 22231
SWIDTH 960 0
DWIDTH 10 0
BBX 10 10 0 -2
BITMAP
ffc0
c0c0
c0c0
c0c0
c0c0
c0c0
c0c0
c0c0
ffc0
0000
ENDCHAR
STARTCHAR 5145
ENCODING 22232
SWIDTH 960 0
DWIDTH 10 0
BBX 10 10 0 -2
BITMAP
ffc0
c0c0
df40
d340
df40
d0c0
d340
df40
c1c0
0000
ENDCHAR
STARTCHAR 3c7c
ENCODING 22234
SWIDTH 960 0
DWIDTH 10 0
BBX 10 10 0 -2
BITMAP
ffc0
c0c0
ccc0
ccc0
ccc0
dac0
d340
c0c0
ffc0
0000
ENDCHAR
STARTCHAR 3b4d
ENCODING 22235
SWIDTH 960 0
DWIDTH 10 0
BBX 10 10 0 -2
BITMAP
0000
ffc0
dac0
dac0
d6c0
e7c0
c0c0
c0c0
ffc0
0000
ENDCHAR
STARTCHAR 3273
ENCODING 22238
SWIDTH 960 0
DWIDTH 10 0
BBX 10 10 0 -2
BITMAP
ffc0
c0c0
df40
d340
d340
d340
df40
c0c0
ffc0
0000
ENDCHAR
STARTCHAR 3078
ENCODING 22240
SWIDTH 960 0
DWIDTH 10 0
BBX 10 10 0 -2
BITMAP
ffc0
c0c0
ccc0
df40
ccc0
dac0
d340
c0c0
ffc0
0000
ENDCHAR
STARTCHAR 4344
ENCODING 22243
SWIDTH 960 0
DWIDTH 10 0
BBX 10 10 0 -2
BITMAP
ffc0
c0c0
c6c0
df40
c6c0
dac0
c6c0
c0c0
ffc0
0000
ENDCHAR
STARTCHAR 5379
ENCODING 22254
SWIDTH 960 0
DWIDTH 10 0
BBX 10 10 0 -2
BITMAP
ffc0
c0c0
dac0
d740
f6c0
d6c0
d740
c0c0
ffc0
0000
ENDCHAR
STARTCHAR 3a24
ENCODING 22256
SWIDTH 960 0
DWIDTH 10 0
BBX 10 10 0 -2
BITMAP
ffc0
c0c0
ccc0
df40
ccc0
dec0
d540
c0c0
ffc0
0000
ENDCHAR
STARTCHAR 304f
ENCODING 22258
SWIDTH 960 0
DWIDTH 10 0
BBX 10 10 0 -2
BITMAP
ffc0
c0c0
dac0
df40
dac0
df40
dac0
d6c0
ffc0
0000
ENDCHAR
STARTCHAR 3f5e
ENCODING 22259
SWIDTH 960 0
DWIDTH 10 0
BBX 10 10 0 -2
BITMAP
ffc0
c0c0
d540
c340
dac0
ccc0
dac0
c0c0
ffc0
0000
ENDCHAR
STARTCHAR 537a
ENCODING 22265
SWIDTH 960 0
DWIDTH 10 0
BBX 10 10 0 -2
BITMAP
ffc0
ccc0
dac0
df40
e1c0
df40
cd40
ccc0
ffc0
0000
ENDCHAR
STARTCHAR 3847
ENCODING 22266
SWIDTH 960 0
DWIDTH 10 0
BBX 10 10 0 -2
BITMAP
ffc0
ccc0
df40
ccc0
df40
d340
df40
c0c0
ffc0
0000
ENDCHAR
STARTCHAR 3971
ENCODING 22269
SWIDTH 960 0
DWIDTH 10 0
BBX 10 10 0 -2
BITMAP
ffc0
c0c0
df40
ccc0
dec0
cd40
df40
c0c0
ffc0
0000
ENDCHAR
STARTCHAR 537c
ENCODING 22271
SWIDTH 960 0
DWIDTH 10 0
BBX 10 10 0 -2
BITMAP
ffc0
ccc0
ffc0
d8c0
df40
eb40
df40
db40
ffc0
0000
ENDCHAR
STARTCHAR 537b
ENCODING 22272
SWIDTH 960 0
DWIDTH 10 0
BBX 10 10 0 -2
BITMAP
ffc0
dac0
d740
ccc0
df40
d8c0
df40
d340
ffc0
0000
ENDCHAR
STARTCHAR 4a60
ENCODING 22275
SWIDTH 960 0
DWIDTH 10 0
BBX 10 10 0 -2
BITMAP
ffc0
cd40
df40
ccc0
df40
d540
df40
d540
ffc0
0000
ENDCHAR
STARTCHAR 537d
ENCODING 22276
SWIDTH 960 0
DWIDTH 10 0
BBX 10 10 0 -2
BITMAP
ffc0
df40
d8c0
dec0
dac0
ffc0
d340
df40
ffc0
0000
ENDCHAR
STARTCHAR 5421
ENCODING 22280
SWIDTH 960 0
DWIDTH 10 0
BBX 10 10 0 -2
BITMAP
ffc0
d540
eec0
ccc0
ffc0
df40
e9c0
df40
ffc0
0000
ENDCHAR
STARTCHAR 537e
ENCODING 22281
SWIDTH 960 0
DWIDTH 10 0
BBX 10 10 0 -2
BITMAP
ffc0
ccc0
df40
ffc0
dac0
ffc0
df40
ccc0
ffc0
0000
ENDCHAR
STARTCHAR 5422
ENCODING 22283
SWIDTH 960 0
DWIDTH 10 0
BBX 10 10 0 -2
BITMAP
ffc0
cd40
ffc0
ccc0
dac0
dac0
c340
dac0
ffc0
0000
ENDCHAR
STARTCHAR 5423
ENCODING 22285
SWIDTH 960 0
DWIDTH 10 0
BBX 10 10 0 -2
BITMAP
ffc0
ccc0
df40
cd40
dfc0
dac0
dfc0
c6c0
ffc0
0000
ENDCHAR
STARTCHAR 3777
ENCODING 22287
SWIDTH 960 0
DWIDTH 10 0
BBX 10 10 0 -2
BITMAP
ffc0
d540
dac0
ffc0
d340
fec0
dac0
d6c0
ffc0
0000
ENDCHAR
STARTCHAR 3160
ENCODING 22290
SWIDTH 960 0
DWIDTH 10 0
BBX 10 10 0 -2
BITMAP
ffc0
ccc0
df40
ffc0
d340
df40
dec0
d540
ffc0
0000
ENDCHAR
STARTCHAR 5424
ENCODING 22291
SWIDTH 960 0
DWIDTH 10 0
BBX 10 10 0 -2
BITMAP
ffc0
d340
df40
dac0
dec0
dac0
dec0
d340
ffc0
0000
ENDCHAR
STARTCHAR 5426
ENCODING 22294
SWIDTH 960 0
DWIDTH 10 0
BBX 10 10 0 -2
BITMAP
ffc0
d340
df40
ccc0
ffc0
d540
d340
df40
ffc0
0000
ENDCHAR
STARTCHAR 5425
ENCODING 22296
SWIDTH 960 0
DWIDTH 10 0
BBX 10 10 0 -2
BITMAP
ffc0
ccc0
df40
dac0
df40
c6c0
df40
c6c0
ffc0
0000
ENDCHAR
STARTCHAR 5428
ENCODING 22300
SWIDTH 960 0
DWIDTH 10 0
BBX 10 10 0 -2
BITMAP
ffc0
d540
df40
c0c0
ffc0
d540
dac0
eb40
ffc0
0000
ENDCHAR
STARTCHAR 455a
ENCODING 22303
SWIDTH 960 0
DWIDTH 10 0
BBX 10 10 0 -2
BITMAP
0c00
0c00
0c00
7f80
0c00
0c00
0c00
0c00
ffc0
0000
ENDCHAR
STARTCHAR 5429
ENCODING 22310
SWIDTH 960 0
DWIDTH 10 0
BBX 10 10 0 -2
BITMAP
6e00
6600
f600
6600
6600
6d00
7500
d980
30c0
0000
ENDCHAR
STARTCHAR 3035
ENCODING 22311
SWIDTH 960 0
DWIDTH 10 0
BBX 10 10 0 -2
BITMAP
7fc0
6000
6600
6600
6f80
6600
6600
c600
dfc0
0000
ENDCHAR
STARTCHAR 3a5f
ENCODING 22312
SWIDTH 960 0
DWIDTH 10 0
BBX 10 10 0 -2
BITMAP
1800
1800
ffc0
3300
7300
77c0
d300
3300
37c0
0000
ENDCHAR
STARTCHAR 373d
ENCODING 22317
SWIDTH 960 0
DWIDTH 10 0
BBX 10 10 0 -2
BITMAP
0c00
7f80
0c00
ffc0
0000
0c00
7f80
0c00
ffc0
0000
ENDCHAR
STARTCHAR 434f
ENCODING 22320
SWIDTH 960 0
DWIDTH 10 0
BBX 10 10 0 -2
BITMAP
6300
6d00
f5c0
6f40
6d40
6dc0
7500
ecc0
0fc0
0000
ENDCHAR
STARTCHAR 542a
ENCODING 22327
SWIDTH 960 0
DWIDTH 10 0
BBX 10 10 0 -2
BITMAP
6000
6fc0
f600
6700
6680
6600
7600
c600
0600
0000
ENDCHAR
STARTCHAR 542b
ENCODING 22328
SWIDTH 960 0
DWIDTH 10 0
BBX 10 10 0 -2
BITMAP
6300
6300
f540
6d40
6d40
6d40
7540
cd40
0fc0
0000
ENDCHAR
STARTCHAR 542d
ENCODING 22331
SWIDTH 960 0
DWIDTH 10 0
BBX 10 10 0 -2
BITMAP
6380
6e00
f400
6fc0
6d00
6d00
7500
cd00
1b00
0000
ENDCHAR
STARTCHAR 542e
ENCODING 22336
SWIDTH 960 0
DWIDTH 10 0
BBX 10 10 0 -2
BITMAP
6300
6300
f500
6dc0
6d00
6d00
7500
cd00
1fc0
0000
ENDCHAR
STARTCHAR 3a64
ENCODING 22338
SWIDTH 960 0
DWIDTH 10 0
BBX 10 10 0 -2
BITMAP
6fc0
6c00
f400
6fc0
6d40
6d40
7580
eb80
1ac0
0000
ENDCHAR
STARTCHAR 3651
ENCODING 22343
SWIDTH 960 0
DWIDTH 10 0
BBX 10 10 0 -2
BITMAP
6600
6600
f7c0
68c0
6740
60c0
7340
eec0
0380
0000
ENDCHAR
STARTCHAR 4b37
ENCODING 22346
SWIDTH 960 0
DWIDTH 10 0
BBX 10 10 0 -2
BITMAP
6300
6300
f7c0
6600
67c0
66c0
76c0
ccc0
19c0
0000
ENDCHAR
STARTCHAR 542c
ENCODING 22350
SWIDTH 960 0
DWIDTH 10 0
BBX 10 10 0 -2
BITMAP
6600
67c0
f4c0
6340
6300
6300
7680
c680
0cc0
0000
ENDCHAR
STARTCHAR 542f
ENCODING 22351
SWIDTH 960 0
DWIDTH 10 0
BBX 10 10 0 -2
BITMAP
6000
6fc0
f300
6300
6780
6d40
7300
c300
0300
0000
ENDCHAR
STARTCHAR 3a41
ENCODING 22352
SWIDTH 960 0
DWIDTH 10 0
BBX 10 10 0 -2
BITMAP
0c00
6d80
6d80
d540
d540
0c00
7f80
0c00
ffc0
0000
ENDCHAR
STARTCHAR 3923
ENCODING 22353
SWIDTH 960 0
DWIDTH 10 0
BBX 10 10 0 -2
BITMAP
6600
6fc0
f000
6f00
6d00
7500
6d00
db40
33c0
0000
ENDCHAR
STARTCHAR 5433
ENCODING 22369
SWIDTH 960 0
DWIDTH 10 0
BBX 10 10 0 -2
BITMAP
c600
dfc0
ea80
da00
dfc0
da80
ea80
db00
36c0
0000
ENDCHAR
STARTCHAR 3a25
ENCODING 22372
SWIDTH 960 0
DWIDTH 10 0
BBX 10 10 0 -2
BITMAP
6300
6fc0
f540
6fc0
6d40
6fc0
7300
e300
0300
0000
ENDCHAR
STARTCHAR 4333
ENCODING 22374
SWIDTH 960 0
DWIDTH 10 0
BBX 10 10 0 -2
BITMAP
6f80
6d80
f580
6f80
6d80
6d80
7780
e000
1fc0
0000
ENDCHAR
STARTCHAR 5430
ENCODING 22377
SWIDTH 960 0
DWIDTH 10 0
BBX 10 10 0 -2
BITMAP
6680
6680
f7c0
6680
6680
6780
7680
c680
0780
0000
ENDCHAR
STARTCHAR 445a
ENCODING 22378
SWIDTH 960 0
DWIDTH 10 0
BBX 10 10 0 -2
BITMAP
6000
6fc0
f300
6d40
6300
6fc0
7300
e300
0300
0000
ENDCHAR
STARTCHAR 5434
ENCODING 22399
SWIDTH 960 0
DWIDTH 10 0
BBX 10 10 0 -2
BITMAP
6680
6680
f7c0
6d80
6e80
6d80
7580
cd80
0d80
0000
ENDCHAR
STARTCHAR 3f62
ENCODING 22402
SWIDTH 960 0
DWIDTH 10 0
BBX 10 10 0 -2
BITMAP
3f00
0c00
7f80
3500
ffc0
3500
7f80
0c00
7f80
0000
ENDCHAR
STARTCHAR 5432
ENCODING 22408
SWIDTH 960 0
DWIDTH 10 0
BBX 10 10 0 -2
BITMAP
3680
6600
efc0
6300
61c0
0c00
7f80
0c00
ffc0
0000
ENDCHAR
STARTCHAR 5435
ENCODING 22409
SWIDTH 960 0
DWIDTH 10 0
BBX 10 10 0 -2
BITMAP
6c00
6fc0
e8c0
6f40
6d40
6f40
7580
ccc0
0fc0
0000
ENDCHAR
STARTCHAR 373f
ENCODING 22411
SWIDTH 960 0
DWIDTH 10 0
BBX 10 10 0 -2
BITMAP
fd40
6b40
fd40
68c0
69c0
0c00
7f80
0c00
ffc0
0000
ENDCHAR
STARTCHAR 5436
ENCODING 22419
SWIDTH 960 0
DWIDTH 10 0
BBX 10 10 0 -2
BITMAP
6600
6fc0
f600
6d80
6700
6d80
7300
c680
1cc0
0000
ENDCHAR
STARTCHAR 5437
ENCODING 22432
SWIDTH 960 0
DWIDTH 10 0
BBX 10 10 0 -2
BITMAP
6f80
6d80
f780
6d80
6f80
6c00
7680
cd00
1ec0
0000
ENDCHAR
STARTCHAR 3924
ENCODING 22434
SWIDTH 960 0
DWIDTH 10 0
BBX 10 10 0 -2
BITMAP
6380
6e00
f400
6fc0
6c00
75c0
6d40
db40
1bc0
0000
ENDCHAR
STARTCHAR 3340
ENCODING 22435
SWIDTH 960 0
DWIDTH 10 0
BBX 10 10 0 -2
BITMAP
6fc0
6000
f780
6d80
6f80
6d80
7780
e000
1fc0
0000
ENDCHAR
STARTCHAR 5439
ENCODING 22436
SWIDTH 960 0
DWIDTH 10 0
BBX 10 10 0 -2
BITMAP
6fc0
6300
f6c0
6fc0
6300
6780
7300
c300
0fc0
0000
ENDCHAR
STARTCHAR 543a
ENCODING 22442
SWIDTH 960 0
DWIDTH 10 0
BBX 10 10 0 -2
BITMAP
6cc0
6680
f7c0
6680
6680
6fc0
7680
c680
0d80
0000
ENDCHAR
STARTCHAR 543b
ENCODING 22448
SWIDTH 960 0
DWIDTH 10 0
BBX 10 10 0 -2
BITMAP
6600
6780
f600
6fc0
6000
6fc0
7700
c680
0600
0000
ENDCHAR
STARTCHAR 5438
ENCODING 22451
SWIDTH 960 0
DWIDTH 10 0
BBX 10 10 0 -2
BITMAP
6c00
6bc0
f400
6dc0
6d80
6d80
7580
cd80
0d80
0000
ENDCHAR
STARTCHAR 5431
ENCODING 22464
SWIDTH 960 0
DWIDTH 10 0
BBX 10 10 0 -2
BITMAP
3f00
0c00
ffc0
3500
f5c0
0c00
7f80
0c00
ffc0
0000
ENDCHAR
STARTCHAR 543c
ENCODING 22467
SWIDTH 960 0
DWIDTH 10 0
BBX 10 10 0 -2
BITMAP
6300
66c0
f7c0
6600
6780
6300
77c0
c680
0cc0
0000
ENDCHAR
STARTCHAR 543d
ENCODING 22470
SWIDTH 960 0
DWIDTH 10 0
BBX 10 10 0 -2
BITMAP
6700
6d00
efc0
6d40
6fc0
6d40
77c0
ccc0
19c0
0000
ENDCHAR
STARTCHAR 4b64
ENCODING 22475
SWIDTH 960 0
DWIDTH 10 0
BBX 10 10 0 -2
BITMAP
6fc0
6d40
f7c0
6d40
6fc0
6300
77c0
e300
0fc0
0000
ENDCHAR
STARTCHAR 3e6b
ENCODING 22478
SWIDTH 960 0
DWIDTH 10 0
BBX 10 10 0 -2
BITMAP
6340
6300
efc0
6b00
6b40
6f40
ea80
1a80
3740
0000
ENDCHAR
STARTCHAR 543f
ENCODING 22482
SWIDTH 960 0
DWIDTH 10 0
BBX 10 10 0 -2
BITMAP
6380
6f40
f540
6180
6fc0
6180
7680
c180
0380
0000
ENDCHAR
STARTCHAR 5440
ENCODING 22483
SWIDTH 960 0
DWIDTH 10 0
BBX 10 10 0 -2
BITMAP
6380
6f00
f6c0
6f00
6180
6fc0
7180
c680
0380
0000
ENDCHAR
STARTCHAR 543e
ENCODING 22484
SWIDTH 960 0
DWIDTH 10 0
BBX 10 10 0 -2
BITMAP
6340
6fc0
f300
6fc0
6d40
6fc0
7540
cfc0
0d40
0000
ENDCHAR
STARTCHAR 5442
ENCODING 22486
SWIDTH 960 0
DWIDTH 10 0
BBX 10 10 0 -2
BITMAP
6d80
6fc0
f580
6700
6d40
6d80
6d00
ed40
0dc0
0000
ENDCHAR
STARTCHAR 4738
ENCODING 22492
SWIDTH 960 0
DWIDTH 10 0
BBX 10 10 0 -2
BITMAP
6300
fbc0
7380
eb40
6300
0c00
7f80
0c00
ffc0
0000
ENDCHAR
STARTCHAR 3068
ENCODING 22495
SWIDTH 960 0
DWIDTH 10 0
BBX 10 10 0 -2
BITMAP
6340
6300
ffc0
6300
6d40
6d40
7180
ed80
06c0
0000
ENDCHAR
STARTCHAR 4956
ENCODING 22496
SWIDTH 960 0
DWIDTH 10 0
BBX 10 10 0 -2
BITMAP
6600
6fc0
f4c0
6f80
6cc0
6fc0
7300
efc0
0300
0000
ENDCHAR
STARTCHAR 5443
ENCODING 22499
SWIDTH 960 0
DWIDTH 10 0
BBX 10 10 0 -2
BITMAP
6300
6fc0
f680
6680
6d40
6300
77c0
c300
0300
0000
ENDCHAR
STARTCHAR 3e7d
ENCODING 22516
SWIDTH 960 0
DWIDTH 10 0
BBX 10 10 0 -2
BITMAP
6300
6fc0
f300
6b80
6a80
6a80
6b80
e800
1fc0
0000
ENDCHAR
STARTCHAR 3c39
ENCODING 22519
SWIDTH 960 0
DWIDTH 10 0
BBX 10 10 0 -2
BITMAP
6600
fa00
6f80
fa80
d680
fb80
6680
fa80
6dc0
0000
ENDCHAR
STARTCHAR 475d
ENCODING 22521
SWIDTH 960 0
DWIDTH 10 0
BBX 10 10 0 -2
BITMAP
6300
6fc0
f680
6fc0
6000
77c0
ecc0
0cc0
0fc0
0000
ENDCHAR
STARTCHAR 3470
ENCODING 22522
SWIDTH 960 0
DWIDTH 10 0
BBX 10 10 0 -2
BITMAP
3300
ffc0
3f00
3300
ffc0
3500
6e80
ccc0
7f80
0000
ENDCHAR
STARTCHAR 3a6b
ENCODING 22524
SWIDTH 960 0
DWIDTH 10 0
BBX 10 10 0 -2
BITMAP
6600
6fc0
f500
6980
6fc0
6180
7680
ee80
0380
0000
ENDCHAR
STARTCHAR 4b59
ENCODING 22528
SWIDTH 960 0
DWIDTH 10 0
BBX 10 10 0 -2
BITMAP
6fc0
68c0
efc0
6b00
6d40
6fc0
eb00
3540
37c0
0000
ENDCHAR
STARTCHAR 4632
ENCODING 22530
SWIDTH 960 0
DWIDTH 10 0
BBX 10 10 0 -2
BITMAP
6d80
3500
ffc0
d340
3f00
0c00
3f00
0c00
ffc0
0000
ENDCHAR
STARTCHAR 3778
ENCODING 22533
SWIDTH 960 0
DWIDTH 10 0
BBX 10 10 0 -2
BITMAP
fbc0
d6c0
fb40
d380
fac0
0c00
7f80
0c00
ffc0
0000
ENDCHAR
STARTCHAR 424f
ENCODING 22534
SWIDTH 960 0
DWIDTH 10 0
BBX 10 10 0 -2
BITMAP
6680
6d00
ffc0
6d00
6fc0
6d00
77c0
cd00
0fc0
0000
ENDCHAR
STARTCHAR 5441
ENCODING 22538
SWIDTH 960 0
DWIDTH 10 0
BBX 10 10 0 -2
BITMAP
ffc0
1a00
7380
1a00
ffc0
0c00
7f80
0c00
ffc0
0000
ENDCHAR
STARTCHAR 5444
ENCODING 22539
SWIDTH 960 0
DWIDTH 10 0
BBX 10 10 0 -2
BITMAP
6fc0
6d40
f7c0
6d40
6d40
6fc0
7540
cd40
1b40
0000
ENDCHAR
STARTCHAR 4244
ENCODING 22549
SWIDTH 960 0
DWIDTH 10 0
BBX 10 10 0 -2
BITMAP
f600
efc0
d680
eb80
c680
0c00
7f80
0c00
ffc0
0000
ENDCHAR
STARTCHAR 5445
ENCODING 22553
SWIDTH 960 0
DWIDTH 10 0
BBX 10 10 0 -2
BITMAP
6fc0
6680
f7c0
6d40
6fc0
6300
7780
c300
0fc0
0000
ENDCHAR
STARTCHAR 5446
ENCODING 22557
SWIDTH 960 0
DWIDTH 10 0
BBX 10 10 0 -2
BITMAP
6f80
6d80
f580
6fc0
68c0
6f40
7d40
df40
19c0
0000
ENDCHAR
STARTCHAR 5448
ENCODING 22561
SWIDTH 960 0
DWIDTH 10 0
BBX 10 10 0 -2
BITMAP
3780
6d80
efc0
6d80
6b40
0c00
3f00
0c00
ffc0
0000
ENDCHAR
STARTCHAR 4469
ENCODING 22564
SWIDTH 960 0
DWIDTH 10 0
BBX 10 10 0 -2
BITMAP
6fc0
6cc0
f7c0
6000
6fc0
6300
75c0
ed00
1bc0
0000
ENDCHAR
STARTCHAR 342e
ENCODING 22570
SWIDTH 960 0
DWIDTH 10 0
BBX 10 10 0 -2
BITMAP
6d80
6fc0
f580
6f80
6d80
6fc0
7680
ec00
0fc0
0000
ENDCHAR
STARTCHAR 7421
ENCODING 22575
SWIDTH 960 0
DWIDTH 10 0
BBX 10 10 0 -2
BITMAP
0c00
7f80
ffc0
3300
fbc0
3300
ffc0
3600
e7c0
0000
ENDCHAR
STARTCHAR 3161
ENCODING 22576
SWIDTH 960 0
DWIDTH 10 0
BBX 10 10 0 -2
BITMAP
6fc0
6a80
fb80
6b00
6fc0
6a80
7b80
eac0
1fc0
0000
ENDCHAR
STARTCHAR 4a73
ENCODING 22577
SWIDTH 960 0
DWIDTH 10 0
BBX 10 10 0 -2
BITMAP
37c0
7ac0
3600
ffc0
6b40
ff40
3680
7a80
3740
0000
ENDCHAR
STARTCHAR 3e6c
ENCODING 22580
SWIDTH 960 0
DWIDTH 10 0
BBX 10 10 0 -2
BITMAP
6f80
6d80
f780
6d80
6fc0
6c00
77c0
eb40
06c0
0000
ENDCHAR
STARTCHAR 4548
ENCODING 22581
SWIDTH 960 0
DWIDTH 10 0
BBX 10 10 0 -2
BITMAP
66c0
6f80
f680
6fc0
6600
67c0
76c0
eac0
07c0
0000
ENDCHAR
STARTCHAR 3a66
ENCODING 22586
SWIDTH 960 0
DWIDTH 10 0
BBX 10 10 0 -2
BITMAP
6f80
6a80
ff80
6a80
6f80
6d00
ed80
3540
1b00
0000
ENDCHAR
STARTCHAR 544e
ENCODING 22589
SWIDTH 960 0
DWIDTH 10 0
BBX 10 10 0 -2
BITMAP
6fc0
6d40
f7c0
6000
6fc0
6300
75c0
cd00
1fc0
0000
ENDCHAR
STARTCHAR 4a3d
ENCODING 22592
SWIDTH 960 0
DWIDTH 10 0
BBX 10 10 0 -2
BITMAP
6fc0
68c0
ffc0
6a80
6fc0
6a80
7fc0
da80
3580
0000
ENDCHAR
STARTCHAR 4e5d
ENCODING 22593
SWIDTH 960 0
DWIDTH 10 0
BBX 10 10 0 -2
BITMAP
3f00
3500
3f00
d540
3f00
6d80
df40
0c00
ffc0
0000
ENDCHAR
STARTCHAR 3274
ENCODING 22602
SWIDTH 960 0
DWIDTH 10 0
BBX 10 10 0 -2
BITMAP
6c00
6f80
fa80
6f80
6a80
6f80
7680
eec0
1bc0
0000
ENDCHAR
STARTCHAR 544a
ENCODING 22603
SWIDTH 960 0
DWIDTH 10 0
BBX 10 10 0 -2
BITMAP
d540
3300
6a80
ffc0
c0c0
0c00
7f80
0c00
ffc0
0000
ENDCHAR
STARTCHAR 413a
ENCODING 22609
SWIDTH 960 0
DWIDTH 10 0
BBX 10 10 0 -2
BITMAP
6bc0
fd40
d5c0
fd40
33c0
ed40
3f00
0c00
ffc0
0000
ENDCHAR
STARTCHAR 544d
ENCODING 22610
SWIDTH 960 0
DWIDTH 10 0
BBX 10 10 0 -2
BITMAP
c300
df80
f500
d7c0
dd80
d7c0
f580
de80
0380
0000
ENDCHAR
STARTCHAR 4563
ENCODING 22612
SWIDTH 960 0
DWIDTH 10 0
BBX 10 10 0 -2
BITMAP
6d80
6fc0
f700
6d80
6b40
6000
7780
ed80
0f80
0000
ENDCHAR
STARTCHAR 4549
ENCODING 22615
SWIDTH 960 0
DWIDTH 10 0
BBX 10 10 0 -2
BITMAP
e700
0d80
db40
6300
db40
0c00
7f80
0c00
ffc0
0000
ENDCHAR
STARTCHAR 4564
ENCODING 22616
SWIDTH 960 0
DWIDTH 10 0
BBX 10 10 0 -2
BITMAP
6300
6fc0
fb00
6bc0
6fc0
7b40
ebc0
1ac0
37c0
0000
ENDCHAR
STARTCHAR 4839
ENCODING 22617
SWIDTH 960 0
DWIDTH 10 0
BBX 10 10 0 -2
BITMAP
6600
6fc0
f780
6000
6fc0
68c0
7b40
eb40
19c0
0000
ENDCHAR
STARTCHAR 444d
ENCODING 22618
SWIDTH 960 0
DWIDTH 10 0
BBX 10 10 0 -2
BITMAP
6fc0
68c0
f780
66c0
6d80
6700
6d80
e340
0e00
0000
ENDCHAR
STARTCHAR 3a49
ENCODING 22622
SWIDTH 960 0
DWIDTH 10 0
BBX 10 10 0 -2
BITMAP
0c00
ffc0
dac0
3f00
1a00
ffc0
6e80
ccc0
3f00
0000
ENDCHAR
STARTCHAR 5449
ENCODING 22626
SWIDTH 960 0
DWIDTH 10 0
BBX 10 10 0 -2
BITMAP
6600
6f80
f580
6fc0
6c00
6fc0
70c0
cd40
01c0
0000
ENDCHAR
STARTCHAR 3176
ENCODING 22633
SWIDTH 960 0
DWIDTH 10 0
BBX 10 10 0 -2
BITMAP
6c00
6f80
f000
6f00
6f00
7000
ef80
1a80
3fc0
0000
ENDCHAR
STARTCHAR 4536
ENCODING 22635
SWIDTH 960 0
DWIDTH 10 0
BBX 10 10 0 -2
BITMAP
6300
6fc0
f300
6780
6680
6680
77c0
e680
0cc0
0000
ENDCHAR
STARTCHAR 544b
ENCODING 22640
SWIDTH 960 0
DWIDTH 10 0
BBX 10 10 0 -2
BITMAP
d800
3fc0
da80
6fc0
c180
0c00
7f80
0c00
ffc0
0000
ENDCHAR
STARTCHAR 5447
ENCODING 22642
SWIDTH 960 0
DWIDTH 10 0
BBX 10 10 0 -2
BITMAP
6c00
6fc0
ea80
6680
6fc0
6600
77c0
dac0
0d40
0000
ENDCHAR
STARTCHAR 3f50
ENCODING 22645
SWIDTH 960 0
DWIDTH 10 0
BBX 10 10 0 -2
BITMAP
0600
7fc0
6a80
7f80
6d40
6b80
6dc0
6600
dfc0
0000
ENDCHAR
STARTCHAR 544f
ENCODING 22649
SWIDTH 960 0
DWIDTH 10 0
BBX 10 10 0 -2
BITMAP
3180
fb00
7bc0
fa80
3680
0c00
7f80
0c00
ffc0
0000
ENDCHAR
STARTCHAR 3d4e
ENCODING 22654
SWIDTH 960 0
DWIDTH 10 0
BBX 10 10 0 -2
BITMAP
3600
fb80
6e80
d780
75c0
0c00
7f80
0c00
ffc0
0000
ENDCHAR
STARTCHAR 362d
ENCODING 22659
SWIDTH 960 0
DWIDTH 10 0
BBX 10 10 0 -2
BITMAP
6600
6fc0
f500
6fc0
6d80
6d80
7780
cd00
1bc0
0000
ENDCHAR
STARTCHAR 5450
ENCODING 22661
SWIDTH 960 0
DWIDTH 10 0
BBX 10 10 0 -2
BITMAP
fbc0
d980
fbc0
3340
fb00
0c00
7f80
0c00
ffc0
0000
ENDCHAR
STARTCHAR 4a68
ENCODING 22675
SWIDTH 960 0
DWIDTH 10 0
BBX 10 10 0 -2
BITMAP
1a00
ffc0
3f00
3300
ffc0
3500
6e80
ccc0
3f00
0000
ENDCHAR
STARTCHAR 417d
ENCODING 22679
SWIDTH 960 0
DWIDTH 10 0
BBX 10 10 0 -2
BITMAP
6680
6fc0
f540
6fc0
6d40
6fc0
7680
e680
0780
0000
ENDCHAR
STARTCHAR 4446
ENCODING 22684
SWIDTH 960 0
DWIDTH 10 0
BBX 10 10 0 -2
BITMAP
f680
d7c0
e740
d580
ef40
cc00
3f00
0c00
ffc0
0000
ENDCHAR
STARTCHAR 5452
ENCODING 22687
SWIDTH 960 0
DWIDTH 10 0
BBX 10 10 0 -2
BITMAP
6380
6300
f7c0
6d00
6fc0
7500
cdc0
0d80
1bc0
0000
ENDCHAR
STARTCHAR 4b4f
ENCODING 22696
SWIDTH 960 0
DWIDTH 10 0
BBX 10 10 0 -2
BITMAP
7f80
6d80
7f80
0c00
ffc0
d540
7f80
0c00
ffc0
0000
ENDCHAR
STARTCHAR 5453
ENCODING 22699
SWIDTH 960 0
DWIDTH 10 0
BBX 10 10 0 -2
BITMAP
d980
d740
ed80
d980
df80
c300
efc0
8300
0d00
0000
ENDCHAR
STARTCHAR 5458
ENCODING 22702
SWIDTH 960 0
DWIDTH 10 0
BBX 10 10 0 -2
BITMAP
f600
efc0
d680
eb80
c680
0c00
3f80
0c00
ffc0
0000
ENDCHAR
STARTCHAR 4a2f
ENCODING 22707
SWIDTH 960 0
DWIDTH 10 0
BBX 10 10 0 -2
BITMAP
0600
dfc0
da80
ffc0
d980
df80
e980
df80
30c0
0000
ENDCHAR
STARTCHAR 5457
ENCODING 22712
SWIDTH 960 0
DWIDTH 10 0
BBX 10 10 0 -2
BITMAP
6d80
6fc0
f680
6f80
6700
6fc0
7680
da80
0780
0000
ENDCHAR
STARTCHAR 5451
ENCODING 22713
SWIDTH 960 0
DWIDTH 10 0
BBX 10 10 0 -2
BITMAP
ddc0
d540
fdc0
d0c0
d740
d540
f740
b540
3740
0000
ENDCHAR
STARTCHAR 5454
ENCODING 22714
SWIDTH 960 0
DWIDTH 10 0
BBX 10 10 0 -2
BITMAP
6600
6fc0
f5c0
6d40
6fc0
6d40
6fc0
e680
0cc0
0000
ENDCHAR
STARTCHAR 5456
ENCODING 22715
SWIDTH 960 0
DWIDTH 10 0
BBX 10 10 0 -2
BITMAP
6300
6fc0
f680
6d40
6fc0
6000
77c0
cd40
0fc0
0000
ENDCHAR
STARTCHAR 3a26
ENCODING 22718
SWIDTH 960 0
DWIDTH 10 0
BBX 10 10 0 -2
BITMAP
7780
ea80
7740
d680
6740
0c00
7f80
0c00
ffc0
0000
ENDCHAR
STARTCHAR 4a49
ENCODING 22721
SWIDTH 960 0
DWIDTH 10 0
BBX 10 10 0 -2
BITMAP
7b00
6fc0
7a80
efc0
7b00
0c00
3f00
0c00
ffc0
0000
ENDCHAR
STARTCHAR 5459
ENCODING 22725
SWIDTH 960 0
DWIDTH 10 0
BBX 10 10 0 -2
BITMAP
0c00
ffc0
3600
efc0
7500
cfc0
7f80
0c00
ffc0
0000
ENDCHAR
STARTCHAR 4345
ENCODING 22727
SWIDTH 960 0
DWIDTH 10 0
BBX 10 10 0 -2
BITMAP
6300
6fc0
f540
6cc0
6fc0
6680
7780
e680
0fc0
0000
ENDCHAR
STARTCHAR 3275
ENCODING 22730
SWIDTH 960 0
DWIDTH 10 0
BBX 10 10 0 -2
BITMAP
6600
6fc0
fa80
6f80
6600
6fc0
ed40
1d80
36c0
0000
ENDCHAR
STARTCHAR 3e6d
ENCODING 22732
SWIDTH 960 0
DWIDTH 10 0
BBX 10 10 0 -2
BITMAP
0600
dfc0
e980
d740
cd00
dfc0
cd00
ed80
36c0
0000
ENDCHAR
STARTCHAR 545b
ENCODING 22737
SWIDTH 960 0
DWIDTH 10 0
BBX 10 10 0 -2
BITMAP
7bc0
66c0
fb40
d980
7740
0c00
3f00
0c00
ffc0
0000
ENDCHAR
STARTCHAR 545a
ENCODING 22739
SWIDTH 960 0
DWIDTH 10 0
BBX 10 10 0 -2
BITMAP
ffc0
dd40
d7c0
dd80
d6c0
0c00
7f80
0c00
ffc0
0000
ENDCHAR
STARTCHAR 3968
ENCODING 22741
SWIDTH 960 0
DWIDTH 10 0
BBX 10 10 0 -2
BITMAP
0300
6fc0
6780
f000
6fc0
6700
75c0
e680
1d40
0000
ENDCHAR
STARTCHAR 545c
ENCODING 22743
SWIDTH 960 0
DWIDTH 10 0
BBX 10 10 0 -2
BITMAP
6600
6f80
e9c0
6f80
6b40
6000
6f80
da80
3fc0
0000
ENDCHAR
STARTCHAR 545e
ENCODING 22744
SWIDTH 960 0
DWIDTH 10 0
BBX 10 10 0 -2
BITMAP
3f00
3500
ffc0
d540
ffc0
0c00
3f00
0c00
ffc0
0000
ENDCHAR
STARTCHAR 545d
ENCODING 22745
SWIDTH 960 0
DWIDTH 10 0
BBX 10 10 0 -2
BITMAP
6600
6fc0
fa80
6fc0
6a80
6fc0
6a80
db80
34c0
0000
ENDCHAR
STARTCHAR 5460
ENCODING 22748
SWIDTH 960 0
DWIDTH 10 0
BBX 10 10 0 -2
BITMAP
6f80
6d80
efc0
6b40
6f80
6000
6fc0
c680
0f80
0000
ENDCHAR
STARTCHAR 5455
ENCODING 22750
SWIDTH 960 0
DWIDTH 10 0
BBX 10 10 0 -2
BITMAP
6600
6fc0
f780
6000
6ac0
6600
6d40
dd80
0ec0
0000
ENDCHAR
STARTCHAR 5462
ENCODING 22751
SWIDTH 960 0
DWIDTH 10 0
BBX 10 10 0 -2
BITMAP
67c0
f600
db80
f6c0
d7c0
0c00
7f80
0c00
ffc0
0000
ENDCHAR
STARTCHAR 5461
ENCODING 22756
SWIDTH 960 0
DWIDTH 10 0
BBX 10 10 0 -2
BITMAP
6300
6fc0
ee80
6fc0
6680
6fc0
6d40
dd80
0ec0
0000
ENDCHAR
STARTCHAR 545f
ENCODING 22757
SWIDTH 960 0
DWIDTH 10 0
BBX 10 10 0 -2
BITMAP
6fc0
6a80
fb80
6b80
6d40
6800
6b80
db00
37c0
0000
ENDCHAR
STARTCHAR 3b4e
ENCODING 22763
SWIDTH 960 0
DWIDTH 10 0
BBX 10 10 0 -2
BITMAP
0c00
0c00
0c00
ffc0
0c00
0c00
0c00
0c00
7f80
0000
ENDCHAR
STARTCHAR 3f51
ENCODING 22764
SWIDTH 960 0
DWIDTH 10 0
BBX 10 10 0 -2
BITMAP
0780
7c00
0c00
0c00
ffc0
0c00
0c00
0c00
7f80
0000
ENDCHAR
STARTCHAR 4154
ENCODING 22766
SWIDTH 960 0
DWIDTH 10 0
BBX 10 10 0 -2
BITMAP
3300
d300
7300
37c0
3300
3300
7300
d300
37c0
0000
ENDCHAR
STARTCHAR 5463
ENCODING 22767
SWIDTH 960 0
DWIDTH 10 0
BBX 10 10 0 -2
BITMAP
d300
d300
f300
37c0
3300
f300
d300
d300
d7c0
0000
ENDCHAR
STARTCHAR 403c
ENCODING 22768
SWIDTH 960 0
DWIDTH 10 0
BBX 10 10 0 -2
BITMAP
0c00
ffc0
0c00
7f80
0000
7f80
6d80
7f80
c000
0000
ENDCHAR
STARTCHAR 306d
ENCODING 22769
SWIDTH 960 0
DWIDTH 10 0
BBX 10 10 0 -2
BITMAP
0c00
ffc0
0c00
ffc0
c0c0
3700
3c00
3180
3f80
0000
ENDCHAR
STARTCHAR 4764
ENCODING 22770
SWIDTH 960 0
DWIDTH 10 0
BBX 10 10 0 -2
BITMAP
0c00
ffc0
0c00
7f80
0000
ffc0
dac0
3600
e7c0
0000
ENDCHAR
STARTCHAR 445b
ENCODING 22775
SWIDTH 960 0
DWIDTH 10 0
BBX 10 10 0 -2
BITMAP
0c00
ffc0
0c00
ffc0
dac0
7f80
6a80
3f00
ffc0
0000
ENDCHAR
STARTCHAR 5465
ENCODING 22777
SWIDTH 960 0
DWIDTH 10 0
BBX 10 10 0 -2
BITMAP
0c00
ffc0
0c00
ffc0
d340
3f00
3300
1a00
ffc0
0000
ENDCHAR
STARTCHAR 5464
ENCODING 22778
SWIDTH 960 0
DWIDTH 10 0
BBX 10 10 0 -2
BITMAP
0c00
ffc0
0c00
ffc0
dac0
7b80
7380
1a00
ffc0
0000
ENDCHAR
STARTCHAR 5466
ENCODING 22779
SWIDTH 960 0
DWIDTH 10 0
BBX 10 10 0 -2
BITMAP
6fc0
66c0
eb00
6fc0
6000
6f80
7580
cf80
0d80
0000
ENDCHAR
STARTCHAR 5467
ENCODING 22780
SWIDTH 960 0
DWIDTH 10 0
BBX 10 10 0 -2
BITMAP
0c00
ffc0
0c00
ffc0
c0c0
7f80
1a00
7380
1a00
ffc0
ENDCHAR
STARTCHAR 5468
ENCODING 22781
SWIDTH 960 0
DWIDTH 10 0
BBX 10 10 0 -2
BITMAP
0c00
ffc0
0c00
ffc0
3f40
0c00
ffc0
6980
7a80
0000
ENDCHAR
STARTCHAR 5469
ENCODING 22786
SWIDTH 960 0
DWIDTH 10 0
BBX 10 10 0 -2
BITMAP
1800
1f00
3300
7300
da00
1a00
0c00
3b00
e1c0
0000
ENDCHAR
STARTCHAR 4a51
ENCODING 22793
SWIDTH 960 0
DWIDTH 10 0
BBX 10 10 0 -2
BITMAP
0c00
ffc0
6a80
d6c0
0000
1f00
7300
1e00
f3c0
0000
ENDCHAR
STARTCHAR 546a
ENCODING 22794
SWIDTH 960 0
DWIDTH 10 0
BBX 10 10 0 -2
BITMAP
6800
6f00
3300
7300
da00
1a00
0c00
3b00
e1c0
0000
ENDCHAR
STARTCHAR 3246
ENCODING 22799
SWIDTH 960 0
DWIDTH 10 0
BBX 10 10 0 -2
BITMAP
ffc0
1800
7f80
6180
7f80
1f00
7300
1e00
f3c0
0000
ENDCHAR
STARTCHAR 546b
ENCODING 22800
SWIDTH 960 0
DWIDTH 10 0
BBX 10 10 0 -2
BITMAP
3e00
6600
ffc0
3540
7f00
1800
3f00
ee00
3bc0
0000
ENDCHAR
STARTCHAR 4d3c
ENCODING 22805
SWIDTH 960 0
DWIDTH 10 0
BBX 10 10 0 -2
BITMAP
1800
1f80
1980
3180
6d00
0700
0600
1c00
7000
0000
ENDCHAR
STARTCHAR 3330
ENCODING 22806
SWIDTH 960 0
DWIDTH 10 0
BBX 10 10 0 -2
BITMAP
6600
7a00
6a00
eb00
da80
1ac0
3600
6600
c600
0000
ENDCHAR
STARTCHAR 5249
ENCODING 22808
SWIDTH 960 0
DWIDTH 10 0
BBX 10 10 0 -2
BITMAP
6000
7bc0
6ac0
6ac0
7ac0
dac0
36c0
6600
c600
0000
ENDCHAR
STARTCHAR 3d48
ENCODING 22809
SWIDTH 960 0
DWIDTH 10 0
BBX 10 10 0 -2
BITMAP
7f80
6180
6e80
6d80
6e80
7a80
6d80
d8c0
c0c0
0000
ENDCHAR
STARTCHAR 423f
ENCODING 22810
SWIDTH 960 0
DWIDTH 10 0
BBX 10 10 0 -2
BITMAP
3000
3e00
6600
d500
1bc0
f4c0
1a80
0300
3e00
0000
ENDCHAR
STARTCHAR 546c
ENCODING 22811
SWIDTH 960 0
DWIDTH 10 0
BBX 10 10 0 -2
BITMAP
3f00
0300
ffc0
0c00
1f00
3b00
6e00
1c00
f000
0000
ENDCHAR
STARTCHAR 4c6b
ENCODING 22812
SWIDTH 960 0
DWIDTH 10 0
BBX 10 10 0 -2
BITMAP
0c00
ffc0
3600
3780
6d80
ee80
6b00
6700
6dc0
0000
ENDCHAR
STARTCHAR 4c34
ENCODING 22818
SWIDTH 960 0
DWIDTH 10 0
BBX 10 10 0 -2
BITMAP
3300
ffc0
6a80
ffc0
d8c0
1f00
7b00
0e00
7800
0000
ENDCHAR
STARTCHAR 546e
ENCODING 22821
SWIDTH 960 0
DWIDTH 10 0
BBX 10 10 0 -2
BITMAP
fb00
ebc0
db40
f980
6700
fbc0
7740
e980
6700
0000
ENDCHAR
STARTCHAR 4267
ENCODING 22823
SWIDTH 960 0
DWIDTH 10 0
BBX 10 10 0 -2
BITMAP
0c00
0c00
ffc0
1a00
1a00
3300
3300
6180
c0c0
0000
ENDCHAR
STARTCHAR 4537
ENCODING 22825
SWIDTH 960 0
DWIDTH 10 0
BBX 10 10 0 -2
BITMAP
0000
ffc0
0c00
0c00
7f80
0c00
1a00
3300
e1c0
0000
ENDCHAR
STARTCHAR 4240
ENCODING 22826
SWIDTH 960 0
DWIDTH 10 0
BBX 10 10 0 -2
BITMAP
0c00
0c00
ffc0
1a00
1a00
3300
3300
6d80
c6c0
0000
ENDCHAR
STARTCHAR 4957
ENCODING 22827
SWIDTH 960 0
DWIDTH 10 0
BBX 10 10 0 -2
BITMAP
0c00
0c00
7f80
0c00
ffc0
0c00
1a00
3300
e1c0
0000
ENDCHAR
STARTCHAR 546f
ENCODING 22828
SWIDTH 960 0
DWIDTH 10 0
BBX 10 10 0 -2
BITMAP
0c00
0c00
3f00
0d00
ffc0
0c00
1a00
3300
e1c0
0000
ENDCHAR
STARTCHAR 5470
ENCODING 22829
SWIDTH 960 0
DWIDTH 10 0
BBX 10 10 0 -2
BITMAP
0700
7c00
0c00
ffc0
0c00
1a00
1a00
3300
e1c0
0000
ENDCHAR
STARTCHAR 317b
ENCODING 22830
SWIDTH 960 0
DWIDTH 10 0
BBX 10 10 0 -2
BITMAP
0c00
0c00
7f80
6d80
6d80
ffc0
1a00
3300
e1c0
0000
ENDCHAR
STARTCHAR 3c3a
ENCODING 22833
SWIDTH 960 0
DWIDTH 10 0
BBX 10 10 0 -2
BITMAP
0c00
3400
7f80
0c00
ffc0
0c00
1a00
3300
e1c0
0000
ENDCHAR
STARTCHAR 5471
ENCODING 22834
SWIDTH 960 0
DWIDTH 10 0
BBX 10 10 0 -2
BITMAP
0c00
0c00
ffc0
1a00
3500
6d80
df40
0c00
0c00
0000
ENDCHAR
STARTCHAR 3050
ENCODING 22839
SWIDTH 960 0
DWIDTH 10 0
BBX 10 10 0 -2
BITMAP
0c00
ffc0
0d80
7f80
6c00
7fc0
0cc0
1a80
f3c0
0000
ENDCHAR
STARTCHAR 5472
ENCODING 22840
SWIDTH 960 0
DWIDTH 10 0
BBX 10 10 0 -2
BITMAP
0c00
ffc0
3300
6e80
c0c0
7f80
1800
1f00
0600
0000
ENDCHAR
STARTCHAR 5473
ENCODING 22846
SWIDTH 960 0
DWIDTH 10 0
BBX 10 10 0 -2
BITMAP
0c00
0c00
ffc0
6d80
6d80
d540
1a00
3300
e1c0
0000
ENDCHAR
STARTCHAR 3162
ENCODING 22852
SWIDTH 960 0
DWIDTH 10 0
BBX 10 10 0 -2
BITMAP
0c00
ffc0
3f00
7580
df40
3500
3f00
0cc0
0fc0
0000
ENDCHAR
STARTCHAR 3471
ENCODING 22855
SWIDTH 960 0
DWIDTH 10 0
BBX 10 10 0 -2
BITMAP
0c00
ffc0
1a00
3300
ffc0
0300
7b00
7b00
0700
0000
ENDCHAR
STARTCHAR 4660
ENCODING 22856
SWIDTH 960 0
DWIDTH 10 0
BBX 10 10 0 -2
BITMAP
0c00
ffc0
3300
6e80
c0c0
7f80
0c00
6d80
dcc0
0000
ENDCHAR
STARTCHAR 4a74
ENCODING 22857
SWIDTH 960 0
DWIDTH 10 0
BBX 10 10 0 -2
BITMAP
0c00
7f80
1a00
ffc0
3500
6e80
ccc0
7f80
0c00
0000
ENDCHAR
STARTCHAR 5477
ENCODING 22862
SWIDTH 960 0
DWIDTH 10 0
BBX 10 10 0 -2
BITMAP
0c00
ffc0
3500
eec0
7f80
0c00
3f00
0c00
ffc0
0000
ENDCHAR
STARTCHAR 4155
ENCODING 22863
SWIDTH 960 0
DWIDTH 10 0
BBX 10 10 0 -2
BITMAP
0c00
7f80
1800
ffc0
6e80
ccc0
7f80
1a00
7380
0000
ENDCHAR
STARTCHAR 5476
ENCODING 22864
SWIDTH 960 0
DWIDTH 10 0
BBX 10 10 0 -2
BITMAP
3e00
6600
ff80
6b80
7580
ffc0
0c00
3b00
e1c0
0000
ENDCHAR
STARTCHAR 3740
ENCODING 22865
SWIDTH 960 0
DWIDTH 10 0
BBX 10 10 0 -2
BITMAP
37c0
fb40
7340
3ac0
f6c0
0c00
ffc0
1a00
f3c0
0000
ENDCHAR
STARTCHAR 4b5b
ENCODING 22868
SWIDTH 960 0
DWIDTH 10 0
BBX 10 10 0 -2
BITMAP
0c00
ffc0
6d80
df40
0c00
3300
ffc0
3300
6300
0000
ENDCHAR
STARTCHAR 5475
ENCODING 22869
SWIDTH 960 0
DWIDTH 10 0
BBX 10 10 0 -2
BITMAP
0c00
ffc0
6a80
dac0
3600
0c00
ffc0
1a00
f3c0
0000
ENDCHAR
STARTCHAR 4565
ENCODING 22871
SWIDTH 960 0
DWIDTH 10 0
BBX 10 10 0 -2
BITMAP
0c00
ffc0
6180
df40
3000
ffc0
3000
3300
7e80
0000
ENDCHAR
STARTCHAR 5479
ENCODING 22872
SWIDTH 960 0
DWIDTH 10 0
BBX 10 10 0 -2
BITMAP
d300
f7c0
3300
f300
d780
0c00
ffc0
3b00
e1c0
0000
ENDCHAR
STARTCHAR 5478
ENCODING 22874
SWIDTH 960 0
DWIDTH 10 0
BBX 10 10 0 -2
BITMAP
0f00
7d80
dac0
3580
7f80
0c00
ffc0
3b00
e1c0
0000
ENDCHAR
STARTCHAR 547b
ENCODING 22880
SWIDTH 960 0
DWIDTH 10 0
BBX 10 10 0 -2
BITMAP
3300
7f80
dac0
7f80
7380
6d80
ffc0
1a00
f3c0
0000
ENDCHAR
STARTCHAR 547a
ENCODING 22882
SWIDTH 960 0
DWIDTH 10 0
BBX 10 10 0 -2
BITMAP
0c00
ffc0
3500
eec0
0c00
ffc0
3b00
eb00
1f00
0000
ENDCHAR
STARTCHAR 317c
ENCODING 22885
SWIDTH 960 0
DWIDTH 10 0
BBX 10 10 0 -2
BITMAP
0c00
7f80
7580
6e80
7580
6d80
ffc0
1a00
f3c0
0000
ENDCHAR
STARTCHAR 547c
ENCODING 22887
SWIDTH 960 0
DWIDTH 10 0
BBX 10 10 0 -2
BITMAP
1800
7f80
6680
6d80
6e80
6d80
ffc0
1a00
f3c0
0000
ENDCHAR
STARTCHAR 3e29
ENCODING 22888
SWIDTH 960 0
DWIDTH 10 0
BBX 10 10 0 -2
BITMAP
d7c0
7540
37c0
7180
d680
0c00
ffc0
1a00
f3c0
0000
ENDCHAR
STARTCHAR 547e
ENCODING 22889
SWIDTH 960 0
DWIDTH 10 0
BBX 10 10 0 -2
BITMAP
0c00
ffc0
1a00
3f00
efc0
6d00
6f80
6a80
3fc0
0000
ENDCHAR
STARTCHAR 4325
ENCODING 22890
SWIDTH 960 0
DWIDTH 10 0
BBX 10 10 0 -2
BITMAP
0c00
ffc0
6d80
df40
3400
3f00
0600
ffc0
3600
0000
ENDCHAR
STARTCHAR 547d
ENCODING 22892
SWIDTH 960 0
DWIDTH 10 0
BBX 10 10 0 -2
BITMAP
d3c0
f6c0
3380
f7c0
d680
0c00
ffc0
1a00
f3c0
0000
ENDCHAR
STARTCHAR 4a33
ENCODING 22894
SWIDTH 960 0
DWIDTH 10 0
BBX 10 10 0 -2
BITMAP
0c00
ffc0
6980
df40
3400
7f80
6d80
6d80
7f80
0000
ENDCHAR
STARTCHAR 3d77
ENCODING 22899
SWIDTH 960 0
DWIDTH 10 0
BBX 10 10 0 -2
BITMAP
0c00
0c00
ffc0
1b00
3300
3a00
0e00
1b00
7180
0000
ENDCHAR
STARTCHAR 455b
ENCODING 22900
SWIDTH 960 0
DWIDTH 10 0
BBX 10 10 0 -2
BITMAP
6000
6fc0
f0c0
d680
d680
d300
6300
7680
d4c0
0000
ENDCHAR
STARTCHAR 5521
ENCODING 22904
SWIDTH 960 0
DWIDTH 10 0
BBX 10 10 0 -2
BITMAP
6000
6fc0
f300
d300
d7c0
d300
6300
7300
d300
0000
ENDCHAR
STARTCHAR 3925
ENCODING 22909
SWIDTH 960 0
DWIDTH 10 0
BBX 10 10 0 -2
BITMAP
3000
37c0
fcc0
6980
6980
6bc0
3180
3980
6b80
0000
ENDCHAR
STARTCHAR 5522
ENCODING 22913
SWIDTH 960 0
DWIDTH 10 0
BBX 10 10 0 -2
BITMAP
6600
67c0
f4c0
d0c0
d6c0
d340
60c0
70c0
d380
0000
ENDCHAR
STARTCHAR 4721
ENCODING 22914
SWIDTH 960 0
DWIDTH 10 0
BBX 10 10 0 -2
BITMAP
3000
37c0
fac0
6ac0
6ac0
6ac0
36c0
6ac0
c7c0
0000
ENDCHAR
STARTCHAR 485e
ENCODING 22915
SWIDTH 960 0
DWIDTH 10 0
BBX 10 10 0 -2
BITMAP
3000
37c0
f8c0
68c0
6bc0
6a00
3600
3ac0
6bc0
0000
ENDCHAR
STARTCHAR 4c51
ENCODING 22916
SWIDTH 960 0
DWIDTH 10 0
BBX 10 10 0 -2
BITMAP
0c00
ffc0
3000
3f00
0c00
ffc0
3300
3e00
f3c0
0000
ENDCHAR
STARTCHAR 4725
ENCODING 22922
SWIDTH 960 0
DWIDTH 10 0
BBX 10 10 0 -2
BITMAP
61c0
6f00
fb00
d300
d7c0
d300
6300
7300
d7c0
0000
ENDCHAR
STARTCHAR 552b
ENCODING 22925
SWIDTH 960 0
DWIDTH 10 0
BBX 10 10 0 -2
BITMAP
6000
6fc0
f680
d680
d7c0
d680
6680
7680
d580
0000
ENDCHAR
STARTCHAR 3538
ENCODING 22931
SWIDTH 960 0
DWIDTH 10 0
BBX 10 10 0 -2
BITMAP
6300
6300
f7c0
d300
d7c0
d4c0
6680
7300
d6c0
0000
ENDCHAR
STARTCHAR 4d45
ENCODING 22934
SWIDTH 960 0
DWIDTH 10 0
BBX 10 10 0 -2
BITMAP
6180
6f00
f300
d7c0
d300
d300
6680
7680
d4c0
0000
ENDCHAR
STARTCHAR 4c2f
ENCODING 22937
SWIDTH 960 0
DWIDTH 10 0
BBX 10 10 0 -2
BITMAP
6600
6600
f680
d6c0
d600
d680
6180
7300
d600
0000
ENDCHAR
STARTCHAR 562c
ENCODING 22939
SWIDTH 960 0
DWIDTH 10 0
BBX 10 10 0 -2
BITMAP
ccc0
ffc0
0000
ffc0
1800
ffc0
3300
3e00
f3c0
0000
ENDCHAR
STARTCHAR 5523
ENCODING 22941
SWIDTH 960 0
DWIDTH 10 0
BBX 10 10 0 -2
BITMAP
d300
d300
f7c0
3680
3680
f680
d300
d380
d6c0
0000
ENDCHAR
STARTCHAR 5526
ENCODING 22947
SWIDTH 960 0
DWIDTH 10 0
BBX 10 10 0 -2
BITMAP
6d00
6d00
f540
d780
d500
d500
6d00
7740
d5c0
0000
ENDCHAR
STARTCHAR 4245
ENCODING 22949
SWIDTH 960 0
DWIDTH 10 0
BBX 10 10 0 -2
BITMAP
0780
fc00
d980
6d00
1800
ffc0
3300
3e00
f3c0
0000
ENDCHAR
ENDFONT
